<?xml version="1.0" encoding="UTF-8"?>
<svg version="1.1" viewBox="0 0 2048 1189" width="1280" height="1280" xmlns="http://www.w3.org/2000/svg">
<path transform="translate(0)" d="m0 0h2048v1189h-2048z"/>
<path transform="translate(1022,497)" d="m0 0h22l9 3 8 5 5 6 4 8 1 4v15l-14 45-10 36-9 34-13 60-7 40v5l5-1 17-35 10-19 12-23 14-24 12-20 13-19 12-16 11-14 12-14 11-12 10-10 16-12 10-6 11-4 6-1h14l12 3 7 4 8 9 3 7 1 5v12l-11 40-10 43-8 42-6 42-4 41-2 41v41l2 25 4 20 5 12 5 6 5 3h7l10-4 14-10h6l3 2-1 6-6 11-9 10-11 9-9 4-10 1-10-2-10-5-10-9-7-10-8-16-9-27-5-25-3-26-1-15v-61l3-51 4-38 6-38 7-33 5-21v-5l-8 1-8 6-10 9-7 8-12 14-14 19-18 27-13 21-14 25-15 28-18 35-14 28-14 32-6 18-3 12-5 4-9 1-7-3-6-7-5-13-3-19v-56l3-37 6-48 8-47 10-49 9-41-1-3-8 1-8 5-11 10-7 8-12 15-14 20-17 28-15 27-21 41-12 24-13 28-13 30-16 40-13 36-6 20-3 14-3 3-3 1h-9l-6-3-6-7-5-12-3-17-1-16v-30l2-49 3-37 5-40 6-35 9-41 8-27 7-20 10-21 9-13 10-9 9-4h12l6 4 3 6v10l-17 59-14 57-12 61-9 58-1 4 5-1 2 1 3-9 16-38 13-29 16-33 11-22 13-23 12-20 14-21 9-12 8-10 12-14 8-8 11-9 11-8 16-8 9-3z" fill="#fff"/>
<path transform="translate(557,265)" d="m0 0h15l16 4 10 6 8 8 3 5 2 11v7l-17-2h-26l-18 3-16 5-16 7-15 9-12 9-14 12-11 11-9 11-12 15-16 24-15 26-14 27-13 29-11 29-9 27-8 29-8 36-5 30-5 42-2 32v31l2 27 4 27 6 23 7 19 8 16 9 14 12 14 12 9 17 9 15 4 15 2h16l22-4 21-7 17-9 13-9 15-13 11-11 9-11 11-15 12-19 12-22 11-23 14-33 13-36 8-26 9-35 7-36 4-29 2-21 1-18v-46l-2-27-4-26-6-23-8-18-7-10-5-6-10-7-9-4-15-2 1-7 4-5 8-5 9-3h19l11 3 12 6 10 9 7 8 8 14 6 14 6 20 6 31 3 30v45l-3 34-5 33-8 38-9 34-12 38-12 33-12 27-16 32-13 21-8 12-13 18-13 15-9 10-16 16-11 9-13 10-16 10-17 9-21 8-21 5-14 2h-35l-21-3-20-6-21-10-13-9-10-9-12-12-11-15-11-19-9-21-7-21-6-23-4-22-3-26-1-20v-19l1-23 4-38 7-41 7-31 10-35 13-38 12-29 16-33 14-25 13-20 10-14 10-13 12-14 9-10 22-22 11-9 16-12 17-10 16-8 15-6 17-5 20-3z" fill="#fff"/>
<path transform="translate(1419,516)" d="m0 0 11 1 6 4 4 8v9l-14 39-12 36-13 50-14 62-8 42-6 42-3 32-2 43-3 6-9 3-7-2-7-8-4-11-3-15-1-11v-60l3-50 4-37 6-39 8-38 9-32 8-23 9-19 8-12 9-10 8-6 7-3z" fill="#fff"/>
<path transform="translate(1460,345)" d="m0 0h11l6 3 4 5 1 3v15l-5 14-11 21-14 22-9 12-7-1-5-5-4-8-1-5v-25l4-16 5-12 5-9 8-9 8-4z" fill="#fff"/>
</svg>
