<?xml version="1.0" encoding="UTF-8"?>
<svg version="1.1" viewBox="0 0 1676 1120" width="1280" height="1280" xmlns="http://www.w3.org/2000/svg">
<path transform="translate(0)" d="m0 0h1676v1120h-1676z" fill="#FBFBFB"/>
<path transform="translate(0,767)" d="m0 0h1676v353h-1676z" fill="#010101"/>
<path transform="translate(0)" d="m0 0h1676v351h-1676z" fill="#010101"/>
<path transform="translate(283,409)" d="m0 0h29l15 3 16 6 11 6 12 9 14 14 9 14 6 13 4 11 3 21-1 20-4 18-6 15-7 12-9 11-7 7-12 9-14 8-16 6-15 3h-24l-15-3-15-5-15-8-14-11-9-9-10-14-8-16-5-16-1-6v-30l4-17 6-15 9-14 11-13 10-9 13-8 15-7 14-4z" fill="#010101"/>
<path transform="translate(1265,413)" d="m0 0 18 2 17 5 16 8 13 10 9 9 8 11 7 12 6 17 2 11v28l-3 14-6 16-9 14-11 12-10 9-13 8-16 7-16 4h-17v-178l1-18z" fill="#010101"/>
<path transform="translate(1413,413)" d="m0 0 19 2 17 5 16 8 12 9 13 13 9 14 7 15 4 14 1 7v21l-2 13-5 16-8 15-12 15h-2v2l-14 11-14 8-12 5-16 4h-14l-1-8 1-188z" fill="#010101"/>
<path transform="translate(972,413)" d="m0 0h15l16 2 15 6 11 8 7 7 9 14 5 16 1 15-2 13-5 12-2 7 5 11 3 10 1 15-2 13-6 15-8 11-8 8-15 9-12 4-5 1h-24l-1-101 1-95z" fill="#010101"/>
<path transform="translate(286,452)" d="m0 0h23l12 3 11 6 10 8 9 12 4 8 3 10 1 7v12l-3 14-7 14-11 12-10 7-12 5-10 2h-17l-15-4-12-7-12-12-7-12-4-12-1-5v-18l4-13 7-13 10-11 11-7 8-4z" fill="#FCFCFC"/>
<path transform="translate(283,409)" d="m0 0h29l15 3 16 6 11 6 12 9 14 14 9 14 6 13 4 11 3 21-1 20-4 18-6 15-7 12-9 11-7 7-12 9-14 8-16 6-15 3h-24l-15-3-15-5-15-8-14-11-9-9-10-14-8-16-5-16-1-6v-30l4-17 6-15 9-14 11-13 10-9 13-8 15-7 14-4zm6 18-14 3-15 6-12 7-12 11-8 10-6 10-5 12-4 18v16l3 15 5 13 8 13 9 10 10 9 7 5 11 5 15 5 12 2h16l12-3 13-5 12-7 9-7 10-10 7-10 5-11 5-18 1-6v-20l-4-16-4-10-10-16-12-12-13-9-13-6-13-3-10-1z" fill="#010101"/>
<path transform="translate(1063,410)" d="m0 0h17v104l1 1 1-104h7v123l2 15 3 8 7 11 10 9 10 5 6 2 14 1 11-2 9-4 9-6 7-7 6-10 3-12 1-134h24l1 1v132l-2 14-5 13-8 12-12 12-11 7-11 5-15 4h-18l-17-4-16-8-10-8-9-10-8-14-4-11-2-11-1-16z" fill="#C0C0C0"/>
<path transform="translate(539,414)" d="m0 0h123v42l-1 2-37 1-1 151h-7v-151l-2-1-1 152h-6v-153l-2 1-1 149-1 3h-6l-1-41v-110h-2l-1 151h-6v-152h-2l-1 152h-6v-152h-38l-1-7 4-1-4-1z" fill="#010101"/>
<path transform="translate(708,413)" d="m0 0h76v6l-30 1h-37l-3-1v4h70v5l-2 1h-61l-7-1v4h70v7h-69l-1 4 61-1 9 1v6h-67l-3-1v4l50-1h20v7h-71v36h47l5 1v5l-52 1 1 2 51 1-1 7h-50v4l31-1h18l1 1v6h-17l-33 1v1h50l1 4-1 2h-51v3h52v6l-1 1h-51l1 26 70 1v5l-3 1h-66l-1 3h70v6l-5 1h-30l-35-1v4h70v6l-66 1-4-1v3l70 1v5l-3 1h-68v3h71v6h-77v-181z" fill="#010101"/>
<path transform="translate(1226,413)" d="m0 0h32l-1 197h-31z" fill="#A2A2A2"/>
<path transform="translate(1376,413)" d="m0 0h33v178l-1 19h-25v-196h-2v194l-1 2h-5v-196z" fill="#BCBCBC"/>
<path transform="translate(142,413)" d="m0 0h7v195l-1 2h-5l-1-1v-64l-75-1v66h-7l-1-196h8v85h75z" fill="#010101"/>
<path transform="translate(162,413)" d="m0 0h25v197h-8l-1-2-2 2h-14z" fill="#D3D3D3"/>
<path transform="translate(539,414)" d="m0 0h123v38h-123l4-2-4-1z" fill="#A3A3A3"/>
<path transform="translate(1268,454)" d="m0 0 17 5 12 7 6 5 9 12 6 13 1 5v22l-3 10-6 11-10 11-11 7-11 5-9 2-2-2v-111z" fill="#FAFAFA"/>
<path transform="translate(1418,454)" d="m0 0 16 5 11 6 9 8 9 13 4 10 2 9v14l-4 15-6 10-11 12-13 8-12 4h-6v-113z" fill="#FAFAFA"/>
<path transform="translate(1542,412)" d="m0 0 6 1 14 24 17 29 7 10 8-15 16-27 12-20 5-2 2 2-11 20-16 27-8 14-4 11h2l2-5 10-18 13-22 14-24 6-5h2l-1 6-14 25-9 15-10 17-6 9-3 7v3l7-10 14-24 8-13 7-12 6-11 7-11 5-1-1 5-10 19-12 20-17 29-8 14v5l10-17 17-29 10-17 9-16 6-10 4-3h3l-3 9-12 21-17 29-10 17-9 15-3 10 2 1 2-6 13-23 8-14 9-15 24-42 7-2-1 6-15 27-16 27-13 23-10 17-5 8-1 4v86h-7l-1-88-8-16-13-21-13-23-9-15-13-23-5-9z" fill="#010101"/>
<path transform="translate(283,409)" d="m0 0h29l15 3 16 6 11 6 12 9 14 14 9 14 6 13 4 11 3 21-1 20-4 18-6 15-7 12-9 11-7 7-12 9-14 8-16 6-15 3h-24l-15-3-15-5-15-8-14-11-9-9-10-14-8-16-5-16-1-6v-30l4-17 6-15 9-14 11-13 10-9 13-8 15-7 14-4zm1 6-17 4-6 2-2 2-6 2-13 8-10 8-9 11-7 10-8 15-5 17-1 7v21l3 15 5 13 9 16 11 13 8 8 14 10 16 7 19 5h26l17-4 16-7 12-8 10-9 5-5 7-8 7-11 5-11 4-14 2-17-1-22-4-14-5-11-7-12-12-14-12-11-12-7-14-6-17-3z" fill="#010101"/>
<path transform="translate(841,413)" d="m0 0h2l1 152h75l1 4-1 3h-76l1 3h75l1 5-1 1h-76l1 3h66l9 1 1 5-1 1-75 1-1 3h77v5l-8 1h-69v3h76l1 1v5h-83l-1-11v-185z" fill="#010101"/>
<path transform="translate(952,413)" d="m0 0h17l-1 156v41h-16l-1-2v-171z" fill="#010101"/>
<path transform="translate(1078,410)" d="m0 0h2v124l1 14 4 13 7 11 10 10 11 7 11 4 6 1h18l12-4 8-4 10-8 9-10 6-12 2-8 1-12 1-125h8l-1 113-2 24-3 12-5 10-8 10-7 7-13 8-11 4-13 2-14-1-13-4-16-8-10-9-7-10-5-10-4-15-1-38v-95z" fill="#010101"/>
<path transform="translate(289,427)" d="m0 0h15l15 2 13 4 13 7 11 9 9 9 8 13 4 8 5 16 1 5v20l-5 21-4 9-4 8-8 10-10 10-14 9-11 5-8 3-10 2h-16l-16-3-18-7-11-7-12-11-8-9-7-12-5-13-3-15v-16l4-18 5-12 6-10 9-11 7-7 14-9 14-6 10-3zm-4 6-13 3-15 8-12 9-10 11-9 14-4 10-3 15v18l2 10 5 13 8 14 11 12 10 8 11 6 16 6 6 1h22l11-3 16-7 11-8 15-15 8-14 5-16 1-6v-20l-3-15-5-12-7-11-9-10-8-7-14-8-11-4-9-2z" fill="#010101"/>
<path transform="translate(1207,410)" d="m0 0 5 1v132l-2 14-5 13-8 12-12 12-11 7-11 5-15 4h-18l-17-4-16-8-10-8-9-10-8-14-4-11-2-11-1-16 1-117h5l1 122 2 17 3 10 8 15 11 12 11 8 14 6 9 2h20l12-3 14-7 10-8 10-11 6-10 3-9 2-14 1-20z" fill="#010101"/>
<path transform="translate(1082,411)" d="m0 0h7v123l2 15 3 8 7 11 10 9 10 5 6 2 14 1 11-2 9-4 9-6 7-7 6-10 3-12 1-14 1-119h6v117l-2 20-4 13-9 13-8 7-9 6-12 4-6 1h-11l-12-3-14-7-9-7-9-12-5-12-1-5-1-39z" fill="#010101"/>
<path transform="translate(1092,411)" d="m0 0h7l1 133 3 10 6 9 8 7 9 4 4 1h15l11-4 9-6 6-7 5-10 2-20v-117h7l-1 127-2 13-6 12-10 10-9 6-11 3h-12l-12-3-13-7-9-9-7-14-1-7z" fill="#010101"/>
<path transform="translate(290,446)" d="m0 0h16l11 2 13 5 11 7 12 12 8 16 3 10v26l-5 16-7 11-11 12-11 7-11 5-16 3-16-1-16-5-11-6-9-7-8-10-8-16-2-5-1-6v-20l3-13 9-16 9-10 8-7 12-6zm-4 6-13 4-11 7-10 9-7 11-5 11-2 8v18l3 11 4 10 7 10 10 10 12 7 15 4h17l16-4 12-7 11-10 7-10 5-12 2-11v-12l-3-14-4-9-6-9-6-7-11-8-11-5-9-2z" fill="#010101"/>
<path transform="translate(1169,410)" d="m0 0h7v115l-2 21-4 9-7 8-8 6-8 3h-14l-12-4-9-6-7-8-2-6-1-7v-130h6l1 129 2 9 6 9 8 6 7 2h12l10-4 8-7 5-10 1-8z" fill="#010101"/>
<path transform="translate(284,415)" d="m0 0h28l17 3 15 7 12 7 13 12 10 12 8 13 6 16 2 8 1 22-2 17-5 17-8 15-8 10-5 6-8 7-13 9-14 7-12 4-10 2h-26l-19-5-16-7-11-8-10-9-10-11-9-15-6-13-3-12-1-7v-21l3-15 5-13 9-16 9-11 5-6 12-9 11-7 7-2 3-2 15-4zm-1 4-19 5-16 8-9 6-10 9-10 13-9 17-5 15-1 6v27l4 16 6 14 9 13 9 11 12 10 17 9 18 6 11 2h18l15-3 13-5 18-10 13-12 8-9 9-16 6-17 2-12v-26l-4-15-8-17-8-11-11-12-13-10-12-6-13-4-11-2z" fill="#AFAFAF"/>
<path transform="translate(469,446)" d="m0 0 10 1 10 7 4 4-1 4-5-1-7-6-6-2h-6l-8 5-4 5-1 3v7l3 7 5 5 8 2 18 3 12 5 10 7 9 9 7 11 4 10 2 14-1 15-5 15-7 11-10 10-13 8-12 4-5 1h-16l-15-4-12-6-10-9-7-8-5-11 1-3 5 2 10 15 9 8 14 7 8 2h17l12-3 11-6 11-10 7-11 4-11 1-5v-18l-4-13-7-11v-2l-4-2-5-5-9-6-11-4-20-3-9-5-6-7-2-5v-10l4-10 7-6z" fill="#010101"/>
<path transform="translate(464,409)" d="m0 0h15l14 3 12 6 10 9 8 9 4 10h-6l-6-9-9-10-13-8-6-2-7-1h-13l-14 3-12 6-10 8-7 10-4 8-2 7v23l4 12 8 12 4 5 11 8 11 4 19 3 10 4 7 8 2 5v13l-4 8-4 5-9 4h-12l-8-4-7-8-1-5 5-1 6 8 4 3 3 1h8l8-5 4-6 1-8-2-7-5-5-8-3-19-3-12-5-10-7-7-7-7-10-5-11-2-8v-21l3-12 7-13 8-10 11-8 10-5z" fill="#010101"/>
<path transform="translate(464,428)" d="m0 0h15l10 3 9 6 6 5 6 9v3h-5l-6-7v-2l-4-2-9-6-6-2h-15l-9 3-8 6h-2l-2 4-5 8-2 5v18l6 12 7 8 10 5 25 5 12 6 7 6 7 11 3 12-1 13-3 10-4 6-9 10-10 6-6 2h-18l-11-4-11-8-8-11-1-5 5-1 9 12 8 7 9 3h16l10-4 10-9 6-10 1-4v-18l-4-10-8-8-12-6-22-4-10-4-10-9-6-8-4-11-1-10 2-12 5-10 9-10 10-6z" fill="#010101"/>
<path transform="translate(464,419)" d="m0 0h16l12 3 10 6 10 9 6 9v4l-5-1-9-11-11-8-9-4-7-1h-12l-10 3-10 6-8 7-7 11-3 10v15l3 10 7 12 8 8 12 6 25 5 10 5 8 9 4 10v12l-3 9-6 9-9 7-5 2-11 1-10-2-9-5-5-5-4-5-1-6 4-1 7 10 10 6 5 1h8l9-3 8-7 4-8 1-11-2-9-4-6-6-5-8-3-19-3-11-4-11-8-8-10-6-12-2-7-1-12 3-14 6-12 10-11 12-7 9-3z" fill="#010101"/>
<path transform="translate(464,438)" d="m0 0h15l10 4 10 9 2 3v4l-5-1-8-8-10-5-6-1-10 2-10 7-5 9-1 2v14l4 9 4 5 8 4 23 4 11 4 9 7 5 5 7 9 5 12 1 4v14l-2 10-5 12-7 9-7 6-11 6-10 3h-18l-13-4-11-6-8-8-7-12 1-4h4l7 11 6 7 11 7 11 3h15l11-4 9-6 6-5 7-10 3-9 1-6v-12l-3-12-6-9-2-4-4-2-9-6-7-3-24-5-10-5-5-4-5-8-2-7v-14l4-10 8-9 9-5z" fill="#010101"/>
<path transform="translate(284,424)" d="m0 0h28l14 3 12 5 13 8 10 9 9 10 9 15 5 14 3 18v12l-4 20-5 12-7 12-8 10-8 7-12 9-17 8-16 4h-23l-16-4-12-5-9-5-10-8-10-10-7-10-8-16-4-12-1-6v-26l4-15 8-16 9-13 10-10 10-7 17-9zm5 3-14 3-15 6-12 7-12 11-8 10-6 10-5 12-4 18v16l3 15 5 13 8 13 9 10 10 9 7 5 11 5 15 5 12 2h16l12-3 13-5 12-7 9-7 10-10 7-10 5-11 5-18 1-6v-20l-4-16-4-10-10-16-12-12-13-9-13-6-13-3-10-1z" fill="#A6A6A6"/>
<path transform="translate(285,433)" d="m0 0h26l16 4 15 8 9 7 9 9 9 14 5 12 3 15v20l-4 17-8 16-9 10-10 10-13 8-14 6-9 2h-22l-12-3-13-5-11-7-13-12-7-9-8-15-4-12-1-7v-18l3-15 5-12 9-13 11-12 11-8 14-7zm0 4-16 5-12 6-10 8-7 7-7 10-7 14-3 11-1 11v9l3 16 8 16 7 10 11 11 11 7 14 6 10 3 16 1 14-2 13-5 11-6 9-7 5-4 10-13 6-15 3-15v-22l-3-13-8-16-11-13-10-8-10-6-16-5-7-1z" fill="#A6A6A6"/>
<path transform="translate(288,442)" d="m0 0h17l17 3 15 8 11 9 9 10 8 16 3 16v16l-3 14-8 16-9 11-11 9-16 8-12 3h-23l-14-4-13-7-12-11-8-10-7-14-3-11-1-17 3-17 7-14 10-13 10-9 11-7 12-4zm2 4-17 4-12 6-10 9-7 8-9 16-3 13v20l2 9 8 16 6 8 4 5 13 9 8 4 14 4 16 1 16-3 16-8 9-7 9-10 7-12 4-14v-26l-5-15-7-12-12-12-14-8-12-4-8-1z" fill="#A8A8A8"/>
<path transform="translate(668,414)" d="m0 0h9l-1 155-1 41h-7z" fill="#010101"/>
<path transform="translate(933,413)" d="m0 0h7l1 2v93l-1 102h-7z" fill="#010101"/>
<path transform="translate(1498,412)" d="m0 0 7 2 9 15 12 21 15 26 17 29 7 11 2 8v86h-7l-1-88-5-10-9-15-17-29-15-26-12-21-3-6z" fill="#010101"/>
<path transform="translate(1384,414)" d="m0 0h8l-1 196h-7z" fill="#010101"/>
<path transform="translate(32,413)" d="m0 0h7l1 2-1 195h-7z" fill="#010101"/>
<path transform="translate(817,413)" d="m0 0h6l1 1v194l-1 2h-6z" fill="#010101"/>
<path transform="translate(180,413)" d="m0 0h7v197h-7l-1-196z" fill="#010101"/>
<path transform="translate(697,413)" d="m0 0h6l1 1v80l-1 116h-6l-1-139v-49z" fill="#010101"/>
<path transform="translate(1521,412)" d="m0 0 5 2 6 9 13 23 11 19 27 45 5 9 1 8v83h-6l-1-78-1-11-11-20-8-13-14-24-13-22-6-11-9-16z" fill="#010101"/>
<path transform="translate(1509,413)" d="m0 0h5l6 8 14 25 14 24 15 25 13 22 1 3v90h-6l-1-89-5-10-8-13-11-19-13-22-9-16-10-17-5-10z" fill="#010101"/>
<path transform="translate(152,413)" d="m0 0h7l-1 197h-6z" fill="#010101"/>
<path transform="translate(1531,412)" d="m0 0 6 2 5 8 11 19 17 29 12 20 11 18 5 8 1 3 1 90-1 1h-5l-1-80-2-12-11-18-13-22-6-11-6-10-10-17-9-16-5-8z" fill="#010101"/>
<path transform="translate(678,413)" d="m0 0h7l-1 197h-6z" fill="#010101"/>
<path transform="translate(1234,414)" d="m0 0h8l-1 7v189h-7z" fill="#010101"/>
<path transform="translate(1251,414)" d="m0 0h7l-1 196h-6z" fill="#010101"/>
<path transform="translate(1395,414)" d="m0 0h6l-1 196h-8l1-2 1-193z" fill="#010101"/>
<path transform="translate(162,413)" d="m0 0h6l1 2-1 195h-6z" fill="#010101"/>
<path transform="translate(42,413)" d="m0 0 7 1-1 196h-6z" fill="#010101"/>
<path transform="translate(1226,414)" d="m0 0h7l-1 196h-6z" fill="#010101"/>
<path transform="translate(1402,413)" d="m0 0h7v178l-1 19h-7l1-4z" fill="#010101"/>
<path transform="translate(808,413)" d="m0 0 6 1v194l-1 2h-5l-1-196z" fill="#010101"/>
<path transform="translate(51,414)" d="m0 0h7l-1 81v114l-1 1h-5z" fill="#010101"/>
<path transform="translate(465,424)" d="m0 0h12l10 2 11 6 4 4v2l-3 1-5-4-8-4-7-2h-15l-11 4-9 6-7 8-5 10-2 12 1 10 5 13 11 12 10 5 12 3 16 3 10 6 8 8 4 10v18l-4 10-9 10-9 6-6 2h-16l-10-4-10-9-6-9-2-2h4l7 8 1 3 16 8 8 1 10-1 8-4 7-6 6-11 1-5v-12l-4-10-7-8-10-5-25-5-12-6-9-9-8-14-2-8v-15l3-10 7-11 10-9 14-7z" fill="#D0D0D0"/>
<path transform="translate(467,415)" d="m0 0h13l10 2 8 4 9 6 7 7v2l-3 1-10-9-12-6-9-2h-16l-11 3-12 6-9 8-6 10-4 9-2 12 2 15 5 12 10 13 10 7 11 4 23 4 8 5 6 7 2 5 1 11-2 9-6 8-8 6-7 2h-8l-9-3-7-5-7-10 3-1 9 9 6 4 3 1h12l10-5 5-8 1-3v-13l-4-8-6-5-8-3-19-3-11-4-8-6-5-5-6-7-6-11-3-9v-23l4-12 7-10 5-5 8-7 12-6z" fill="#E1E1E1"/>
<path transform="translate(981,524)" d="m0 0 11 1 6 3 8 9 1 3v12l-5 8-8 6-10 2h-7l-1-13v-28l1-2z" fill="#F8F8F8"/>
<path transform="translate(977,456)" d="m0 0h11l8 2 8 7 3 6v12l-3 6-5 5-4 3-10 2h-8l-1-12v-25z" fill="#F7F7F7"/>
<path transform="translate(943,413)" d="m0 0h6v197h-7z" fill="#010101"/>
<path transform="translate(799,413)" d="m0 0 6 1v195l-1 1h-5z" fill="#010101"/>
<path transform="translate(828,413)" d="m0 0 5 1v196h-6v-196z" fill="#010101"/>
<path transform="translate(472,442)" d="m0 0 9 2 9 6 3 4-3 2-9-7-6-2-10 1-10 6-5 8-1 4v10l4 8 6 5 6 3 24 4 14 7 7 6 6 7 7 12 3 11v18l-3 12-6 11-11 12-11 7-10 4-6 1h-17l-13-4-10-6-2-4 5 1 13 6 8 2h18l13-4 12-8 7-8 6-12 2-6 1-7v-14l-4-12-7-11-2-4-4-2-9-7-11-4-23-4-9-5-5-6-3-8v-14l4-8 4-5 9-6z" fill="#B6B6B6"/>
<path transform="translate(1243,414)" d="m0 0h7l-1 13v144l-1 39h-5z" fill="#010101"/>
<path transform="translate(465,434)" d="m0 0h15l10 4 5 5-1 4-9-6-6-2h-15l-10 4-8 7-5 10-1 3v14l4 11 5 5 5 4 10 4 21 4 14 7 6 5 8 11 3 8 1 6v12l-3 12-5 9-7 8-10 7-9 4-4 1h-15l-13-4-5-3-1-4 2-1 10 5 6 2h18l10-4 9-7 8-10 3-7 2-12-1-12-4-10-4-5v-2l-4-2-8-6-10-4-22-4-10-5-9-10-5-11v-18l6-12 4-5 10-7z" fill="#B9B9B9"/>
<path transform="translate(23,413)" d="m0 0h6v196l-1 1h-5l-1-1z" fill="#010101"/>
<path transform="translate(687,413)" d="m0 0h6v197h-6z" fill="#010101"/>
<path transform="translate(172,414)" d="m0 0h5v195l-1 1h-5v-192z" fill="#010101"/>
<path transform="translate(1376,413)" d="m0 0 5 1v194l-1 2h-5v-196z" fill="#010101"/>
<path transform="translate(1195,411)" d="m0 0 2 1v124l-2 16-4 10-5 8-11 12-10 7-13 5-4 1h-18l-12-3-12-6-12-11-7-9-5-10-2-8-1-14v-19h2l1-8h1l1 39 4 13 6 10 5 6 13 9 15 6 6 1h11l13-3 10-5 10-8 9-12 4-10 2-12 2-30z" fill="#F1F1F1"/>
<path transform="translate(977,419)" d="m0 0h11l16 2 16 8 10 9 8 11 5 12 1 5v21l-4 13-3 7v13l3 1 3 8 1 7v19l-3 12-6 11-11 12-10 7-12 5-9 2h-17v-3l21-2 14-5 11-7 7-7 6-10 4-14 1-14-2-13-7-14 1-9 6-13 2-9v-14l-3-13-7-12-7-8-10-7-13-5-21-2-2-1z" fill="#A2A2A2"/>
<path transform="translate(203,488)" d="m0 0 2 3v34l4 16 6 14 9 13 9 11 11 9 17 9 18 6 11 2h18l15-3 13-5 18-10 13-12 9-11 1-2 4-1-1 4-7 9-5 6-8 7-13 9-14 7-12 4-10 2h-26l-19-5-16-7-11-8-10-9-10-11-9-15-6-13-3-12-1-7v-21l2-12z" fill="#DCDCDC"/>
<path transform="translate(1418,419)" d="m0 0 8 1 15 3 12 5 9 5 11 8 10 10 9 12 5 8 5 13 2 14v27l-3 16-7 16-10 13-14 14-14 9-12 6-13 4-14 2v-4l20-4 16-7 13-8 10-9 7-7 9-14 5-11 3-19v-24l-2-13-7-16-12-16-9-9-13-9-12-6-13-4-14-2z" fill="#B6B6B6"/>
<path transform="translate(1268,419)" d="m0 0 10 1 11 2 14 5 15 9 12 11 9 11 8 13 5 12 3 12v29l-4 18-6 14-9 13-15 15-14 9-15 7-16 4-8 1v-4l20-4 16-7 12-7 13-11 6-8 4-5 7-15 4-14 1-6v-29l-4-13-8-16-8-11-9-10-14-10-12-6-15-4-13-3z" fill="#A5A5A5"/>
<path transform="translate(1091,410)" d="m0 0h17v1l-5 1v129l2 9 3 7 9 8 12 5 4 1h14l10-4 10-9 4-6 3-12 1-15h1l2 10-1 13-5 10-8 9-10 6-9 3h-15l-11-4-9-7-6-7-4-9-1-5v-133l-8 1z" fill="#A5A5A5"/>
<path transform="translate(977,427)" d="m0 0 19 2 13 5 11 7 8 9 5 10 2 8v18l-4 11-7 15 1 5h2l6 12 2 6v21l-5 12-6 9-7 7-10 6-10 4-3 1-16 1-1-4h11l11-3 14-7 6-5 7-10 5-14v-16l-5-13-8-11 1-4 4-5 6-13 2-7v-14l-4-13-6-8-5-5-9-6-11-4-19-3z" fill="#A2A2A2"/>
<path transform="translate(1269,427)" d="m0 0 15 4 15 5 13 7 10 9 9 10 9 15 5 15 2 13v15l-4 18-4 10-8 13-6 7h-2l-2 4-11 9-16 9-15 5-11 1v-3l7-1 13-4 16-8 14-10 9-10 8-13 6-20 2-11v-11l-2-12-6-16-8-13-9-10-8-7-10-6-13-5-19-4z" fill="#A2A2A2"/>
<path transform="translate(1418,426)" d="m0 0 19 6 14 5 11 7 10 9 10 11 8 14 4 11 2 10v25l-4 16-8 16-11 12-5 5-9 8-14 8-13 5-14 3-1-3 15-4 18-8 12-8 10-9 9-12 7-15 3-12 1-7v-17l-3-14-5-12-7-11-9-11-12-9-14-7-13-4-11-2-1-2z" fill="#B2B2B2"/>
<path transform="translate(977,438)" d="m0 0h16l10 3 11 7 6 7 5 10 1 4v16l-4 10-6 9-6 6-1 4 4 2 8 10 4 8 2 8-1 13-6 12-9 10-9 5-8 3-10 2h-7l1-4 18-3 12-6 8-8 5-11 1-4v-10l-4-12-8-10-8-6 2-4 6-4 6-8 5-10 1-5v-11l-4-11-9-10-12-6-5-1-14-1z" fill="#aaa"/>
<path transform="translate(542,423)" d="m0 0h120l-1 6-1 1h-117l-1-4h-2v-2z" fill="#010101"/>
<path transform="translate(1418,437)" d="m0 0 15 3 11 4 11 6 10 9 9 10 7 12 5 14 2 13-1 15-3 11-5 12-6 9-9 10-9 8-14 8-20 7h-3v-4l23-8 11-6 9-7 8-8 8-14 5-16 1-6v-16l-3-12-5-12-7-11-11-11-14-9-17-5-8-1-1-2z" fill="#B1B1B1"/>
<path transform="translate(1269,437)" d="m0 0 15 3 14 5 11 7 10 9 7 10 8 16 3 12v26l-4 15-6 11-12 15-11 8-15 8-17 6h-4v-4l5 1v-2l16-6 14-7 13-11 7-9 5-10 4-15 1-6v-19l-3-12-8-16-7-9-11-9-16-8-20-5z" fill="#A2A2A2"/>
<path transform="translate(539,414)" d="m0 0h123v5l-1 1h-119l-3-2z" fill="#010101"/>
<path transform="translate(626,433)" d="m0 0h35v7h-93l-23 1-4-4v-3z" fill="#010101"/>
<path transform="translate(803,413)" d="m0 0h5v197l-4-1v-194z" fill="#D7D7D7"/>
<path transform="translate(221,501)" d="m0 0h1l1 17 3 16 8 16 7 10 10 10 11 7 14 6 10 3 16 1 14-2 13-5 11-6 9-7 11-11h2l-1 4-15 15-13 8-14 6-9 2h-22l-12-3-13-5-11-7-13-12-7-9-8-15-4-12v-14z" fill="#C8C8C8"/>
<path transform="translate(599,443)" d="m0 0h62v5l-8 1h-112l-1-5z" fill="#010101"/>
<path transform="translate(1418,446)" d="m0 0 7 1 13 4 11 6 10 8 9 11 7 14 2 7 1 9v9l-1 11-4 12-7 12-5 6h-2l-1 3-9 7-16 8-11 4h-4v-5l13-3 12-5 12-9 10-11 5-11 3-12v-22l-3-11-6-12-11-12-14-9-21-7z" fill="#A4A4A4"/>
<path transform="translate(1268,446)" d="m0 0 8 1 13 4 13 7 8 7 10 13 6 12 2 13v19l-3 14-6 11-12 14-14 9-14 6-7 2h-4v-5l14-3 10-4 10-7 10-9 8-13 3-9 1-7v-21l-4-13-6-11-11-12-14-8-14-5-7-2z" fill="#A4A4A4"/>
<path transform="translate(809,413)" d="m0 0h8v197l-3-1-1-8v-34l1-153h-5z" fill="#D9D9D9"/>
<path transform="translate(969,413)" d="m0 0 3 1-1 96v100l-4-1v-40l1-151z" fill="#A2A2A2"/>
<path transform="translate(829,413)" d="m0 0h12v1h-5v183h-1v-13h-3v-82l1-88z" fill="#C6C6C6"/>
<path transform="translate(1063,410)" d="m0 0h15v1h-6l1 95 1 38 3 14h-2l-1 2-3-10-2-17v-122h-5v96h-1z" fill="#AEAEAE"/>
<path transform="translate(284,415)" d="m0 0h28l17 3 3 3-4 2-16-3h-29l-19 5-16 8-9 6-10 9-12 17-7 15-4 12-2-1-1-5 5-13 9-16 9-11 5-6 12-9 11-7 7-2 3-2 15-4z" fill="#A6A6A6"/>
<path transform="translate(1259,413)" d="m0 0h6l-4 1-1 188h-1l-1 8h-1v-189l1-7z" fill="#A2A2A2"/>
<path transform="translate(685,413)" d="m0 0h2l1 5-1 192-3-2v-181z" fill="#DCDCDC"/>
<path transform="translate(259,663)" d="m0 0h8l6 4 2 3v12l-4 5-8 3-8-2-5-6-1-9 3-6 4-3z" fill="#010101"/>
<path transform="translate(559,663)" d="m0 0h8l5 3 3 4 1 3v7l-4 6-5 3-6 1-7-3-4-6-1-6 3-7 4-4z" fill="#010101"/>
<path transform="translate(940,413)" d="m0 0h3v195l-1 2h-2z" fill="#A3A3A3"/>
<path transform="translate(288,442)" d="m0 0h17l17 3 15 8 5 5-4 1-10-6-14-5-8-1h-16l-17 4-12 6-10 9-6 7-9 16-2 7-3 2-1-5 6-14 8-11 9-10 9-7 12-6z" fill="#A6A6A6"/>
<path transform="translate(221,473)" d="m0 0 1 3-5 13-3 15v16l3 15 5 13 8 13 9 10 9 8 3 5 16 8 14 4 16 2h12l-4 2h-18l-16-4-12-5-9-5-10-8-10-10-7-10-8-16-4-12-1-6v-26l3-12 3-2z" fill="#E1E1E1"/>
<path transform="translate(232,495)" d="m0 0h1v27l2 9 8 16 6 8 5 5 9 7 10 5 14 4 9 1 1 1h13l12-3 9-4 2 1-12 6-12 3h-23l-14-4-13-7-12-11-8-10-7-14-3-11-1-17 2-10z" fill="#BEBEBE"/>
<path transform="translate(1075,558)" d="m0 0 3 1 6 12 9 11 8 6 16 8 11 3 14 1 16-3 9-4 12-7 14-14 2-1-1 4-11 12-12 9-14 6-9 2h-20l-12-3-14-7-9-7-8-8-7-11-3-6z" fill="#D9D9D9"/>
<path transform="translate(441,512)" d="m0 0 13 6 17 3 12 3 6 4 6 7 2 5 1 11-2 9-6 8-8 6-7 2h-8l-9-3-7-5-7-10 3-1 9 9 6 4 3 1h12l10-5 5-8 1-3v-13l-4-8-6-5-8-3-19-3-11-4-5-5z" fill="#B5B5B5"/>
<path transform="translate(1391,423)" d="m0 0h1l1 18h1v167l-3 2-1-6z" fill="#A2A2A2"/>
<path transform="translate(714,438)" d="m0 0 70 1-3 2 4 1v16h-1v-7l-20 1h-50v-4h69l1-5h-70z" fill="#C0C0C0"/>
<path transform="translate(168,415)" d="m0 0h1l1 36h1v159h-3z" fill="#B4B4B4"/>
<path transform="translate(1411,413)" d="m0 0 2 1-1 173h-1l-1-16h-1v-141l1-16z" fill="#C9C9C9"/>
<path transform="translate(1082,507)" d="m0 0h1l1 39 4 13 6 10 5 6 13 9 15 6 6 1h11l17-3-1 3-12 4h-18l-12-3-12-6-12-11-7-9-5-10-2-8-1-14v-19h2z" fill="#D5D5D5"/>
<path transform="translate(614,458)" d="m0 0 3 1v149l-1 2h-3v-144z" fill="#A2A2A2"/>
<path transform="translate(539,419)" d="m0 0h123v4l-34 1h-88l-1 2z" fill="#A3A3A3"/>
<path transform="translate(380,561)" d="m0 0 1 3-8 10-5 6-8 7-13 9-14 7-12 4-10 2h-26l-19-5-4-2 1-3 27 6h18l15-3 13-5 18-10 13-12 9-11 1-2z" fill="#C5C5C5"/>
<path transform="translate(59,433)" d="m0 0h1v177l-4-1v-114l2 1z" fill="#C9C9C9"/>
<path transform="translate(40,414)" d="m0 0h2v196h-1l-1-86h-1v-109z" fill="#ccc"/>
<path transform="translate(1186,536)" d="m0 0h1v8l-3 12-7 11-8 8-11 7-9 3-14 1-11-2-9-4-9-6-3-5-2-3h3l8 7 13 6 9 2h12l11-3 11-8 7-7 6-12 2-13z" fill="#A8A8A8"/>
<path transform="translate(1542,418)" d="m0 0 3 1 20 35 10 17 15 26 7 11 3 7-3 1-11-18-27-45-13-23-4-6z" fill="#D8D8D8"/>
<path transform="translate(49,415)" d="m0 0h3l-1 190-2 4z" fill="#FDFDFD"/>
<path transform="translate(677,432)" d="m0 0h1v178h-3v-41l1-123z" fill="#A2A2A2"/>
<path transform="translate(1493,664)" d="m0 0h11l3 1 1 2v16l-3 5-5 1h-8v-20z" fill="#9B9B9B"/>
<path transform="translate(504,535)" d="m0 0 2 1 1 3v18l-4 10-9 10-9 6-6 2h-16l-10-4-10-9-6-9-2-2h4l7 8 1 3 16 8 8 1 10-1 8-4 7-6 6-11 1-5v-17z" fill="#DEDEDE"/>
<path transform="translate(977,446)" d="m0 0 15 1 9 3 10 9 4 7 1 4v15l-5 10-8 8-8 4-9 1h-10v-3l20-3 8-5 6-8 2-6v-12l-4-9-8-7-7-3-16-2z" fill="#A9A9A9"/>
<path transform="translate(1402,481)" d="m0 0h1v126l-3 3v-128z" fill="#A2A2A2"/>
<path transform="translate(977,438)" d="m0 0h16l10 3 11 7 6 7 5 10 1 4v16l-4 10-6 9-3 2-2-1 2-4 6-9 3-10v-11l-4-11-9-10-12-6-5-1-14-1z" fill="#A5A5A5"/>
<path transform="translate(1656,422)" d="m0 0 2 3-7 13-1 4-13 23-8 13-20 36-3-1 3-10 14-24 13-22 11-19z" fill="#aaa"/>
<path transform="translate(1538,427)" d="m0 0 3 4 13 23 12 20 13 23 10 16-1 2h-3l-16-27-15-25-12-21-5-8v-6z" fill="#DBDBDB"/>
<path transform="translate(976,516)" d="m0 0h19l8 4 8 8 4 7 1 4v15l-4 8-9 9-9 4-9 2h-8v-4l16-2 10-5 6-7 3-8v-11l-3-8-7-8-9-4-17-1z" fill="#B4B4B4"/>
<path transform="translate(949,413)" d="m0 0h3l1 3-1 21v148h-1l-1-11-1-60h-1v-80z" fill="#A2A2A2"/>
<path transform="translate(764,508)" d="m0 0h1v16h-51v-3l44-1h5v-5h-49v-4h50z" fill="#CACACA"/>
<path transform="translate(367,563)" d="m0 0 1 3-5 6-8 7-12 9-17 8-16 4h-5v-1h-11l-13-2-14-4-16-8-3-3v-2l18 9 15 5 12 2h16l12-3 13-5 12-7 9-7 9-9z" fill="#DADADA"/>
<path transform="translate(1030,663)" d="m0 0 4 2 7 17 3 7-6-1-4-3-11-1-2 5h-4l2-7 6-13 3-5z" fill="#050505"/>
<path transform="translate(1418,437)" d="m0 0 15 3 11 4 11 6 10 9 9 10 7 12 4 10-1 5-2 1-6-16-6-10-9-10-8-7-10-6-17-5-8-1-1-2z" fill="#A5A5A5"/>
<path transform="translate(1530,433)" d="m0 0 4 5 13 23 13 22 10 17 6 10-1 3-3-1-10-17-13-22-20-34z" fill="#D8D8D8"/>
<path transform="translate(1176,410)" d="m0 0h9v1l-6 1v116l-1 7-2-3z" fill="#E7E7E7"/>
<path transform="translate(1642,428)" d="m0 0h3l1 3-14 24-13 22-11 19-5 9-2-1 1-7 15-26 10-17 13-22z" fill="#CBCBCB"/>
<path transform="translate(1418,426)" d="m0 0 19 6 14 5 11 7 10 9 10 11 8 14-1 3-3-1-6-11-9-11-5-5-8-7-16-8-13-4-11-2-1-2z" fill="#ACACAC"/>
<path transform="translate(1637,418)" d="m0 0 2 2-1 6-10 17-8 14-13 22-10 16-2-1 1-5 4-8 8-13 20-34z" fill="#B8B8B8"/>
<path transform="translate(513,579)" d="m0 0h3l-2 5-8 8-11 7-10 4-6 1h-17l-13-4-10-6-2-4 5 1 13 6 8 2h18l13-4 12-8z" fill="#E0E0E0"/>
<path transform="translate(467,415)" d="m0 0h13l10 2 8 4 9 6 7 7v2l-3 1-10-9-12-6-9-2h-16l-11 3-11 5-6 1 5-5 12-6z" fill="#B0B0B0"/>
<path transform="translate(68,534)" d="m0 0h73l1 4-1 1h-74z" fill="#F9F9F9"/>
<path transform="translate(843,581)" d="m0 0h76l-2 2 3 1-1 2-10-1h-65z" fill="#bbb"/>
<path transform="translate(653,448)" d="m0 0 8 2v1l-20 1h-102l4-3z" fill="#A7A7A7"/>
<path transform="translate(379,664)" d="m0 0h11l4 4v6l-3 5 3 10h-5l-1-7-3-1-2 8h-4z" fill="#020202"/>
<path transform="translate(1194,663)" d="m0 0 4 2 7 10 6 10-2-10v-11h5v25h-6l-8-13-2-7-1 1v19h-5l1-25z" fill="#010101"/>
<path transform="translate(505,663)" d="m0 0 3 3v22l-4 1-1-1-1-7h-9l-1 8h-6v-8l1-6 2-4-1-2h-1v-5h5l1 9h9l1-1v-8z" fill="#B2B2B2"/>
<path transform="translate(919,590)" d="m0 0 1 2-3 1 3 2h-77l1-4z" fill="#CECECE"/>
<path transform="translate(68,515)" d="m0 0h73l1 4h-75z" fill="#ccc"/>
<path transform="translate(1523,440)" d="m0 0 3 3 9 16 9 15 8 14 10 17 4 6-1 5-3-3-15-25-16-28-6-10-1-6-2-3z" fill="#C0C0C0"/>
<path transform="translate(465,434)" d="m0 0h15l10 4 5 5-1 4-9-6-6-2h-15l-10 4-8 7-5 10-1 3-1 14h-1l-1-10h-1l1-9 5-9 4-5 10-7z" fill="#A4A4A4"/>
<path transform="translate(437,465)" d="m0 0h1v12h2l4 11 5 5 5 4 10 4 21 4 10 5 2 4-5-1-10-4-22-4-10-5-9-10-5-11v-12z" fill="#E1E1E1"/>
<path transform="translate(714,591)" d="m0 0h70l-4 2 5 1v6h-1v-5h-70l-1-2z" fill="#ccc"/>
<path transform="translate(849,571)" d="m0 0 69 1 2 4h-76l-1-4z" fill="#ACACAC"/>
<path transform="translate(251,426)" d="m0 0m-1 1m-2 1h6l-3 3-11 7-12 11-11 16-7 15-4 12-2-1-1-5 5-13 9-16 9-11 5-6 12-9z" fill="#B8B8B8"/>
<path transform="translate(1370,663)" d="m0 0 3 1 1 3v7l11-1 1-9h3v25l-4-1-1-7-6-1-4 1-1 8h-4v-25z" fill="#010101"/>
<path transform="translate(560,667)" d="m0 0h6l4 2 2 5-1 7-5 4-5 1-6-4-1-2v-8l4-4z" fill="#F1F1F1"/>
<path transform="translate(68,505)" d="m0 0 74 1-1 4h-73l-1-4z" fill="#D0D0D0"/>
<path transform="translate(731,664)" d="m0 0h16l-1 2-10 1v5h6l2 7-2 2h-5l-1 3h10l1 4-1 1h-14l-1-5z" fill="#0B0B0B"/>
<path transform="translate(260,667)" d="m0 0h6l5 5v8l-5 5-5 1-6-4-2-7 3-6z" fill="#F4F4F4"/>
<path transform="translate(1187,410)" d="m0 0h20v5l-3 1v-4h-8l-1 99h-1v-100h-6v119h-1z" fill="#A3A3A3"/>
<path transform="translate(384,496)" d="m0 0 2 2 1 8v12l-4 20-5 12-7 12-5 3v-3l5-7 5-11 5-18 1-6 1-22z" fill="#AFAFAF"/>
<path transform="translate(1485,565)" d="m0 0 1 3-16 16-14 9-12 6-13 4-14 2v-4l20-4 16-7 13-8 10-9 7-7z" fill="#B9B9B9"/>
<path transform="translate(714,581)" d="m0 0h70l-2 2 2 2h-70z" fill="#B9B9B9"/>
<path transform="translate(1088,663)" d="m0 0 10 1 3 3v9l-2 2 1 5 2 6-3 1-2-1-1-7-4-2 2-5 4-1-2-5-5-2v22h-5v-24z" fill="#030303"/>
<path transform="translate(715,571)" d="m0 0h69l-2 1v2l2 1-39 1h-21l-10-1z" fill="#B3B3B3"/>
<path transform="translate(1623,423)" d="m0 0 2 3-2 7-13 22-14 24-4 7h-2l1-6 8-16 9-15 10-17z" fill="#C4C4C4"/>
<path transform="translate(1080,410)" d="m0 0h9v1l-6 1-1 103-1 17h-1l-1-19v-90z" fill="#F6F6F6"/>
<path transform="translate(373,495)" d="m0 0h3l1 7v20l-4 17-8 16-3 3v-2l-2-1 4-7 5-12 3-15v-25z" fill="#A5A5A5"/>
<path transform="translate(714,419)" d="m0 0h70v1h-5v2l6-1v7h-1v-5h-70z" fill="#C6C6C6"/>
<path transform="translate(1091,410)" d="m0 0h17v1l-5 1-1 72-3 1v-74l-8 1z" fill="#BDBDBD"/>
<path transform="translate(394,493)" d="m0 0h1l1 22-2 17-5 17-7 13-3 1v-4l6-13 5-17 1-7 1-22z" fill="#C3C3C3"/>
<path transform="translate(221,501)" d="m0 0h1l1 17 3 16 8 16 7 10 10 10 2 1 1 5-4-2-10-9-8-10-8-15-4-12v-14z" fill="#E0E0E0"/>
<path transform="translate(246,452)" d="m0 0 3 1-2 4-10 11-7 12-5 14-2 15h-1l-2 12h-1v-18l3-15 5-12 9-13z" fill="#BCBCBC"/>
<path transform="translate(505,576)" d="m0 0 1 3-9 8-14 7-4 1h-15l-13-4-5-3-1-4 2-1 10 5 6 2h18l10-4 7-5 5-3z" fill="#ddd"/>
<path transform="translate(1432,663)" d="m0 0 4 1 1 17 2 3 5-1 1-1 1-19h4l1 16-2 6-3 3-7 1-5-3-2-5z" fill="#010101"/>
<path transform="translate(1206,502)" d="m0 0h1v19l-1 20-2 14-4 11-4 6-4 1 2-5 5-11 2-9 2-24 1-21z" fill="#B2B2B2"/>
<path transform="translate(67,525)" d="m0 0h75v3h-75z" fill="#E2E2E2"/>
<path transform="translate(232,495)" d="m0 0h1v27l2 9 8 16 6 8 2 4-4-2-3-1-9-14-5-13-2-14 1-16z" fill="#C8C8C8"/>
<path transform="translate(472,442)" d="m0 0 9 2 9 6 3 4-3 2-9-7-6-2-10 1-10 6-5 8-2 13h-1l-1-7h-1l1-7 5-9 8-6 6-3z" fill="#A7A7A7"/>
<path transform="translate(1330,571)" d="m0 0h2l-2 4-9 9-14 9-15 7-16 4-8 1v-4l20-4 16-7 12-7 13-11z" fill="#CACACA"/>
<path transform="translate(1478,557)" d="m0 0h3l-1 4-13 13-8 7-14 8-13 5-14 3-1-3 15-4 18-8 12-8 10-9z" fill="#D2D2D2"/>
<path transform="translate(465,424)" d="m0 0h12l10 2 11 6 4 4v2l-3 1-5-4-8-4-7-2h-15l-12 4-8 2 4-4 12-6z" fill="#A8A8A8"/>
<path transform="translate(1503,498)" d="m0 0h1v27l-3 16-7 16-7 9h-3l2-4 8-14 3-7 3-19 1-19h2z" fill="#A5A5A5"/>
<path transform="translate(949,438)" d="m0 0h1l1 136 1 36h-3l-1-66z" fill="#FCFCFC"/>
<path transform="translate(318,663)" d="m0 0 4 1v11l2 8h7l1-2v-18h4l1 13-2 9-6 4h-6l-4-4-2-9z" fill="#010101"/>
<path transform="translate(1144,663)" d="m0 0h6l1 1 1 25h-9v-25z" fill="#A0A0A0"/>
<path transform="translate(1102,578)" d="m0 0 14 8 11 4 6 1h11l17-3-1 3-12 4h-18l-12-3-10-5-5-5-2-3z" fill="#DCDCDC"/>
<path transform="translate(170,530)" d="m0 0h1v80h-3v-79z" fill="#A2A2A2"/>
<path transform="translate(1259,413)" d="m0 0h6l-4 1v18l-1 43-3 1v-55l1-7z" fill="#ACACAC"/>
<path transform="translate(1265,664)" d="m0 0h9l2 4h-9l-6 4-1 6 4 5 7 1h2l1-6h2l1 2v6l-3 3h-8l-6-3-4-6v-8l5-6z" fill="#010101"/>
<path transform="translate(1464,547)" d="m0 0 2 3-5 6h-2l-1 3-9 7-16 8-11 4h-4v-5l13-3 12-5 12-9z" fill="#A4A4A4"/>
<path transform="translate(1031,579)" d="m0 0 1 3-10 10-14 8-9 3-6 1h-17v-3l21-2 14-5 11-7 7-7z" fill="#DADADA"/>
<path transform="translate(358,542)" d="m0 0 1 4-6 9-7 8-12 9-5 1-14 5-5 1h-13v-1l18-3 13-5 10-6 10-9 9-12z" fill="#A8A8A8"/>
<path transform="translate(1568,465)" d="m0 0 6 4 13 23 10 16 3 7-3 1-11-18-18-30z" fill="#DEDEDE"/>
<path transform="translate(380,561)" d="m0 0 1 3-8 10-5 6-8 7-13 9-12 6v-3l5-4 15-9 12-11 9-11 1-2z" fill="#E0E0E0"/>
<path transform="translate(1418,446)" d="m0 0 7 1 13 4 11 6 10 8 9 11-1 2-5-3-7-8-9-7-10-5-18-6z" fill="#aaa"/>
<path transform="translate(189,663)" d="m0 0 5 1 5 7 2 1 2-5 4-4h2l-1 5-6 9v10l-2 2-4-1v-12l-7-11z" fill="#010101"/>
<path transform="translate(1013,543)" d="m0 0h1l2 7-1 6-4 7-8 8-9 4-9 2h-8v-4l16-2 10-5 6-7 3-8z" fill="#A7A7A7"/>
<path transform="translate(614,458)" d="m0 0 3 1-1 24-1 121h-1z" fill="#FBFBFB"/>
<path transform="translate(902,663)" d="m0 0 6 1v3l-6 1-1 4 8 4 2 5-1 4-4 3h-8l-1-4 3-1 7-1v-2l-10-5-1-1v-6l3-4z" fill="#010101"/>
<path transform="translate(625,663)" d="m0 0 5 1 1 4-5-1-2 1 1 5 6 3 2 4v5l-4 3h-9l-1-4 3-1h8l-1-4-6-2-5-5 2-7z" fill="#010101"/>
<path transform="translate(441,512)" d="m0 0 13 6 17 3 12 3 6 4-4 2-10-4-19-3-11-4-5-5z" fill="#CBCBCB"/>
<path transform="translate(1102,565)" d="m0 0 7 6 16 8 9 2h12l11-3 6-3-1 3-10 4-4 1-24 1-9-4-9-6-3-5-2-3z" fill="#A6A6A6"/>
<path transform="translate(1101,484)" d="m0 0h1v57l-3 3v-59z" fill="#A2A2A2"/>
<path transform="translate(1483,455)" d="m0 0 4 1 9 13 6 15 1 4v15h-2l-3-18-7-16-6-8z" fill="#ACACAC"/>
<path transform="translate(1315,572)" d="m0 0 2 1-2 4-10 7-16 8-15 4h-6v-3l7-1 13-4 16-8z" fill="#B9B9B9"/>
<path transform="translate(446,467)" d="m0 0h1l1 8 5 9 6 5 6 3 7 3 14 3v1l-13-1-14-3-8-6-4-7-2-5v-9z" fill="#C3C3C3"/>
<path transform="translate(977,446)" d="m0 0 15 1 9 3 10 9 3 5-1 7-2-3-4-7-7-6-7-3-16-2z" fill="#A3A3A3"/>
<path transform="translate(1175,525)" d="m0 0h1l2 10-1 13-5 10-8 9-10 6-6 1 3-2 6-2 2-4 9-9 4-8 2-9z" fill="#B7B7B7"/>
<path transform="translate(1530,433)" d="m0 0 4 5 13 23 5 8-2 4-3-3-16-28-2-5z" fill="#C6C6C6"/>
<path transform="translate(764,527)" d="m0 0h1v5h-52v-3h51z" fill="#CFCFCF"/>
<path transform="translate(1022,575)" d="m0 0 1 3-10 9-12 6-7 2-16 1-1-4h11l11-3 14-7z" fill="#C8C8C8"/>
<path transform="translate(714,448)" d="m0 0h59l-2 2-7 1v1h-50z" fill="#A2A2A2"/>
<path transform="translate(437,590)" d="m0 0 5 1 13 6 10 3 12 1 1 2-2 1h-14l-13-4-10-6z" fill="#EBEBEB"/>
<path transform="translate(1063,410)" d="m0 0h15v1h-6l-1 7-1 26h-1v-33h-5v96h-1z" fill="#A3A3A3"/>
<path transform="translate(252,459)" d="m0 0 3 1-2 4-8 9-9 16-2 7-3 2-1-5 6-14 8-11z" fill="#A9A9A9"/>
<path transform="translate(788,664)" d="m0 0h5v20h9l2 1-1 4h-14l-1-2z" fill="#010101"/>
<path transform="translate(1310,564)" d="m0 0m-1 1m-1 1m-1 1m-1 1m-2 1h2v4l-17 9-17 6h-4v-4l5 1v-2l16-6 14-7z" fill="#ADADAD"/>
<path transform="translate(68,534)" d="m0 0 55 1v1l-46 1 64 1v1h-74z" fill="#A5A5A5"/>
<path transform="translate(248,580)" d="m0 0 18 9 15 5 12 2h16l12-3 6-1-4 3-12 3-17 1-13-2-14-4-16-8-3-3z" fill="#A3A3A3"/>
<path transform="translate(467,415)" d="m0 0h13v3l-21 3-13 5-4 2-6 1 5-5 12-6z" fill="#B1B1B1"/>
<path transform="translate(954,663)" d="m0 0 3 1 1 10 9 1 1 5-8-1-3-3 1 2v9l-1 2h-4v-25z" fill="#010101"/>
<path transform="translate(1075,558)" d="m0 0 3 1 6 12 9 11 6 5 4 5 6 3-4 1-11-8-9-9-7-11-3-6z" fill="#DEDEDE"/>
<path transform="translate(714,428)" d="m0 0 41 1v1l29 1v1h-70z" fill="#A2A2A2"/>
<path transform="translate(1620,470)" d="m0 0 1 3-18 32-2-1 1-7 14-24 3-1z" fill="#BCBCBC"/>
<path transform="translate(450,432)" d="m0 0 2 1-9 7-6 7-5 10-2 12h-1l-2-12 6-12 9-10z" fill="#B2B2B2"/>
<path transform="translate(427,460)" d="m0 0 2 4 3 19 7 14 1 4-4-2-8-14-2-8v-15z" fill="#ddd"/>
<path transform="translate(1450,571)" d="m0 0m-1 1m-2 1h2l1 3-14 7-15 5h-3v-4l23-8z" fill="#A6A6A6"/>
<path transform="translate(444,557)" d="m0 0 4 1 8 8 6 4 3 1h12l8-3v2l-6 4-17 1-10-6-8-11z" fill="#A7A7A7"/>
<path transform="translate(437,465)" d="m0 0h1v12h2l4 11 5 5 5 4 10 4 5 1v1l-12-1-5-3-4-1-7-8-5-11v-12z" fill="#ccc"/>
<path transform="translate(1196,497)" d="m0 0h1v39l-1 12h-2l-1-4v-16l1-16 1-1z" fill="#D5D5D5"/>
<path transform="translate(253,572)" d="m0 0 11 6 15 6 7 2 8 1v1h-18l-13-5-10-6-1-4z" fill="#ADADAD"/>
<path transform="translate(456,437)" d="m0 0m-1 1m4 0 3 1-11 6-7 8-4 10-1 14h-1l-1-10h-1l1-9 5-9 4-5 7-5z" fill="#A8A8A8"/>
<path transform="translate(674,664)" d="m0 0h16l-1 4h-4v9h-2v9l2-4v7h-5v-14l-1-8-2 2v-2l-3-1z" fill="#0C0C0C"/>
<path transform="translate(1538,427)" d="m0 0 3 4 13 23 2 5-3-1-5-5-10-18-1-5z" fill="#C9C9C9"/>
<path transform="translate(440,427)" d="m0 0 2 1-10 9-6 10-4 9-2 4-2-6 4-9 6-9 5-5 5-3z" fill="#DCDCDC"/>
<path transform="translate(1082,507)" d="m0 0h1l1 46-2-2-2-3-1-14v-19h2z" fill="#C0C0C0"/>
<path transform="translate(1548,484)" d="m0 0 5 5 9 16 4 6-1 5-3-3-15-25z" fill="#ccc"/>
<path transform="translate(318,586)" d="m0 0m-40 1h40l-3 3-5 1h-22l-10-2z" fill="#EDEDED"/>
<path transform="translate(435,561)" d="m0 0h4l7 8 1 3 16 8 7 1v1l-13 1-7-4-7-7-6-9z" fill="#D0D0D0"/>
<path transform="translate(1484,494)" d="m0 0 2 1 2 13-1 15-3 6h-2l1-10v-23z" fill="#B2B2B2"/>
<path transform="translate(1476,509)" d="m0 0h1v17l-4 12-6 10-2 1-1-3 6-12 4-16h1z" fill="#C2C2C2"/>
<path transform="translate(1008,576)" d="m0 0 2 1-5 4-11 4-10 2h-7l1-4 18-3 7-3z" fill="#A7A7A7"/>
<path transform="translate(1206,502)" d="m0 0h1v19l-1 20h-2l-1-2v-15l1-21z" fill="#A2A2A2"/>
<path transform="translate(233,454)" d="m0 0 2 2-10 14-3 4-5 10-2 3-1-4 8-16 8-12z" fill="#A5A5A5"/>
<path transform="translate(1418,419)" d="m0 0 8 1 15 3 10 4-2 3-10-3-12-3-9-1z" fill="#AEAEAE"/>
<path transform="translate(1637,418)" d="m0 0 2 2-1 6-10 17-3 3-2-1 2-6z" fill="#C9C9C9"/>
<path transform="translate(970,664)" d="m0 0h4v25l-5-1v-13z" fill="#010101"/>
<path transform="translate(505,663)" d="m0 0 3 3v22l-4 1-1-1v-24z" fill="#010101"/>
<path transform="translate(1268,419)" d="m0 0 10 1 11 2 6 3v2l4 1-3 1-15-4-13-3z" fill="#B0B0B0"/>
<path transform="translate(470,494)" d="m0 0h8l14 3 12 7 6 5-2 2-12-9-11-2-2-2-13-3z" fill="#B5B5B5"/>
<path transform="translate(1485,565)" d="m0 0 1 3-16 16-10 7-3-1 7-5 19-19z" fill="#D9D9D9"/>
<path transform="translate(487,517)" d="m0 0 5 2 8 7 4 5 1 4-3 3-6-10-7-6-4-3h2z" fill="#B9B9B9"/>
<path transform="translate(457,510)" d="m0 0 12 2 16 3 2 1v3l-9-1-15-3-1-2-5-2z" fill="#D3D3D3"/>
<path transform="translate(513,550)" d="m0 0h1v6h2l-1 7-4 9-5 5-5 4-2-1 8-9 4-9z" fill="#B5B5B5"/>
<path transform="translate(1099,588)" d="m0 0 5 2 16 7 8 2 9 1v1l-11 1-13-4-6-1-5-5z" fill="#A2A2A2"/>
<path transform="translate(735,667)" d="m0 0h1v5h6l2 7-2 2h-5l-1 3h10v1h-11z" fill="#A2A2A2"/>
<path transform="translate(1551,455)" d="m0 0 3 3 3 1 9 15v6h-2l-10-17-3-5z" fill="#E3E3E3"/>
<path transform="translate(653,448)" d="m0 0 8 2v1h-44l-7-1v-1z" fill="#E2E2E2"/>
<path transform="translate(483,579)" d="m0 0 4 1-2 3-6 2h-16l-4-1v-2l22-2z" fill="#DADADA"/>
<path transform="translate(747,520)" d="m0 0h11v1l-13 2v1h-31v-3z" fill="#A2A2A2"/>
<path transform="translate(1387,663)" d="m0 0 2 1v25l-4-1v-15l1-9z" fill="#010101"/>
<path transform="translate(366,516)" d="m0 0h1v11l-4 12-4 7-1-4 3-10 3-11h1z" fill="#BCBCBC"/>
<path transform="translate(360,556)" d="m0 0h2l-1 4-15 15-4 2h-5l4-4 8-6 5-5z" fill="#B7B7B7"/>
<path transform="translate(490,500)" d="m0 0 6 1 9 7 6 3 5 5 2 5v2l-1 2-8-10v-2l-4-2-9-7-6-3z" fill="#E2E2E2"/>
<path transform="translate(1110,597)" d="m0 0 5 1 11 3h25v2l-3 1h-20l-12-3-6-3z" fill="#ECECEC"/>
<path transform="translate(1169,592)" d="m0 0 2 1-4 5-14 5h-2v-2l-9 1v-2l16-3 9-4z" fill="#C7C7C7"/>
<path transform="translate(504,535)" d="m0 0 2 1 1 3v18l-3 8-2 1 1-4v-25z" fill="#EBEBEB"/>
<path transform="translate(1484,525)" d="m0 0h1v7l-7 16-1 2-3-1 2-6 5-13 3-1z" fill="#B6B6B6"/>
<path transform="translate(336,597)" d="m0 0 2 1-5 5-12 4-8 1v-1l-5-1v-1l15-3z" fill="#CBCBCB"/>
<path transform="translate(1163,576)" d="m0 0h2v2l-10 5-6 2-14 1-8-1-1-2 22-1 12-4z" fill="#E6E6E6"/>
<path transform="translate(1e3 524)" d="m0 0 4 1 6 8 2 6v11l-2-1-3-13-6-9z" fill="#C7C7C7"/>
<path transform="translate(215,464)" d="m0 0 1 3-6 13-4 12-2-1-1-5 5-13 3-1z" fill="#C8C8C8"/>
<path transform="translate(391,529)" d="m0 0 1 4-5 17-4 8-1 4-3 1v-4l6-13 5-16z" fill="#A5A5A5"/>
<path transform="translate(1300,592)" d="m0 0m-2 1h2v2l-19 7v1l-13 2v-4l20-4z" fill="#A2A2A2"/>
<path transform="translate(949,574)" d="m0 0h2l1 36h-3z" fill="#EFEFEF"/>
<path transform="translate(1605,473)" d="m0 0 2 1v5l-10 16-2-1 1-5 4-8z" fill="#C0C0C0"/>
<path transform="translate(1373,667)" d="m0 0h1v7h11v7l-7-1-5-1z" fill="#A4A4A4"/>
<path transform="translate(1102,578)" d="m0 0 14 8 11 4 6 1v1h-10l-10-4-5-1-5-5-2-3z" fill="#A2A2A2"/>
<path transform="translate(1030,668)" d="m0 0h2l3 9 2 1v2h-13l3-5z" fill="#D4D4D4"/>
<path transform="translate(1478,557)" d="m0 0h3l-1 4-18 18-3-1 4-5 8-7z" fill="#D1D1D1"/>
<path transform="translate(1192,541)" d="m0 0 2 3 1 8-4 10-2 2-4 2 2-5 4-13z" fill="#ADADAD"/>
<path transform="translate(1551,471)" d="m0 0h2l11 19-2 2-3-4-3-3-6-10z" fill="#ccc"/>
<path transform="translate(1600,462)" d="m0 0 2 3-2 6-6 12-2 3h-2l1-6 8-16z" fill="#BEBEBE"/>
<path transform="translate(1475,476)" d="m0 0 4 1 6 14-1 5-2 1-6-16z" fill="#A8A8A8"/>
<path transform="translate(1022,575)" d="m0 0 1 3-10 9-8 4-3-1 6-5z" fill="#D5D5D5"/>
<path transform="translate(437,590)" d="m0 0 5 1 13 6-2 4-6-2-9-6z" fill="#D8D8D8"/>
<path transform="translate(1e3 568)" d="m0 0m-2 1h2v2l-10 4v1l-5 1h-8v-4l16-2z" fill="#A6A6A6"/>
<path transform="translate(238,559)" d="m0 0 4 2 9 9 2 1 1 5-4-2-10-9-2-4z" fill="#CFCFCF"/>
<path transform="translate(1410,570)" d="m0 0h1v25h-2v15h-1v-19l1-20z" fill="#E2E2E2"/>
<path transform="translate(221,452)" d="m0 0 3 1-2 5-5 7-3 3-3 5h-2l2-6 7-11z" fill="#AEAEAE"/>
<path transform="translate(524,555)" d="m0 0h1v7l-4 11-4 7-3-1 2-5 5-10z" fill="#BEBEBE"/>
<path transform="translate(232,495)" d="m0 0h1v7l-1 3-1 16-2-1-1-5 1-16z" fill="#E8E8E8"/>
<path transform="translate(1451,460)" d="m0 0 4 2 5 5 8 9-1 2-5-3-7-8-4-5z" fill="#BEBEBE"/>
<path transform="translate(1610,450)" d="m0 0 1 3-10 17-2 1 2-7 1-5 5-8z" fill="#CFCFCF"/>
<path transform="translate(1418,426)" d="m0 0 19 6 1 2h-9l-11-2-1-2z" fill="#A4A4A4"/>
<path transform="translate(991,600)" d="m0 0h7l-1 3-4 1h-17v-3z" fill="#EAEAEA"/>
<path transform="translate(235,539)" d="m0 0 7 6 6 9 3 3-1 2-3-2-3-1-9-14z" fill="#CECECE"/>
<path transform="translate(1544,422)" d="m0 0 4 2 12 21v2l-4-2-8-15-4-6z" fill="#B7B7B7"/>
<path transform="translate(981,504)" d="m0 0h16l-2 3-9 1h-10v-3z" fill="#DCDCDC"/>
<path transform="translate(1488,480)" d="m0 0 3 1 3 8 1 4v11h-1l-1-9h-2l-4-14z" fill="#C0C0C0"/>
<path transform="translate(388,479)" d="m0 0h3l3 10v7l-2 4-5-20z" fill="#B0B0B0"/>
<path transform="translate(1507,675)" d="m0 0h1v8l-3 5-5 1h-7v-3l3-1h8z" fill="#010101"/>
<path transform="translate(1285,579)" d="m0 0m-4 1h4l-1 4-12 4h-4v-4l5 1v-2z" fill="#A4A4A4"/>
<path transform="translate(1091,568)" d="m0 0 4 2 4 5 3 2 1 4 6 4-3 1-12-11-4-5z" fill="#E5E5E5"/>
<path transform="translate(1495,548)" d="m0 0h2l-1 5-7 11-4 2v-3l7-11z" fill="#B2B2B2"/>
<path transform="translate(502,673)" d="m0 0h1l1 7-2 1-8-1-2-6z" fill="#999"/>
<path transform="translate(1091,667)" d="m0 0 5 1 1 3 2 1-3 3h-2l-1 6h-2z" fill="#D5D5D5"/>
<path transform="translate(1539,468)" d="m0 0 4 4 6 12-3 2-7-12-1-5z" fill="#AFAFAF"/>
<path transform="translate(1521,420)" d="m0 0 3 1 6 10v6h-2l-8-14z" fill="#E4E4E4"/>
<path transform="translate(734,684)" d="m0 0 13 1-1 4h-14l-1-2z" fill="#010101"/>
<path transform="translate(383,667)" d="m0 0 5 1 4 4-3 3h-2v4h-3z" fill="#CFCFCF"/>
<path transform="translate(512,529)" d="m0 0 2 1 3 12v12l-1 2h-2l-1-22z" fill="#E4E4E4"/>
<path transform="translate(350,589)" d="m0 0 2 1-3 5-14 7v-3l5-4z" fill="#D8D8D8"/>
<path transform="translate(446,467)" d="m0 0h1l1 8 5 9 3 3-1 2-3-3-4-1-3-8v-9z" fill="#B3B3B3"/>
<path transform="translate(252,459)" d="m0 0 3 1-2 4-8 9-3-1 2-4z" fill="#BFBFBF"/>
<path transform="translate(456,437)" d="m0 0m-1 1m4 0 3 1-11 6-6 6h-2l1-4 5-5 4-3z" fill="#BCBCBC"/>
<path transform="translate(246,452)" d="m0 0 3 1-2 4-8 9h-2l-1-3z" fill="#BCBCBC"/>
<path transform="translate(1315,572)" d="m0 0 2 1-2 4-10 7h-5l5-5z" fill="#B2B2B2"/>
<path transform="translate(424,441)" d="m0 0 2 1-1 7-3 7-2 4-2-6 4-9z" fill="#C0C0C0"/>
<path transform="translate(505,576)" d="m0 0 1 3-9 8-8 4 2-5 7-5 5-3z" fill="#ddd"/>
<path transform="translate(487,664)" d="m0 0 4 1v17l-1 3-3 1-1-5 1-6 2-4-1-2h-1z" fill="#060606"/>
<path transform="translate(1100,535)" d="m0 0h1v6h2l3 17h-2l-4-9z" fill="#D4D4D4"/>
<path transform="translate(1010,505)" d="m0 0h3l-2 4-3 1 1 6 1 2-4-2-4-3 2-4z" fill="#E3E3E3"/>
<path transform="translate(340,458)" d="m0 0 5 1 9 9-1 2-4-1-9-9z" fill="#bbb"/>
<path transform="translate(1096,674)" d="m0 0m-2 1 2 1 3 5 3 8-3 1-2-1-1-7-4-2z" fill="#010101"/>
<path transform="translate(626,666)" d="m0 0 4 1 1 4-1 4-5-1-2-2 1-5z" fill="#DBDBDB"/>
<path transform="translate(375,549)" d="m0 0h2l-1 5-7 10-4 1 2-4 6-10z" fill="#B9B9B9"/>
<path transform="translate(761,520)" d="m0 0h2v3h-39v-1l26-1z" fill="#F7F7F7"/>
<path transform="translate(1624,459)" d="m0 0 4 1-2 5-4 7h-2l-2 2v-4z" fill="#B8B8B8"/>
<path transform="translate(516,520)" d="m0 0 4 2 4 9-1 9-2-4-4-11z" fill="#A5A5A5"/>
<path transform="translate(1609,489)" d="m0 0 1 3-7 13-2-1 1-7 4-6h2z" fill="#D6D6D6"/>
<path transform="translate(223,467)" d="m0 0h2l-1 5-4 5-4 10-2-4 7-14z" fill="#ACACAC"/>
<path transform="translate(1541,452)" d="m0 0 4 5 7 12-2 4-3-3-1-5-5-8z" fill="#A8A8A8"/>
<path transform="translate(231,440)" d="m0 0h5l-6 7-5 6h-3l2-5z" fill="#D0D0D0"/>
<path transform="translate(685,668)" d="m0 0 4 1-3 1v19l-4-3v-10l2-2z" fill="#A2A2A2"/>
<path transform="translate(307,606)" d="m0 0h8l-4 3h-21v-2z" fill="#F5F5F5"/>
<path transform="translate(1459,576)" d="m0 0 2 1-2 4-8 5-9 1 4-3 10-6z" fill="#B5B5B5"/>
<path transform="translate(451,575)" d="m0 0 12 5 7 1v1l-13 1-5-3-2-4z" fill="#aaa"/>
<path transform="translate(1487,543)" d="m0 0h2l-1 6-6 9-3-2 7-12z" fill="#B9B9B9"/>
<path transform="translate(478,416)" d="m0 0h9l4 2-3 3-17-2v-1l7-1z" fill="#C0C0C0"/>
<path transform="translate(489,597)" d="m0 0 2 1-4 2-2 3-9 1 1-2-12-1v-1l16-1z" fill="#C0C0C0"/>
<path transform="translate(495,511)" d="m0 0 5 2 5 4 2 5-1 3-2-4-4-2-5-5z" fill="#B7B7B7"/>
<path transform="translate(1547,444)" d="m0 0 3 3 6 10v2l-3-1-5-5-2-4z" fill="#C7C7C7"/>
<path transform="translate(221,496)" d="m0 0 2 3v10h-1l-2 12h-1v-18z" fill="#A2A2A2"/>
<path transform="translate(1501,484)" d="m0 0 2 4v15h-2l-2-17h2z" fill="#B8B8B8"/>
<path transform="translate(513,579)" d="m0 0h3l-2 5-8 8-4 2 2-4z" fill="#D6D6D6"/>
<path transform="translate(445,490)" d="m0 0 7 6 12 5 5 1v1l-12-1-9-6-3-3z" fill="#A7A7A7"/>
<path transform="translate(1493,664)" d="m0 0h11l2 1v2l-4 1-6-1-2 5h-1z" fill="#010101"/>
<path transform="translate(1e3 496)" d="m0 0h3l-2 4-8 6-6-2 4-2 8-5z" fill="#CDCDCD"/>
<path transform="translate(957,664)" d="m0 0h1l1 9 10 1 1-3v16h-1l-2-12h-9l-1-1z" fill="#A2A2A2"/>
<path transform="translate(1031,579)" d="m0 0 1 3-10 10-3 1 2-5 8-8z" fill="#D6D6D6"/>
<path transform="translate(468,521)" d="m0 0 13 2 8 5-4 2-4-3-3-2-10-2z" fill="#A2A2A2"/>
<path transform="translate(1476,509)" d="m0 0h1v17l-2 4-2-2 1-10h1z" fill="#CACACA"/>
<path transform="translate(380,485)" d="m0 0h3l2 7-1 6-2 2-3-14z" fill="#A4A4A4"/>
<path transform="translate(1611,463)" d="m0 0 2 1-1 7-5 7-1-4 2-6z" fill="#B2B2B2"/>
<path transform="translate(450,432)" d="m0 0 2 1-9 7-3 3-3-1 2-4 3-3z" fill="#DEDEDE"/>
<path transform="translate(1075,558)" d="m0 0 3 1 5 10-2 4-6-11z" fill="#DFDFDF"/>
<path transform="translate(1558,502)" d="m0 0 3 1 5 8-1 5-3-3-4-6z" fill="#C0C0C0"/>
<path transform="translate(1015,567)" d="m0 0 3 3-7 7h-6l5-5z" fill="#A2A2A2"/>
<path transform="translate(1199,560)" d="m0 0h2l-1 6-4 6-4 1 2-5z" fill="#B4B4B4"/>
<path transform="translate(1186,536)" d="m0 0h1v8l-2 7-2-4v-9z" fill="#CECECE"/>
<path transform="translate(470,494)" d="m0 0h8l11 2-1 4-3-1-15-4z" fill="#A6A6A6"/>
<path transform="translate(383,468)" d="m0 0 4 1 3 7v3l-3 1-4-8z" fill="#AEAEAE"/>
<path transform="translate(458,426)" d="m0 0m-3 1 5 1v2l-8 3-8 2 4-4z" fill="#B0B0B0"/>
<path transform="translate(1401,413)" d="m0 0 2 1v16l-3-1v-11z" fill="#A4A4A4"/>
<path transform="translate(1099,588)" d="m0 0 5 2 11 5-1 2-5 1-8-7z" fill="#B1B1B1"/>
<path transform="translate(1330,571)" d="m0 0h2l-2 4-9 9-3-1 5-6z" fill="#CDCDCD"/>
<path transform="translate(236,464)" d="m0 0 2 3-7 11-2-1 2-7z" fill="#B3B3B3"/>
<path transform="translate(241,446)" d="m0 0h2l-2 4-5 5-5 1 2-4 5-5z" fill="#D8D8D8"/>
<path transform="translate(1258,582)" d="m0 0h1v20h2v7h-3z" fill="#eee"/>
<path transform="translate(977,592)" d="m0 0h8l6 1v2l-13 1z" fill="#D0D0D0"/>
<path transform="translate(1175,525)" d="m0 0h1l2 10v7l-4 4z" fill="#A2A2A2"/>
<path transform="translate(233,528)" d="m0 0 2 3 5 12-2 1-4-4-2-7z" fill="#AFAFAF"/>
<path transform="translate(1008,510)" d="m0 0 1 4 4 2 2 2 2 7-3-1-6-8-1-4z" fill="#C0C0C0"/>
<path transform="translate(229,473)" d="m0 0 2 1-2 9-3 5-1-4 1-6z" fill="#C3C3C3"/>
<path transform="translate(1483,455)" d="m0 0 4 1 5 7v2l-3 1-4-5z" fill="#ADADAD"/>
<path transform="translate(486,664)" d="m0 0 4 5-1 11-3 1z" fill="#A2A2A2"/>
<path transform="translate(1019,589)" d="m0 0 2 1-2 4-10 5 2-5z" fill="#DEDEDE"/>
<path transform="translate(446,583)" d="m0 0 11 5 6 2v1h-8l-10-6z" fill="#A2A2A2"/>
<path transform="translate(485,569)" d="m0 0h2v2l-7 4-5 1h-8l-2-2 14-1z" fill="#DEDEDE"/>
<path transform="translate(1e3 565)" d="m0 0 3 1-4 5-9 4h-6l4-2 8-2 2-4z" fill="#CDCDCD"/>
<path transform="translate(503,554)" d="m0 0h1v8l-2 6-3 3-2-1 2-5 3-6z" fill="#ABABAB"/>
<path transform="translate(444,557)" d="m0 0 4 1 6 6v4h-3l-7-10z" fill="#C1C1C1"/>
<path transform="translate(1339,560)" d="m0 0 2 2-7 9h-3l2-4z" fill="#ABABAB"/>
<path transform="translate(1631,448)" d="m0 0 2 2-2 6-2 4h-4l2-6z" fill="#C2C2C2"/>
<path transform="translate(221,473)" d="m0 0 1 3-5 13-2 4-2-7 3-2z" fill="#D5D5D5"/>
<path transform="translate(1300,582)" d="m0 0m-2 1h6l-4 4-4 2h-4l1-3z" fill="#C1C1C1"/>
<path transform="translate(1169,581)" d="m0 0 2 1-3 5-7 3-4-2 10-5z" fill="#C4C4C4"/>
<path transform="translate(912,572)" d="m0 0h6l2 4-18-1v-1z" fill="#A2A2A2"/>
<path transform="translate(360,556)" d="m0 0h2l-1 4-7 7-2-1 4-6z" fill="#BEBEBE"/>
<path transform="translate(438,497)" d="m0 0 4 2 5 6h-2l-1 2-5-6z" fill="#C5C5C5"/>
<path transform="translate(653,448)" d="m0 0 8 2v1h-20l1-2z" fill="#FBFBFB"/>
<path transform="translate(1418,446)" d="m0 0 7 1 4 2-2 2-8-1z" fill="#A4A4A4"/>
<path transform="translate(248,439)" d="m0 0m-2 1 4 1v2l-7 4-4-1z" fill="#B4B4B4"/>
<path transform="translate(486,682)" d="m0 0 2 2 2 1v-3h2v7h-6z" fill="#898989"/>
<path transform="translate(1073,548)" d="m0 0 2 1 2 9h-2l-1 2-2-5v-6z" fill="#B8B8B8"/>
<path transform="translate(513,513)" d="m0 0 4 5 1 5-1 2-6-9z" fill="#D6D6D6"/>
<path transform="translate(1620,470)" d="m0 0 1 3-5 8-3-1 2-5 1-2 3-1z" fill="#D4D4D4"/>
<path transform="translate(1013,466)" d="m0 0h2l1 4v12l-2-1z" fill="#EAEAEA"/>
<path transform="translate(1375,675)" d="m0 0h8v5h-6z" fill="#010101"/>
<path transform="translate(380,561)" d="m0 0 1 3-5 5-5 3 2-4 4-6z" fill="#D2D2D2"/>
<path transform="translate(997,517)" d="m0 0 7 4 2 3-3 1-7-4z" fill="#A7A7A7"/>
<path transform="translate(1475,476)" d="m0 0 4 1 2 4-1 4h-2l-3-6z" fill="#B9B9B9"/>
<path transform="translate(776,448)" d="m0 0 4 3h-24v-1l15-1z" fill="#F8F8F8"/>
<path transform="translate(1523,440)" d="m0 0 3 3 4 7v2l-3 1-4-10z" fill="#ADADAD"/>
<path transform="translate(260,423)" d="m0 0m-3 0 3 1-1 3-5 2-4-1 4-4z" fill="#A7A7A7"/>
<path transform="translate(513,550)" d="m0 0h1v6h2l-1 7-2 1-1-7z" fill="#ADADAD"/>
<path transform="translate(1473,528)" d="m0 0 2 2-1 6-3 3h-2l3-10z" fill="#A2A2A2"/>
<path transform="translate(434,507)" d="m0 0 5 2 2 4 1 3-4-2-4-3z" fill="#E0E0E0"/>
<path transform="translate(1623,423)" d="m0 0 2 3-2 7-4 2-1-3z" fill="#BFBFBF"/>
<path transform="translate(446,594)" d="m0 0 9 3-2 4-4-2-4-4z" fill="#C3C3C3"/>
<path transform="translate(1008,576)" d="m0 0 2 1-5 4-7 3h-5l3-2 8-4z" fill="#E2E2E2"/>
<path transform="translate(500,426)" d="m0 0 5 2 6 5 3 1v2l-3 1-11-10z" fill="#D3D3D3"/>
<path transform="translate(737,673)" d="m0 0h4l1 5-2 2h-3z" fill="#010101"/>
<path transform="translate(1432,590)" d="m0 0m-3 1 3 1-8 3v1l-6 1-1-3z" fill="#A2A2A2"/>
<path transform="translate(976,516)" d="m0 0h15v1h-8v2h-7z" fill="#D1D1D1"/>
<path transform="translate(733,420)" d="m0 0h10v1l-6 2h-9v-2z" fill="#B5B5B5"/>
<path transform="translate(661,419)" d="m0 0 1 4h-10l1-3z" fill="#A2A2A2"/>
<path transform="translate(1268,601)" d="m0 0 11 1-3 2-8 1z" fill="#C9C9C9"/>
<path transform="translate(339,576)" d="m0 0 3 1-9 6v-3-2z" fill="#D6D6D6"/>
<path transform="translate(231,552)" d="m0 0h2l6 6v4h-2l-6-9z" fill="#E7E7E7"/>
<path transform="translate(1484,494)" d="m0 0 2 1v8l-2 4-1-4v-7z" fill="#E0E0E0"/>
<path transform="translate(1545,477)" d="m0 0 3 4 1 3-3 2-3-5v-3z" fill="#A8A8A8"/>
<path transform="translate(446,467)" d="m0 0h1l1 14-2-1-1-3v-9z" fill="#E0E0E0"/>
<path transform="translate(437,465)" d="m0 0h1l1 13-2 2-1-1v-12z" fill="#F4F4F4"/>
<path transform="translate(1565,458)" d="m0 0 4 2 3 7-2 1-2-2-2-1z" fill="#C6C6C6"/>
<path transform="translate(1451,460)" d="m0 0 4 2 4 3-1 3-4-2-3-4z" fill="#D9D9D9"/>
<path transform="translate(1544,422)" d="m0 0 4 2 4 7-1 2-4-4-3-5z" fill="#C2C2C2"/>
<path transform="translate(1637,418)" d="m0 0 2 2-1 6-2 2v-2l-3 1 2-5z" fill="#D3D3D3"/>
<path transform="translate(681,677)" d="m0 0h2v9l2-4v7h-5z" fill="#010101"/>
<path transform="translate(246,452)" d="m0 0 3 1-2 4-4 2v-4z" fill="#C7C7C7"/>
<path transform="translate(1634,426)" d="m0 0h2l-1 5-3 4-2-5z" fill="#CACACA"/>
<path transform="translate(492,674)" d="m0 0 5 1 1 2 3 2-7 1z" fill="#010101"/>
<path transform="translate(1456,567)" d="m0 0m-2 1h2l-1 5-3 2h-3l2-4z" fill="#ACACAC"/>
<path transform="translate(371,556)" d="m0 0 2 3-5 5-3 1 2-4z" fill="#B7B7B7"/>
<path transform="translate(516,520)" d="m0 0 4 2 2 4-1 3-3-1z" fill="#B3B3B3"/>
<path transform="translate(391,488)" d="m0 0 3 1v7l-2 4-2-11z" fill="#C5C5C5"/>
<path transform="translate(340,458)" d="m0 0 5 1 2 4v2l-4-2-3-3z" fill="#D0D0D0"/>
</svg>
