<?xml version="1.0" encoding="UTF-8"?>
<svg version="1.1" viewBox="0 0 1600 1069" width="1280" height="1280" xmlns="http://www.w3.org/2000/svg">
<path transform="translate(0)" d="m0 0h1600v1069h-1600z" fill="#020A14"/>
<path transform="translate(1175,411)" d="m0 0h39l17 2h7l3 1 14 1 26 7 8 1 10 5h7l6 5 9-1 4 6 17 9 4 4 10 2v3h-2v2l-7 4 1 2 6 1 126 1 76 1 1 4-1 3 1 9 1 62v22l-1 64-1 18-1 96-1 45v21l-1 1h-37l-40 1h-56l-46 1h-310l-64-1-1-1-1-115-2-13-2-4-5-2-3-4-3-6-4-2-4-5v-2l-3-1-4-8-5-9-3-13-2-8-1-11-3-12v-11l2-5 1-13 2-3-1-4 1-3-1-3h2l1-5h2l1-7 4-2-1-9 5-6 5-5 2-9h2l2-7 5-1 1 3 4 1 4-16 1-24 3-2 38-1 1-1-4-3 4-8 2-2 10-1 4-5 9-4 7-3 14-7 4-1 4-2 9-2 12-4 2-3h5l2-2 8 1 8-2 2-2h12l9-2h9z" fill="#111722"/>
<path transform="translate(54,961)" d="m0 0h81l1465 1v107h-1600v-107z"/>
<path transform="translate(0)" d="m0 0h1600v58h-1486l-111-1-3-1z"/>
<path transform="translate(1064,467)" d="m0 0h268l1 2-3 1-54 1-31 1-46-1h-67l3 2 9 1 4 4h5l1-1h5v3l6 1 4 2-1 2-14 3-3 3v2l-6 2-1 9h-7l-1-6-4 2-2 4 3 1v2l7 1 6 3 3 4h-10l-13 1-9 2-1 2h-2l1 14 1 2 4-2-1-4v-11h5v3l4-1 14-1 4 1h8l6 1 7-2 5-5 5 2 16 1 1-7-9-1v-2h-2v-2h10l2-1-21 1-7-1 1-12 1-1 14-1 5-1 7 2 1 6h3l-1-5 5 1 5 3 4-1 1 1 2-4 7-3 5-3 8-3h5l2 1 8-1 7-1 5 2h8l9 4 9 2 9 4 10 4 10 8 2 2 8 2 11 11-2 2 6 5 3 6 2 1v2l4 2 5 7v3h3v2h2l1 6h-1l-1 5 3 1-1 12v3l3 7v7l-5 12-4 7-4 13-6 8h-2l-2 4-7 7-4 7-9 4-9 3 1 2 6-2-1 3 4 1v2h2l-1 5-2 5-5-2v-5h-3v5l-5 1-2-6-1 2 2 5-1 1-9 1-3-1-1-4h-3l-1 5-6 1-5-2-4-5-3 1-1 5-29 1v2l-5 2-7 2 3 3 4 1h7l7-1 8 4 8-2h2v2l8-1 16 4 2 2v7l-1 2h-26l-2-4-4 1v2h-6l-1-10-1 1-5 2h-3v7l-1 1h-26l-5-1h-4v2h-4v-6l1-5h-4l-3 3-3 1-1 3h-2v2h-7l-1-1-2 2h-18l-3-3-3-1-1 3h-6v-5l-2 1-2 4h-4v-11l3-5 4-2 10 1 8-1-2 1v2l3 1 1 3 4 1v-6l1-1-3-2 3-1-11-1v-3l-4-2-36-1-1-19-5-2 1-5v-6h-2l-2-6h-2l-1 6-1 1h-6l-2-1v5l-1 1h-10l-9-2h-5v-2h-6v2h-5v2h15l8 1 4 4-5 2-24 1-10 2v2h-2v8l-1 1 1 3 3-1 3 3 6 1v-2l-6-1-3-3 2-5h3v-2l4-1h15l2 1 1 15 4 2-1 3-10 1h-8v1l-7 2-3 1v2l-7 2-4 2-4-2-4-1-1-5v-2l-4-1-4-3-2-6-6-1-1-10-2 5-3-4-3-3-5-2-4 1-2 3-1 21-2-2v-15h-1l-1-101 1-66v-3-5h2v-23h1v25l1 23 4 1 4-5 1-3 9-7 5-1 1-7v-3h10l10-5 7-2h4l2 2-5 2-1 2 2 4 5-1 3 3 1 5 4 1-1-12 3 1 1 10h2l1-11h-2v-2h-2v-2h-8l-2-2 1-5 6-3h5v-2l5-1-1-3-21-1 2-3z" fill="#2F2727"/>
<path transform="translate(262,105)" d="m0 0h26l17 3 17 5 14 7 11 8 11 9 8 9 8 11 9 17 5 13 3 13 1 8v23l-3 19-4 12-8 16-8 12-9 11-10 9-11 8-19 10-16 5-9 2-9 1h-20l-15-2-17-5-16-8-9-6-13-10-11-12-7-10-8-16-5-12-5-22v-25l3-17 5-15 10-19 9-12 9-10 12-10 13-8 17-7z" fill="#FBFCFA"/>
<path transform="translate(1064,467)" d="m0 0h268l1 2-3 1-54 1-31 1-46-1h-67l3 2 9 1 4 4h5l1-1h5v3l6 1 4 2-1 2-14 3-3 3v2l-6 2-1 9h-7l-1-6-4 2-2 4 3 1v2l7 1 6 3 3 4h-10l-13 1-9 2-1 2h-2l1 14 1 2 4-2-1-4v-11h5v3l4-1 14-1 4 1h8l2 2-7 2-1 2h-2l-1-4h-7l-1 3-3-2-6-1v10h14l5-2 5-5v4l-3 2v3h5l4-5 6 1 2-5 5-2h4l1 1 1 8 2 2h-3v3l-9 2-9 4-3 2h-8l-2 1v2l3 1v2l4 1 6-2 3 3-2 4 1 1v5l4 2h3l4 1 4 5 3 3-1 7-9-3-7-3h-13l-2 2 2 1 2 11 6 4-3 3-8 1-13 1-9 2-5-1-11 1v2l-29 1-7 3-1 1-1 7-4 1v-9l-6 2-1 6 7 3h58v-2l3 1-3 6-5 1-2 4-10 5-7-1-1-1h-7l-1 1-21-1v2h-3v2l-6 1v8l14 3v1h-5v2h15l8 1 4 4-5 2-24 1-10 2v2h-2v8l-1 1 1 3 3-1 3 3 6 1v-2l-6-1-3-3 2-5h3v-2l4-1h15l2 1 1 15 4 2-1 3-10 1h-8v1l-7 2-3 1v2l-7 2-4 2-4-2-4-1-1-5v-2l-4-1-4-3-2-6-6-1-1-10-2 5-3-4-3-3-5-2-4 1-2 3-1 21-2-2v-15h-1l-1-101 1-66v-3-5h2v-23h1v25l1 23 4 1 4-5 1-3 9-7 5-1 1-7v-3h10l10-5 7-2h4l2 2-5 2-1 2 2 4 5-1 3 3 1 5 4 1-1-12 3 1 1 10h2l1-11h-2v-2h-2v-2h-8l-2-2 1-5 6-3h5v-2l5-1-1-3-21-1 2-3z" fill="#231C2A"/>
<path transform="translate(87,742)" d="m0 0h175l13 1 3 1 1 2v51l-2 2-4 1h-204l-4-2-1-5v-47l2-3z" fill="#FBD91A"/>
<path transform="translate(265,145)" d="m0 0h23l16 4 10 5 9 8 6 10 3 10v6l-2 1h-26l-3-5-3-6-12-6-11-1-12 3-7 5-2 4v7l4 6 5 4 28 8 15 5 12 6 7 6 7 11 2 7v17l-3 10-7 10-13 9-14 5-5 1h-30l-15-4-8-4-10-9-6-8-5-13v-9l1-1h27l10 16 5 3 12 3h9l12-5 7-6 2-5-1-6-4-5-10-5-30-9-14-5-10-6-9-11-3-9-1-11 3-13 6-9 5-5 7-6 11-5z" fill="#030B14"/>
<path transform="translate(359,742)" d="m0 0h77l34 1 7 5v49l-2 4-31 1h-125l-5-2-1-3-1-15v-38l1-1z" fill="#111722"/>
<path transform="translate(858,157)" d="m0 0h39l7 21 11 28 11 31 2 7 4 1v-88h19l2 3v101l-3 2h-32l-5-2-4-8-18-49-10-26-1-2-3-1 1 15v72l-1 1h-17l-3-2v-103z" fill="#F7F9F6"/>
<path transform="translate(735,155)" d="m0 0h21l1 63v43l-1 2h-15l-4-1-1-2v-8l-5 3-7 7-5 2h-15l-11-4-7-7-5-10-2-7-1-8v-14l2-10 5-12 5-6 9-5 5-1h13l8 4 9 7z" fill="#FAFBF7"/>
<path transform="translate(1e3 179)" d="m0 0h11l12 3 10 6 6 7 5 15v25l-4 11-6 8-11 8-8 2h-21l-11-3-7-6-6-10-4-11-1-9v-9l3-14 6-10 5-5 6-4 9-3z" fill="#F9FBF8"/>
<path transform="translate(1187,179)" d="m0 0h8l12 3 11 6 7 8 4 10 1 4v24l-3 10-7 11-10 7-7 2-12 1-16-2-8-4-7-7-5-8-3-9-1-9v-11l2-11 5-10 8-8 11-5z" fill="#F9FAF7"/>
<path transform="translate(1318,576)" d="m0 0 4 2v7l1 6 2-2-1-5 3-4h7v9l5 1 2-1h-5v-8l5-1 2 2v5l1 1v-6l6-1 7 5v7l-4 6-4 12-8 10-2 3-8 1-10 5h-2v2l-6 2v-4h-4l1 3-1 6h-3v-2h-2l-1-3-2-1-2 4-5 6-8 4-3 1v2h-2l-1-3 5-6-1-4 3-1v-9l-4-4h-7l-1 2-1-2-3 1-2 1-3-3-1-4h2v-3l4 1 3 1-3-2-1-3-3-1v-2l-7-1-4 2h-4l-1-2-21-1-9 1-6-3-10-2-8 1-3-1-1-7 2-2v-2l-7-1-1-1v-8l1-2h6l2 2 5-1 3 3-1 5 3 1v2l5 2h6v-9l-5 5-4 1-2-3v-7l1-1h16l6-3h5l2 3h9 4 15l1 2v7l-1 1h-8l-5 4-4-2v-6l-2 4-7 1-2-8-4 1-3 6-6-3-2 8 2 2h3l1-3 3 1v2l11 1 5-1 2-3 3 1-1 4h6l3-2h7l3-1 4 2h5v-2l9 1 1-3 9 1 2-4-1-1v-12h3l3 9v4h7l-4-5v-7h6l1 12h2l1-10z" fill="#312E2D"/>
<path transform="translate(469,156)" d="m0 0h24l11 4 10 10 4 9v6l-6 2-13-1-3-3-4-8-6-2h-11l-7 3-2 3v8l5 5 19 8 16 6 8 5 7 9 2 7v11l-3 10-7 8-5 4-12 4-6 1h-13l-14-3-8-4-8-7-8-14v-9l1-1 19 1 4 9 1 4 5 2 7 3h17l6-5 2-4-2-9-6-5-27-10-11-6-6-5-5-10v-16l4-8 9-8z" fill="#F9FBF7"/>
<path transform="translate(1196,657)" d="m0 0h5l2 2 3 1h7l3-1 25 2h7l5-1 14 4h18l3 2 2-4h5v6l-3 3-2 5-6 1-5-2-4-5-3 1-1 5-29 1v2l-5 2-7 2 3 3 4 1h7l7-1 8 4 8-2h2v2l8-1 16 4 2 2v7l-1 2h-26l-2-4-4 1v2h-6l-1-10-1 1-5 2h-3v7l-1 1h-26l-5-1h-4v2h-4v-6l1-5h-4l-3 3-3 1-1 3h-2v2h-7l-1-1-2 2h-18l-3-3-3-1-1 3h-6v-5l-2 1-2 4h-4v-11l3-5 4-2 10 1 8-1-2 1v2l3 1 1 3 4 1v-6l1-1-3-2 3-1-11-1v-3l-4-2-36-1v-13l7 1 3 2 2-2 11-1 7 3 1 1 3-5h6l-1 7 3-1 1 4h5l2-3 8-1 1-5h2v-2z" fill="#2F2727"/>
<path transform="translate(1265,528)" d="m0 0h24l4 4v3l-4 1 2 1v2l5 1 9 7 5 1-6 3 4 2 1 2 5 2-1 6-7 2h-6l3 4h12l7 3 5 4 4 2 2 2-6 1-2 3 1 6-3 1-2-6v-7l-3-1v10l-1 5-3-1-1-2v-10h-6l2 9 4 4-9-1-3-13h-3l1 12 3 2h-3l-2 4-9-1-1 2h-7l-2-1v2l-5 1-5-2-6 1-10 2-2-1 1-4h-3l-2 3-6 1-10-2-1-2h-2l-1 2-4 1-2-4 3-7 6 2 3-6h4l2 8 7-2 2-5h1v8l3 1 5-4h8v-9l-15 1h-4l-2-2 2-4 4-3v-4l-2-1v-2h-4l-1-6-2-1-4-5-3-4 2-4-5-1-1-3 2-3 6-3 6-1 1-2h2l2 10 4-1 1-5 6-1z" fill="#342924"/>
<path transform="translate(1172,523)" d="m0 0 4 2 1 8 2 2h-3v3l-9 2-9 4-3 2h-8l-2 1v2l3 1v2l4 1 6-2 3 3-2 4 1 1v5l4 2h3l4 1 4 5 3 3-1 7-9-3-7-3h-13l-2 2 2 1 2 11 6 4-3 3-8 1-13 1-9 2-5-1-11 1v2l-29 1-7 3-1 1-1 7-4 1v-9l-6 2-2 5-2-3 1-6 5-2 8-1 27-3h7l1-2-8-1-4-2-17 1-10-1-8-4 1-2h7v-8h-6l-1 2h-2v-5l10-3h27l3-1 18-2 6-2v-2l-1-5h-10v-2h3v-2l2-1v-3h-4l-3 3v-8l-5-1-4 1-4-2 14-4 6 2h3v2l6-1 1-3 9-1 12-1 1-6 4 3 3-1 5-7 6 1 2-5 5-2z" fill="#111722"/>
<path transform="translate(592,181)" d="m0 0h19l2 2v21l1 33 4 6 3 3h8l8-5 3-6 1-37 1-16 5-1 16 1 1 1v79l-1 1h-16l-3-1v-11l-8 7-7 5-3 1h-17l-8-4-6-7-3-9-1-12v-50z" fill="#F6F9F5"/>
<path transform="translate(1289,179)" d="m0 0 10 1 8 4 7 8 3 6 1 6v58l-2 1h-18l-2-1-1-55-3-6v-2l-10-2-7 3-6 7-1 3-1 52-1 1h-20l-1-1v-79l1-1h19l-1 13 8-7 9-7z" fill="#F8FAF6"/>
<path transform="translate(768,180)" d="m0 0 22 2 3 9 10 32 3 12 2 1 4-16 7-23 5-13 4-2 16-1-1 9-10 28-7 21-11 28-9 19-4 4h-10l-10-1 2-5 8-15 1-3v-8l-12-36-10-29-3-8z" fill="#F9FBF7"/>
<path transform="translate(1193,600)" d="m0 0 1 3 12-1 11 3 5 2 16-1 13 1 1 3 9-3 6 2v2l4 1v3l4 2-1 2-7-4v3l-4 2v4l-7 1-6 9-1 2-3 1-2 5 2 2h-2v2h3l1 4-20-4v2h2l-1 2-8 2h-5l-3-3-6 1-3 2-6-2-2-2-3-4v-2l-5-2-5-5-3-5 1-3 6-1-1-7 1-4 2-1v-2l-6-1 6-8z" fill="#342925"/>
<path transform="translate(1064,467)" d="m0 0h268l1 2-3 1-54 1-31 1-46-1h-67l3 2 9 1 4 4h5l1-1h5v3l6 1 4 2-1 2-14 3-3 3v2l-5 2-2-2h-44v2h9l1 2v7l-3 1-2-2 1-4-4 2h-3l-1-8-10-1 1 7-2-1-2-5h-7l-1 11h-1v-12h-2v-2h-2v-2h-8l-2-2 1-5 6-3h5v-2l5-1-1-3-21-1 2-3z" fill="#241C2A"/>
<path transform="translate(1067,161)" d="m0 0 21 1v12l-1 7h12l2 3v11l-6 2h-8l1 10 1 35 2 11 3 4v6h-20l-3-2-4-9-1-5v-49l-11-2v-14l1-1h7l3 1v-20z" fill="#F5F9F5"/>
<path transform="translate(544,161)" d="m0 0h10l11 1v18l12 1 1 1v13l-5 2h-8l1 37 1 14 5 12-1 3h-19l-4-3-4-9-1-54-10-1-1-1 1-13 2-1h9z" fill="#F9FBF8"/>
<path transform="translate(1115,182)" d="m0 0h21l1 1v79l-1 1h-19l-2-1z" fill="#F4F7F3"/>
<path transform="translate(601,477)" d="m0 0h3l2 6 6 2-1 2-6 2v8l1 4 5 2v3l-4 2 4 4h7l-2 2-5 1-22-1-17 1h-15l-3-3 4-2 1-2h-6l-6-5-2-4v-8l3-5 5-3 9 1 3 2v2h4l1-3h2v-2h15l5 5 2 4 2-1-2-3 1-4 2-5z" fill="#0A0A13"/>
<path transform="translate(1186,194)" d="m0 0h10l5 3 4 5 3 9v22l-3 9-4 5-8 3-9-1-6-5-3-6-1-4v-24l3-9 5-5z" fill="#030B15"/>
<path transform="translate(1e3 194)" d="m0 0h11l5 3 5 10 1 9v14l-2 10-4 6-8 4h-7l-6-3-4-5-3-8-1-14 1-11 4-9 6-5z" fill="#040B15"/>
<path transform="translate(713,195)" d="m0 0h7l6 4 5 6 3 7 1 5v10l-3 10-6 9-6 3h-7l-5-3-6-9-2-11v-9l2-10 4-7 5-4z" fill="#030B14"/>
<path transform="translate(1196,657)" d="m0 0h5l2 2 3 1h7l3-1 25 2h7l5-1 14 4h18l3 2 2-4h5v6l-3 3-2 5-6 1-5-2-4-5-3 1-1 5h-54l-7-1-8-1-6-6-4 2-1 5-5 1-1-2 3-8 1-1-4-2h2v-2z" fill="#3A2F26"/>
<path transform="translate(415,483)" d="m0 0h19l2 5 5 2 1-4 2-2 8-1h9l1 1v25l-4 5-2 1h-10l-5-3-5 3-2-1h-8l-10 1-1-5-1-4v-22z" fill="#090A13"/>
<path transform="translate(1032,773)" d="m0 0h6l2 1v2h2v2h2v7l-1 7-5 3-4 1 1 4 5 1 8-1 2-2 6 1h5l4 2 6-1 4 3 7 1 3-2 4 1-1 3-15 1-9 2h-33l-6-2-11 2h-7l-4-2 1-22 3-4 4 1 7-2 1 1 1-2-2-1 3-3h2l1 12 1 3 2 2-3 1v2h6l1-1-3-1-1-4 9-1v-12l-5-1z" fill="#020A14"/>
<path transform="translate(1426,713)" d="m0 0 18 3h8l11 4 1 4-8-1v7l1 1 7 1-2 4-1 1h-22v-4l7-2 3 1 2-10h-6l-1 2v-2l-7-2h-20l-3-1 3 10 6 1v1h8v-10l3-1 3 6v8l-5 2h-12l-9-3-5 2-13 1-17-1-3 1h-20l-2-3 2-4 6 2 20 2 3-9 3-1v8h20l2-6h4l1-6-4 1-1 4h-3v-2l-18-1-1-2h2v-2h11l6-2 17-1z" fill="#050B15"/>
<path transform="translate(1115,638)" d="m0 0h2l2 6h2l1 7-1 4 4 2 1 2v8l-5 1-4-1-1-6-7-1-14 4h-7v10l-3 1-1-3v-8h-21v2l-3 1-1 6 8 2v2h-6l-4-3-3 1-1-6 1-1 1-6h2v-2l11-3 23-1 4-1-3-3-16-1-7-1v-2h5v-2l4-1 2 1v2l7-1 7 2h10l1-5h8z" fill="#121722"/>
<path transform="translate(1064,467)" d="m0 0h268l1 2-3 1-54 1-31 1-46-1-138-1-2-2z" fill="#332926"/>
<path transform="translate(1152,685)" d="m0 0 10 1 8-1-2 1v2l3 1 1 3 4 1 3-3h7l1 3h7l1-4 4-2 4 1v2h2l-2 4-3 3-3 1-1 3h-2v2h-7l-1-1-2 2h-18l-3-3-3-1-1 3h-6v-5l-2 1-2 4h-4v-11l3-5z" fill="#302828"/>
<path transform="translate(613,473)" d="m0 0h6l1 1 1 9 3 3 7-3 9 1 4 4 1 16-1 2-15 1-5-3v-2h-2l-1 4h-7l-1-13z" fill="#67B2B2"/>
<path transform="translate(265,145)" d="m0 0h23l16 4 10 5 8 7-1 3-4-1h-3l-12-7-5-2h-13l-9 2h-14l-14 5-9 8-1-2 3-7 4-2v-2l7-3h5l1-4-2-1 5-2z" fill="#020203"/>
<path transform="translate(1102,547)" d="m0 0 5 2 1 7 2-3 5 1-1 4-8 3-9 1h-29l-7-2-3-4 1-4 4 1 4 4-1-7 9-2h24z" fill="#342925"/>
<path transform="translate(293,620)" d="m0 0h11 2l6 1 1 4h4v-2h4v3l7-1 1 7-5 4-4-1-2-3-2 4-7-1h-2l-5 2-3-1-1-5-4-1v5l-4 1-6-3-1 2h-6l-2-2 1-8h2v-2l4 1 3 3h2l1-4h3v-2z" fill="#11121B"/>
<path transform="translate(1093,633)" d="m0 0 5 2 3 1 13 2 1 3-2 4h-6l-2-1v5l-1 1h-10l-9-2h-5v-2l-11 1-9-2-1-1v-6l1-1h6l1 5v-7h21z" fill="#342925"/>
<path transform="translate(448,483)" d="m0 0h13l1 1v25l-4 5-2 1h-10l-5-3v-3l11 1 4-2 1-3-10 1-5-3-2-3v-10l3-5z" fill="#67B2B2"/>
<path transform="translate(1229,577)" d="m0 0h5l2 3h9 4 15l1 2v7l-1 1h-8l-5 4-4-2v-6l-2 4-7 1-2-8-4 1-3 6-6-3-2 6h-4v-8l-5 5-4 1-2-3v-7l1-1h16z" fill="#D3B64B"/>
<path transform="translate(1285,581)" d="m0 0h2v10l12 1-2 4-9-1-1 2h-7l-2-1v2l-5 1-5-2-6 1-10 2-2-1 1-4h-3l-2 3-6 1-10-2-1-2h-2l-1 2-4 1-2-4 3-7 6 2 3-6h4l2 8 7-2 2-5h1v8l3 1 2-1h7l5-2h7l1 1 7 1v-2l4-2v-6z" fill="#2E2727"/>
<path transform="translate(69,737)" d="m0 0h37l9 2 13 1h132v-2h10l8 2 3 3-1 3h-2v-2l-16-1h-175l-21 1-1 2-1 47h-1v-52z" fill="#0A0A12"/>
<path transform="translate(478,483)" d="m0 0h14l5 2 3 6v8l-3 5-5 3-9-1 1 8-5 1-2-7z" fill="#67B2B2"/>
<path transform="translate(392,475)" d="m0 0h4l1 2v29l-13 1-7-3-2-3v-11l3-5 5-2h8v-7z" fill="#67B2B2"/>
<path transform="translate(618,621)" d="m0 0h6l3 2h6l2 2h6v4h2l1-4 3 1 1 8-3 6h-5l-2-4-5-2-2-3-2 5h-6l-5-1h-6l-1 1h-8v-7l3 1v-5l6 1v2h2l1-5z" fill="#131822"/>
<path transform="translate(1212,690)" d="m0 0 17 1 6 1h10l4-2 5 1v3l-5 2h-3v7l-1 1h-26l-5-1-7 1 1-5z" fill="#342A25"/>
<path transform="translate(533,621)" d="m0 0h3l1 3 3 2v4l7-7 10 1 4-1 5 5-1 7-1 1h-6l-3-3-2 3h-6l-2-4h-2l-2 4-3 1-5-3-3 2h-6v-2l-5-2 1-5 4 2v-6l6 1 2 1z" fill="#131923"/>
<path transform="translate(672,482)" d="m0 0 4 1 4 10v3l2-1 1-10 1-2h6l1 1v14l5-10 2-5 5-1 1 2-5 20-1 2-5 1-3-2-2-6-3-2-1 8-1 1h-6l-3-7-3-11v-5z" fill="#F1F5EE"/>
<path transform="translate(491,622)" d="m0 0 8 4v-4l5 1 4 3 1-3 5 1 1 2v8l-2 2h-17l-5 1-6-1h-7l-2-1v-10l2-2h6v2l6-1z" fill="#2F3B3E"/>
<path transform="translate(1077,606)" d="m0 0h6l3 1 13-1 5 3 3 4 3-6 4-1 2 1-1 7 4 2h4v2l-3 1h-39l-4-1-1-11z" fill="#342925"/>
<path transform="translate(73,530)" d="m0 0h8l5 3 2 4v10l-6 7-7 1-5-2-4-5-1-9 4-7z" fill="#F0F3EB"/>
<path transform="translate(1057,615)" d="m0 0 8 3h58v-2l3 1-3 6-5 1-2 4-10 5-7-1-1-1h-7l-1 1-16-1v-1l20-2h7l-1-2-10-4v2l-16-1-5-1-3 1-10-5z" fill="#111722"/>
<path transform="translate(153,530)" d="m0 0h7l5 3 3 6v7l-3 5-4 3-5 1-7-2-4-7v-8l4-6z" fill="#E9F1EB"/>
<path transform="translate(250,483)" d="m0 0h10l6 5 1 2v8l-3 6-5 3h-8l-5-4-2-4v-8l4-7z" fill="#EDF3EC"/>
<path transform="translate(144,482)" d="m0 0 8 2 4 4 1 3v8l-4 6-3 2h-9l-5-4-2-4v-8l3-5 4-3z" fill="#F0F5F0"/>
<path transform="translate(1160,662)" d="m0 0h6l-2 9-1 4-2 1h-35v-13l7 1 3 2 2-2 11-1 7 3 1 1z" fill="#342925"/>
<path transform="translate(314,530)" d="m0 0h8l6 5 1 2v11l-6 6-7 1-5-2-4-5v-11l5-6z" fill="#EEF4EE"/>
<path transform="translate(253,530)" d="m0 0h8l5 4 1 2v12l-3 5-4 2-9-1-5-6-1-9 3-5z" fill="#E8EFE6"/>
<path transform="translate(356,483)" d="m0 0h7l5 3 3 4v9l-5 7-2 1h-8l-6-5-2-4v-6l4-7z" fill="#67B2B2"/>
<path transform="translate(67,475)" d="m0 0h5l1 1 1 21 2 3 5 1 4-1 1-24 5-1 1 1v24l-5 6-3 1h-9l-5-3-3-4-1-6v-17z" fill="#E7F0EB"/>
<path transform="translate(406,530)" d="m0 0h9l5 5v13l-3 5-5 2-7-1-5-5-1-3v-8l4-6z" fill="#EBF0E7"/>
<path transform="translate(511,483)" d="m0 0h8l5 4 2 6-1 9-4 4-3 1h-7l-5-3-2-3v-11l4-6z" fill="#67B2B2"/>
<path transform="translate(1433,720)" d="m0 0 3 3 1 3v8l-5 2h-12l-9-3-5 2-13 1-17-1-3 1h-20l-2-3 2-4 6 2 20 2 3-9 3-1v8h20l2-6 5-1 3 3v3h8v1h8v-10z" fill="#050C15"/>
<path transform="translate(1274,689)" d="m0 0 9 2 10 2 2 2v7l-1 2h-26l-2-4-4 2h-5v-6l2-3 7-2h8z" fill="#322826"/>
<path transform="translate(640,593)" d="m0 0 6 1 3 3 1 5 3-3 1-4h9l3 4v-3l6-1h9l2 2v8l-6 2-5-1-1 1-7-1-1-2-4 2h-13v-6h-2l-1 6-4-1v-11z" fill="#171B24"/>
<path transform="translate(555,595)" d="m0 0h17l7 1-1 2h-2l1 5h3l3-7 5 1 1 3v7h-14v-2h-2l-2-5-2-1v8h-7l-4 1-5-2-6 1-1 3h-4v-13h3v8l4-2v-4l-2-1v-2h7z" fill="#111722"/>
<path transform="translate(120,646)" d="m0 0 13 1 8 3 3 6-2 6-5 2 1-3h2v-5l-5-1v9l-6-1-4 1-3-1v-3l-3 3h-4v-2h-2l-1-2v-6l1-2h2v-2h2v-2z" fill="#0F1019"/>
<path transform="translate(1124,150)" d="m0 0 9 2 4 6v8l-5 5-3 1h-8l-5-4-2-4v-6l4-5z" fill="#F7F9F6"/>
<path transform="translate(1097,576)" d="m0 0h7l2 4 2-1 10-1 5 3 1 1v7l-7 3-4 2h-6l-2-2-5-2-2-10h-3l-1 7 1 3-5-1-2-5 1-5z" fill="#342A25"/>
<path transform="translate(734,475)" d="m0 0h5l1 1v8l3-1h7l4 3 1 4v16l-4 1-3-3v-15h-7l-1 17-5 1-1-1-1-12v-16z" fill="#EEF2EA"/>
<path transform="translate(304,214)" d="m0 0 6 1 9 5 6 5 7 11 1 4v9l-2 3-1 7-1 4-4-1-1-17-3-12-7-8-10-6-1-4z" fill="#020203"/>
<path transform="translate(1186,490)" d="m0 0 8 1 2 13-1 1-21 1-7-1 1-12 1-1 14-1z" fill="#332925"/>
<path transform="translate(553,483)" d="m0 0 9 1 4 4 1 7-1 1h-14l1 4 6 1 7-1-1 4-5 3h-8l-5-4-2-4v-8l3-5z" fill="#67B2B2"/>
<path transform="translate(186,475)" d="m0 0h5l1 2 1 13 7-7 5-1 1 2-6 8 1 5 5 6v4l-6-1-7-8-1 8-5 1-1-1-1-29z" fill="#EFF5F0"/>
<path transform="translate(1198,687)" d="m0 0 5 1v2h2l-2 4-3 3-3 1-1 3h-2v2h-7l-1-1-2 2h-15l-2-1 1-7 3-2h6l2-4h7l1 3h7l1-4z" fill="#342925"/>
<path transform="translate(613,473)" d="m0 0h6l1 1 1 9 3 3 4 2 7-1 3 2-1 4-10 1-4 2v6l-2 4h-7l-1-13z" fill="#161A23"/>
<path transform="translate(93,530)" d="m0 0h5l1 6v8l2 4 5 1 1-18 4-1 2 1 1 3v18l-4 2h-13l-4-4-1-2v-17z" fill="#ECF1E7"/>
<path transform="translate(98,483)" d="m0 0h16l4 3 1 3v17l-5 1-2-3v-13l-1-2h-6l-1 17-4 1-3-3v-19z" fill="#EBF1EA"/>
<path transform="translate(1e3 500)" d="m0 0 1 2v164l-2 2-1-101 1-66z" fill="#322F2E"/>
<path transform="translate(220,482)" d="m0 0 5 1 5 13 1 1 5-13 2-2h3l1 3-4 13-6 14-4 3h-6v-4l4-2-1-7-5-15z" fill="#EBF1EA"/>
<path transform="translate(417,623)" d="m0 0 12 1 5-1 5 4 2-4h3l2 9v3h-6l-5-1-1 3-6-1-5-2h-3v5l-5-1 1-13z" fill="#1D2026"/>
<path transform="translate(1100,492)" d="m0 0h44l1 3-1 9h-7l-1-6-4 2-2 4h-4v-8h-3v7l-4 1-1-5 1-4-4 1-2 8h-3l-1-9-9 1z" fill="#D7B946"/>
<path transform="translate(1477,472)" d="m0 0h7l3 3 15-1 9-2h19l2 4-15 3-7 1h-8l-2-2h-13l-4 1h-10l-3-1h-8l-3-3 9-1 7-1z" fill="#020A14"/>
<path transform="translate(1128,523)" d="m0 0h6l3 2 1-2h7l1 4h2l2-4h6l2 5 2-4 5 1-1 6h-6l-4 5h-5l-1-4 4-2-1-3-5 6-5 1h-13l-1-1v-8z" fill="#D0B34C"/>
<path transform="translate(273,482)" d="m0 0 4 1 1 18 7-1 1-17 3-1 3 1v23l-4 1h-12l-5-5v-19z" fill="#F6F9F5"/>
<path transform="translate(1127,721)" d="m0 0h28l1 9-2 3h-25l-2-9z" fill="#2C2524"/>
<path transform="translate(229,530)" d="m0 0h7l4 2 1 2 1 9v10l-1 1h-5l-1-4v-9l-2-5h-5l-1 4v11l-2 3h-4l-1-3v-18l1-2z" fill="#E7EFE8"/>
<path transform="translate(335,530)" d="m0 0 4 1 1 14 1 3h6l1-17 4-1 2 1 1 21-4 2h-13l-4-4-1-2v-16z" fill="#F1F5F0"/>
<path transform="translate(183,530)" d="m0 0 7 1 3 4v18l-5 1-1-1-1-15-1-2h-5l-1 3v13l-2 2-5-1v-21l1-1z" fill="#F4F7F2"/>
<path transform="translate(1229,467)" d="m0 0h103l1 2-3 1h-111v-1l10-1z" fill="#322E2D"/>
<path transform="translate(415,483)" d="m0 0h15l4 3 1 3v18h-5l-1-1-1-18h-7l-1 18-5 1-1-1v-22z" fill="#67B2B2"/>
<path transform="translate(337,594)" d="m0 0 2 2v10l-1 1h-7-3-4v-2l-3 1v-9h-2v10h-5l-1-6-1 5h-5v-10l1-1h18l5 1v3h3v-4z" fill="#304548"/>
<path transform="translate(381,530)" d="m0 0h10l4 5v3l-5-1-2-2h-4v3l11 4 1 8-5 4-6 1-7-2-3-5v-2l6 1 3 2 5-1 1-3-11-2-3-3v-5z" fill="#EAF1EA"/>
<path transform="translate(572,483)" d="m0 0h15l5 5 1 16-2 3-5-1-1-18-7 2-1 16-4 1-2-1v-21z" fill="#67B2B2"/>
<path transform="translate(660,621)" d="m0 0h5l2 5 2-2 6 1 2-3h2l2 3v6l-5 5h-4-4l-1-5-4 5-5 1-4-3v-12z" fill="#161A23"/>
<path transform="translate(1352,719)" d="m0 0 16 1 5 3 2 3 3 1v-5h4l-1 7-2 4h-12l-8-1-3-7v-3h-4v9l-4 1 1-10z" fill="#282222"/>
<path transform="translate(430,530)" d="m0 0h8l4 2 1 6-4-1-6-2h-2l1 3 9 3 3 3v6l-4 4h-11l-4-3-1-5h4l3 2 7 1-1-3-11-4-1-1v-7z" fill="#EBF1E8"/>
<path transform="translate(1105,662)" d="m0 0 8 1 2 2v9l-2 2h-12l-3-5v-4h-2l1 5-5 1v2h-5l1-11h7l3 1z" fill="#342925"/>
<path transform="translate(72,621)" d="m0 0 4 1v2h7l4 2v-2l5-1 3 2 1 7-1 3h-2l-1 2-3-1-2-5h-2l-1 4-1 2-4-1-1-3h-4v-8l-4 2h2v9l-5 1v-13z" fill="#151A23"/>
<path transform="translate(169,482)" d="m0 0 8 1 4 5 1 3-3 1-7-4-4 2-1 2v6l2 3 6-1 4-3h2l-1 7-5 3h-8l-5-4-2-3v-9l3-5 3-3z" fill="#EDF3EE"/>
<path transform="translate(1183,654)" d="m0 0 5 5 1 2h-2v2l-2 1-1 4-6 2-2-1-2 4h-5l-2-4h-2v-6h-5l-2 6-5-5 5-2 6-3 11 1 5-5z" fill="#443729"/>
<path transform="translate(290,530)" d="m0 0h7l5 4 1 5-5-1-3-2-6 1-1 8 2 3h6l4-3h3v5l-5 4-8 1-6-4-2-3-1-7 3-7 3-3z" fill="#E9F0E9"/>
<path transform="translate(332,483)" d="m0 0h7l5 3 1 6-2 1-5-4h-6l-2 4 1 6 2 2 5-1 4-4h2v6l-4 4-2 1-9-1-5-6v-10l5-6z" fill="#67B2B2"/>
<path transform="translate(310,622)" d="m0 0h3v3h4v-2h4v3l7-1 1 7-5 4-4-1-2-3-2 4-7-1h-2l-5 2-3-1 1-10 2-3h2l-3 9 4 1v-3h2l1-4z" fill="#2A3234"/>
<path transform="translate(1100,520)" d="m0 0h3l1 13-1 1h-18l-5-2-2-10h17l2 9h2v-10z" fill="#382D26"/>
<path transform="translate(1290,662)" d="m0 0h5v6l-3 3-2 5-6 1-5-2-4-5-3 1v4h-5v-7l1-3 7-1h10l3 2z" fill="#342925"/>
<path transform="translate(147,621)" d="m0 0h9l10 4-1 7-3 3h-7-2l-1 1h-5v-2h-3v-7z" fill="#11131B"/>
<path transform="translate(239,620)" d="m0 0h6l3 5-2 9-3 2-4-1-3-2v-6h-2v7h-2l-1 2v-10l-2 1-1 7h-5v-6l2-3 3-1-3-3 5 1 6-1 3 1z" fill="#1C282F"/>
<path transform="translate(1414,719)" d="m0 0h23l5 5v6l-4 2-3-9-2-2h-2l1 10-4 1h-6v-1l-6-2-2-6z" fill="#111017"/>
<path transform="translate(1232,583)" d="m0 0h4l2 8 7-2 2-5h1v8l1 2h-2l-1 4-6 1-10-2-1-2h-2l-1 2-4 1-2-4 3-7 6 2z" fill="#2F2727"/>
<path transform="translate(228,652)" d="m0 0 11 1 2 2 3-1v-2h3v7l6 1 2 1v2l-5 1h-3l-6 1-2-1v-3l-1 2-4 2h-5l-5-2v-10l2 1v3h2l3 5h2l-1-3-2 1v-5z" fill="#13171F"/>
<path transform="translate(190,620)" d="m0 0h7l3 1-1 14-3-1v-7h-2v7l-5 1-1-6-3 8h-3l-1-5-4 1 1-4 2-5h2v-2z" fill="#222B2F"/>
<path transform="translate(720,477)" d="m0 0h5l4 6-1 5-2 2v8l5 7-1 2h-6l-4-3-1-3-1-12-1-6z" fill="#F2F6F0"/>
<path transform="translate(1078,492)" d="m0 0h7l3 4v-1-3h8l2 1 1 8 7-2-1 5h-5l-2-1h-4l-1-7-1 4 1 4-2 1-4-3-2 2h-8v-11z" fill="#BDA345"/>
<path transform="translate(1220,663)" d="m0 0 6 1 2 3 2-2h4l1 9-1 1h-14l-2-1h-10l-1-5 1-2 7-1 1-2z" fill="#D2B54D"/>
<path transform="translate(1067,635)" d="m0 0 5 1 6 2 1-1 7 1 1 7-3 2-8-1-7 1-9-2-1-1v-6l1-1h6l1 5z" fill="#D0B34A"/>
<path transform="translate(1150,576)" d="m0 0 11 1 4 2v10l-1 2-6 1h-7l-2-2-1-4v-9z" fill="#352A25"/>
<path transform="translate(534,477)" d="m0 0 4 2 3 5-1 5h-2l1 10 3 5-1 3-7-1-2-2-2-16-1-5 3-5z" fill="#67B2B2"/>
<path transform="translate(128,619)" d="m0 0h4v2h7l-1 12-1 3h-3l-1-2v-7h-2v5l-3 4h-5l-2-2v-7l3-6z" fill="#11131B"/>
<path transform="translate(601,477)" d="m0 0h3l2 6 6 2-1 2-6 2v8l1 4 5 2v3l-7 1-4-2-1-2-1-13-1-2 1-9z" fill="#67B2B2"/>
<path transform="translate(523,595)" d="m0 0h13l3 2 1 8-4 2h-14l-2-2v-6z" fill="#10161F"/>
<path transform="translate(1075,577)" d="m0 0h6l3 3v10h-5v2l-10-1-1-9-2-4z" fill="#342925"/>
<path transform="translate(1267,692)" d="m0 0h8v3l7-1-1 5-3 4-10 1-2-4-4 2h-5v-6l5-2 4-1z" fill="#D8BA45"/>
<path transform="translate(460,623)" d="m0 0h12l1 4-1 3 1 4-1 1h-7l-2-2-6 2h-5l-3-5 3-6 4 2 2 5z" fill="#1C1F26"/>
<path transform="translate(1068,549)" d="m0 0 4 1 5 5 2-3h5l2 3v5l-1 1h-13l-1-5h-2v5h-6l-5-5 1-4 4 1 4 4-1-7z" fill="#D3B64B"/>
<path transform="translate(210,621)" d="m0 0 5 1 6 1-1 5-1 3h-2v5h-3v-4h-3l-2 4-5-1-3-1-1-8 3-1h3l3-1z" fill="#0F111A"/>
<path transform="translate(1101,550)" d="m0 0h6l1 3v3l2-3 5 1-1 4-8 3h-7v-2l-3 2h-8v-8l5-1 5 2 4 1z" fill="#D5B749"/>
<path transform="translate(135,595)" d="m0 0h16l3 2 3-2h5l-1 9h2v2h-4v-6l-2-1-2 6-7 1-2-7-3 3v-4l-4 1v6l-2 1-2-1z" fill="#38464A"/>
<path transform="translate(360,530)" d="m0 0h13l1 3-1 2-5 1-2 10v6l-2 2-4-1-1-1v-21z" fill="#E6F0E9"/>
<path transform="translate(200,522)" d="m0 0 4 1 1 29-2 2-5-1v-30z" fill="#E3EEE8"/>
<path transform="translate(1119,519)" d="m0 0h5v3l4-1 14-1 4 1h8l2 2-7 2-1 2h-2l-1-4h-7l-1 3-3-2-6-1v10l5 1v1l-13-1-1-4z" fill="#342925"/>
<path transform="translate(567,595)" d="m0 0 12 1-1 2h-2l1 5h3l3-7 5 1 1 3v7h-14v-2h-2l-2-5-2-1v8h-4v-9z" fill="#29343A"/>
<path transform="translate(118,531)" d="m0 0h14l1 2-1 2-5 1-1 2-1 15-5 1-2-3z" fill="#E6F0EA"/>
<path transform="translate(125,475)" d="m0 0 5 1v31l-6-1v-30z" fill="#F3F8F5"/>
<path transform="translate(651,475)" d="m0 0 5 1v30l-5 1-1-1v-30z" fill="#67B2B2"/>
<path transform="translate(410,763)" d="m0 0 4 1v2l4 1 4-1 1 1 1 9-1 2h-7l-2-2-1-7-3 8-6 1 1-7 3-7z" fill="#D9E8E1"/>
<path transform="translate(1065,520)" d="m0 0 5 1 5 3 2 4-1 5-5 1-10-2-2-1v-6l3-4z" fill="#332925"/>
<path transform="translate(147,652)" d="m0 0h5l1 3 2-2 1 1 1-2h5l1 3-1 6h2l-1 3h-6l-3-3v3l-3 2h-6l1-9z" fill="#1C1E26"/>
<path transform="translate(403,474)" d="m0 0 5 1v31l-4 1-2-2v-23z" fill="#67B2B2"/>
<path transform="translate(297,483)" d="m0 0h14l-1 5h-6l-1 18-5 1-1-1z" fill="#EFF5EF"/>
<path transform="translate(1126,691)" d="m0 0 9 2 1 8-1 2h-16l-2-3 1-6 6-2z" fill="#342925"/>
<path transform="translate(1452,720)" d="m0 0 9 2-3 1h-2v7l1 1 7 1-2 4-1 1h-22v-4l7-2 3 1 2-10-4-1z" fill="#0A0F17"/>
<path transform="translate(1235,573)" d="m0 0 6 4v2l2 1-7 1-2-3-8 1-3 2h-16v7l1 2 4-1 3-4h2v9l-6 1-5-3-3-3v-5l-1-3 3-3h12l4 1 10-5z" fill="#342925"/>
<path transform="translate(348,487)" d="m0 0 3 1-3 9-1-3h-2v7h-1v-5l-8 6-4-1-3-5 1-6 2-2h6l5 4 3-4z" fill="#0A0F18"/>
<path transform="translate(542,481)" d="m0 0 7 1h11l2 2h-9l-5 3-2 4v8l1 4h-2l-2 4-2-1-2-5-1-2v-10h2v-5l-1-2z" fill="#0E1019"/>
<path transform="translate(558,623)" d="m0 0h3l5 5-1 7-1 1h-6l-3-3-2 3h-6l-3-4v-2h2l1-3h3l-1 7 2 1v-11h6z" fill="#151A23"/>
<path transform="translate(640,593)" d="m0 0 6 1 3 3 1 5 3-3 1-4h4l1 2v9h-13v-6h-2l-1 6-4-1v-11z" fill="#202227"/>
<path transform="translate(701,482)" d="m0 0 3 1-5 21-1 2-5 1-3-2-2-7 4-1 5-13z" fill="#EBF1E8"/>
<path transform="translate(170,487)" d="m0 0 5 2 6 2 1 4 2 2v8l-4-1 1-7-8 5-5-1-2-3v-6z" fill="#0C0D16"/>
<path transform="translate(478,623)" d="m0 0h6v2l7-1 1 6-2 4 4 1v2l-9-1h-7l-2-1v-10z" fill="#212327"/>
<path transform="translate(194,595)" d="m0 0h14v2h2l1 7-2 3h-8l-2-7-2 7h-4v-11z" fill="#2B373A"/>
<path transform="translate(1258,722)" d="m0 0h15l2 2v6l-3 3h-7l-7-2-1-2v-6z" fill="#342A25"/>
<path transform="translate(528,483)" d="m0 0 2 2 2 8 1 11 3 2 5 1v1l-9 1h-3l1-5-2-1-6 6-1 3h-4v-4h-5v-1l9-2 3-3 1-9v-4l3-1z" fill="#0D0F17"/>
<path transform="translate(440,594)" d="m0 0h2v2l4-1h7l5 2v5l-3 3-1 2-5-1-1-2 1-2h-2l-2 5-5-1z" fill="#283B42"/>
<path transform="translate(186,651)" d="m0 0h6l1 1-1 9-3 3 1-10h-4l-2 10-5 1v-7h-2v5h-5v-10h8l5 1z" fill="#3D4A46"/>
<path transform="translate(369,622)" d="m0 0h5l2 2v10l-4 3-5-1-2-4-4 1v2h-3l-1-9h3l1 3 2-2 4 1z" fill="#1D2026"/>
<path transform="translate(291,535)" d="m0 0 6 1 2 2 4 1 1-3v6l-1 3-6 3-1 1h-6l-3-4 1-8z" fill="#0D121A"/>
<path transform="translate(1160,662)" d="m0 0h6l-2 9-1 4-5-1v-2l-3 3h-7l-2-3 1-5 4-2 5 1 1 1z" fill="#D4B74A"/>
<path transform="translate(1251,663)" d="m0 0 5 1 1 3 7-1 1 6-1 3-15 1-1-1v-8z" fill="#D3B54B"/>
<path transform="translate(1098,518)" d="m0 0h7l3 3 1 6v5l-2 3h-4v-15l-3 1-1 10h-2l-2-9-11 1v-2l-10 1-5-1 1-2 23 1z" fill="#191B22"/>
<path transform="translate(223,594)" d="m0 0h10l3 1 1 3v7l-5 1 1-6h-2v-2h-2l-2 5-5 4-4-1-1-5 3-5z" fill="#435A57"/>
<path transform="translate(1109,659)" d="m0 0 5 1 2 1 2 6h8v10h-7l-6-1 1-2v-9l-4-2-9 1-4 2-2-1v-2z" fill="#2E2727"/>
<path transform="translate(278,623)" d="m0 0 4 1 3 3 4-3 4 2v9l-3 1-6-3-1 2h-6l-2-2 1-8h2z" fill="#1B1E24"/>
<path transform="translate(570,485)" d="m0 0h1l1 9-1 12 2 1h-3v-2h-4-3l3-5-7 2-6-1-1-5 14-1v-7h3z" fill="#141923"/>
<path transform="translate(1148,722)" d="m0 0h7l1 2v6l-1 2h-7v-7l-2 7h-8l-1-1v-7l1-1z" fill="#D8BB44"/>
<path transform="translate(590,621)" d="m0 0 6 1v3l2 2v6h-2v-5h-4l-1 5-5 2h-3l-2-4 1-8 5-1 3 1z" fill="#3A5354"/>
<path transform="translate(380,766)" d="m0 0h8l3 1 2 5v5l-4 1-1-7-1-1-2 7-4 1v-10h-3l-1 9-4 1-1-1 1-10z" fill="#DCE7D9"/>
<path transform="translate(708,483)" d="m0 0h5l1 5v18l-5 1-2-2v-20z" fill="#E7ECDE"/>
<path transform="translate(99,624)" d="m0 0h4v2l3 1 1-3 6 1 1 10-1 1-7-1-2-1-5 1-1-2v-8z" fill="#17191F"/>
<path transform="translate(1081,577)" d="m0 0h11l-3 3 1 8 4 1-1-6 2-3h3l3 10v1l-14 1-8-1v-1h5l-1-10z" fill="#332925"/>
<path transform="translate(384,623)" d="m0 0h3v2h2l1 5 3-6h3l1 3v7l-3 3h-8l-4-2 1-9z" fill="#303939"/>
<path transform="translate(427,767)" d="m0 0h16l1 2v6l-2 3h-5l-2-2-1-7-2 3-2 6-4-2v-8z" fill="#E4ECDF"/>
<path transform="translate(1108,605)" d="m0 0h12l4 2 2 3v5l-4 2-6-1-2-4 2-5h-6l-1 4-3 3-3-5-1-2z" fill="#352A25"/>
<path transform="translate(462,592)" d="m0 0 4 1 3 3 1 7 2-2 1-5h3v8l-2 3h-13l-1-3 3-5-3-1 1-5z" fill="#384A4C"/>
<path transform="translate(96,763)" d="m0 0 7 1 5 3 1 4-3 5-1 1h-8l-1-1-1-12z" fill="#2C2423"/>
<path transform="translate(387,593)" d="m0 0h6l3 9-2 4-2-1v-7h-2v6l-5 6-6-1v-3l4-1 2-4h-4l-1-4 5-1z" fill="#32464B"/>
<path transform="translate(1128,577)" d="m0 0h10l6 3 1 1v8l-1 1h-5l-2-5v-5l-3 1 1 7-1 2-4-1-1-7-2-4z" fill="#D2B54D"/>
<path transform="translate(1112,606)" d="m0 0 4 1-1 7 2 3-1 1h-17v-8l1-2 4 1 3 4 3-6z" fill="#D2B54C"/>
<path transform="translate(209,531)" d="m0 0h6l1 5v16l-2 2-5-1z" fill="#EEF3ED"/>
<path transform="translate(1064,467)" d="m0 0h47v1l31 1v1h-81l-2-2z" fill="#322E2D"/>
<path transform="translate(490,594)" d="m0 0h6l3 2v7l-2 3h-2v-8h-2l-2 6-3 3h-8v-12l5 1 1 6-1 2 4-4z" fill="#436668"/>
<path transform="translate(710,473)" d="m0 0 3 1 1 4v4l4-1 1 8v12l-4-1-1 2-1-14v-4l-5-1-1-7z" fill="#0D121A"/>
<path transform="translate(72,621)" d="m0 0 4 1v2h7l-3 2v3l3-1 1 4-5 1-4 1-1-1v-8l-4 2h2v9l-5 1v-13z" fill="#252C2F"/>
<path transform="translate(67,651)" d="m0 0h2l1 10h3l1-7 3-2 5 1 1 3-1 8-15-1-1-3v-8z" fill="#222328"/>
<path transform="translate(298,594)" d="m0 0h2v13l-5 1-7-1 1-11 4-1z" fill="#1A1D25"/>
<path transform="translate(469,489)" d="m0 0 7 1 1 16h-2l-1-8-4-2v7l-3 3h-3v-14z" fill="#080811"/>
<path transform="translate(413,595)" d="m0 0 3 1-2 7h4l1-3-1-3 7-1h4l1 1v11l-2 2h-5l1-9-5 5h-6l-1-1v-7z" fill="#242428"/>
<path transform="translate(105,595)" d="m0 0h6l1 4 4-4 6 1-1 4-6 3-4 3h-6l-1-1v-9z" fill="#2D474C"/>
<path transform="translate(384,534)" d="m0 0 5 1 6 3 1-2v2h3l2 11 2 4-1 1h-11l4-4v-8l-11-3-1-4z" fill="#0B0D15"/>
<path transform="translate(1144,663)" d="m0 0 9 1-2 2-4 2 1 6 7 1 1-3h2l3 4h-15l-1-4-3 3h-6v-6l4-4z" fill="#342925"/>
<path transform="translate(1299,665)" d="m0 0h10l4 2 1 5-5 1-2-6-1 2 2 5-1 1-9 1-2-1 1-8z" fill="#D2B54D"/>
<path transform="translate(1067,663)" d="m0 0 6 1 3 4v7h-4l-1-7-3-2v7l-1 2-6-1-3-3 2-5h3v-2z" fill="#BAA044"/>
<path transform="translate(210,521)" d="m0 0 5 1 1 4v7l-1-2h-6v12h-1l-2-8-1 11h-1v-23l-2-1h3v9l1-5 1-3z" fill="#191B20"/>
<path transform="translate(315,535)" d="m0 0h5l3 4 1 6-3 4h-6l-3-4 1-8z" fill="#0D121B"/>
<path transform="translate(69,593)" d="m0 0h5l4 5-1 6-2 2h-7l-2-2v-9z" fill="#8BC4C3"/>
<path transform="translate(1198,687)" d="m0 0 5 1v2h2l-2 4-3 3-3 1-1 3-2 1h-6l-1-4 1-3 6-2 1-4z" fill="#5A4B2E"/>
<path transform="translate(1330,663)" d="m0 0h10l3 3v8l-1 1h-5l-2-10-2-1v8l-4 4h-4l1-3h2l1-9z" fill="#D5B748"/>
<path transform="translate(417,623)" d="m0 0 13 1v3l-4 1 1 6h-7v5l-5-1 1-13z" fill="#181C24"/>
<path transform="translate(1219,694)" d="m0 0h14l-1 5-3 4-10 1-3-3 2-6z" fill="#D2B54C"/>
<path transform="translate(1066,580)" d="m0 0 3 2v9h18l2 1v2l-14 1-10-1-8-4 1-2h7z" fill="#111722"/>
<path transform="translate(414,481)" d="m0 0 16 1v1l-12 1h-3l-1 21-4-1-1 3-2-1 1-23h3z" fill="#141923"/>
<path transform="translate(1022,749)" d="m0 0h13l2 5-1 5h-11l-2-3z" fill="#322F2E"/>
<path transform="translate(81,652)" d="m0 0h14v11l-1 1h-7l-2-7-2 5h-1v-7z" fill="#1B1E25"/>
<path transform="translate(317,623)" d="m0 0h4v3l7-1 1 7-5 4-4-1-2-3v-3l-2 1-1 4h-2l1-8h3z" fill="#384B4B"/>
<path transform="translate(144,487)" d="m0 0 4 1 3 4v6l-4 4-5-1-2-3 1-9z" fill="#0A1018"/>
<path transform="translate(877,175)" d="m0 0 4 1 2 6h-2l-1 4-1 76h-1z" fill="#191C24"/>
<path transform="translate(1229,722)" d="m0 0 5 1 2 4 1-4h6l1 1v6l-8 1-1 1h-8l-1-3z" fill="#D3B64A"/>
<path transform="translate(1147,692)" d="m0 0 6 1v2l6 3 1-4 5 1-3 5h-2l-1 3h-6v-5l-2 1-2 4h-3v-9z" fill="#D7B946"/>
<path transform="translate(1060,607)" d="m0 0h5v9l3-1 3-7 3-1-1 11-2 1-10-1-4-3 1-6z" fill="#342925"/>
<path transform="translate(358,487)" d="m0 0 6 2 1 2v7l-4 4-5-1-2-5 1-6z" fill="#0A0D15"/>
<path transform="translate(706,481)" d="m0 0 2 4-1 17-1 3-5-1-2-1 2-10 2-11z" fill="#0B0D15"/>
<path transform="translate(606,625)" d="m0 0 6 1v2l5-2 1 9h-6l-1 1h-8v-7l3 1z" fill="#222B31"/>
<path transform="translate(1203,519)" d="m0 0 10 2 1 1v8l-2 2h-5l-3-7h-5l-1-4z" fill="#5D4D2D"/>
<path transform="translate(254,487)" d="m0 0 5 2 2 4-1 6-3 3-5-1-2-3v-6z" fill="#131822"/>
<path transform="translate(677,622)" d="m0 0h2l2 3v6l-5 5-3-1h-4v-11l6 1z" fill="#3C5657"/>
<path transform="translate(308,595)" d="m0 0h7l4 1v11h-5l-1-6-1 5h-5v-10z" fill="#40555B"/>
<path transform="translate(74,535)" d="m0 0h5l3 5v6l-3 3h-5l-3-5 1-6z" fill="#080E17"/>
<path transform="translate(191,649)" d="m0 0h8l4 1v2h3l3 7v4l-3-1-2-7-3-1 1 8-5 2v-8h-2l-1 2v-7l-3-1z" fill="#2C4449"/>
<path transform="translate(614,484)" d="m0 0h5l1 22h-6l-1-13v-8z" fill="#67B2B2"/>
<path transform="translate(509,623)" d="m0 0 5 1 1 2v8l-2 2h-11l2-1v-11l4 2z" fill="#293C42"/>
<path transform="translate(250,592)" d="m0 0 3 1-2 2v2h2l-2 7-4 2h-6l-2-3 1-6 2-1h6z" fill="#2D4045"/>
<path transform="translate(154,535)" d="m0 0h5l3 7-2 6-1 1h-5l-3-4v-6z" fill="#0A0E16"/>
<path transform="translate(1146,691)" d="m0 0 22 1 8 1v1l-7 2-2 7 2 1-5-1-2-4 2-4h-4l-1 3-6-3v-2l-6-1-1 11h-1v-11z" fill="#342925"/>
<path transform="translate(639,625)" d="m0 0h2v4h2l1-4 3 1 1 8-3 6h-5l-2-2-2-8z" fill="#2F454A"/>
<path transform="translate(260,595)" d="m0 0h9l1 1v8l-4 5-2 1h-7v-4l8-1v-6h-2l-2 6h-2v-9z" fill="#202227"/>
<path transform="translate(1134,580)" d="m0 0h3l2 9h5l1-8h1l1 5h2l3 8-4 1-4-3h-5l-1 1h-5l-4-3v-8h1l1 7 3 1-1-9z" fill="#332925"/>
<path transform="translate(613,594)" d="m0 0 3 2h-2l1 9-3 1-1-7-4 6h-3l-1-6h-3v6h-4v-10l8 1 1 2 6-1v-2z" fill="#557A74"/>
<path transform="translate(513,487)" d="m0 0 5 1 2 4-1 8-5 2-4-3v-9z" fill="#0D0E17"/>
<path transform="translate(383,488)" d="m0 0h6l2 2v9l-2 2h-6l-2-2v-8z" fill="#0C0F18"/>
<path transform="translate(253,621)" d="m0 0h7l4 2 1 10-3 1-2-7h-2v8l-4 1z" fill="#15161D"/>
<path transform="translate(90,516)" d="m0 0 14 2h2l-1 3-2 1h-19l-4 1-3-4 2-2h8z" fill="#111722"/>
<path transform="translate(216,764)" d="m0 0h5v12l-4 1v-9h-1l-1 9h-5l-1-1v-8l2-3z" fill="#1B1A20"/>
<path transform="translate(485,488)" d="m0 0h6l3 3v7l-3 3h-5l-2-2v-10z" fill="#0D1019"/>
<path transform="translate(448,488)" d="m0 0h6l2 2v9l-2 2-7-1-1-2v-7z" fill="#0B0C15"/>
<path transform="translate(1426,719)" d="m0 0h11l5 5v6l-4 2-3-9-2-2h-2l1 10h-4z" fill="#DEC03D"/>
<path transform="translate(1070,694)" d="m0 0 5 1 1 4 2-1 1-3 5-1 2 1v7l-5 2-8-1-3-6z" fill="#D3B64A"/>
<path transform="translate(730,489)" d="m0 0h2l2 5 1 13h-5l-2-5-3-4v-8l4 1z" fill="#0E131B"/>
<path transform="translate(535,623)" d="m0 0 5 3v4l7-7h4l1 5-1 7-3-1 2-7-3 1-1 2h-2l-1 3-3 2-5-1-1-3 1-4z" fill="#424A45"/>
<path transform="translate(1408,719)" d="m0 0h4l-1 6h-4l-2 6-7 1-2-2 1-7 3-1 7 2z" fill="#D2B54D"/>
<path transform="translate(1103,637)" d="m0 0 11 1 1 3-2 4-5-1v-3h-3l-1 7-5 1-1-3 3-8z" fill="#DBBD41"/>
<path transform="translate(397,477)" d="m0 0h1v8h4v20l-5 1z" fill="#111722"/>
<path transform="translate(228,535)" d="m0 0h5l2 2 1 4v9h-3l-1-4-3-1-1 6-2-4v-7z" fill="#0D121A"/>
<path transform="translate(459,621)" d="m0 0h4l-1 3-1 1-2 7-3-2v-4l-4-1-2 6 2 3 8-1 1 3-10 1-3-5-2 3-2-11 4 2 3-3 7 1z" fill="#111722"/>
<path transform="translate(355,766)" d="m0 0 5 1 2 3-1 5-2 3-7-1-1-1v-7l1-2z" fill="#D6DCCC"/>
<path transform="translate(1109,718)" d="m0 0 4 1 1 4-1 1h-5l-2 6-8-1v-7l9-2z" fill="#665531"/>
<path transform="translate(691,622)" d="m0 0h3l1 2v8h-2v2h-9l-1-4 2-7 1 3 5-1z" fill="#1B1D26"/>
<path transform="translate(1026,719)" d="m0 0 7 1 1 9-1 2h-7l-2-5 1-6z" fill="#453F30"/>
<path transform="translate(1090,608)" d="m0 0 6 2 2 8h-11l-2-1 1-7z" fill="#D0B34C"/>
<path transform="translate(1025,520)" d="m0 0h8v13h-8z" fill="#675833"/>
<path transform="translate(431,623)" d="m0 0 4 1 4 3 2-4h3l2 9v3h-6l-4-1-1-7-5-2z" fill="#131822"/>
<path transform="translate(523,595)" d="m0 0h6l1 9-4 3-5-1-1-1v-6z" fill="#1E2026"/>
<path transform="translate(240,765)" d="m0 0h5l4 5-2 5-3 2-5-1-1-5 1-5z" fill="#272223"/>
<path transform="translate(253,592)" d="m0 0 2 1 2 5 1 6h3l2-6 2-2 1 9-1 1h-8v2l-3-1-2-4 1-6h-2l-1-3z" fill="#1E2128"/>
<path transform="translate(260,738)" d="m0 0h10l8 2 3 3-1 3h-2v-2l-16-1-6-1 1-2h3z" fill="#0E0D14"/>
<path transform="translate(1025,549)" d="m0 0h8v10l-1 2h-7l-1-5z" fill="#342A26"/>
<path transform="translate(409,534)" d="m0 0 4 1v4l-5 2-1 3 8-3 1 1v5l-5 3-5-2-1-7 2-6z" fill="#121721"/>
<path transform="translate(644,250)" d="m0 0h1l-1 12 19 1v1h-17l-12-3-2-1 10-9z" fill="#151923"/>
<path transform="translate(130,479)" d="m0 0h1l1 6 7-1-4 7v10l-3 4-2 1z" fill="#0A0F18"/>
<path transform="translate(131,765)" d="m0 0h6l1 1v11l-5 1-3-3v-9z" fill="#151318"/>
<path transform="translate(460,623)" d="m0 0h2l1 8-1 3-10 1-3-5 3-6 4 2 2 5z" fill="#3C3E39"/>
<path transform="translate(1232,583)" d="m0 0h4l2 8 7-2 2-5h1v8l1 2-12-2-5-2-6 2h-3l-1-3 1-2 6 2z" fill="#342925"/>
<path transform="translate(597,479)" d="m0 0 1 3v6l1 2 1 15-2-1-1-3-5 2v-11l4-1-2-3 1-4z" fill="#171B23"/>
<path transform="translate(1238,694)" d="m0 0h6l1 1v8h-12l2-7z" fill="#D9BB43"/>
<path transform="translate(1239,665)" d="m0 0 6 1 2 2-1 7-8 1-1-1v-8z" fill="#D2B54D"/>
<path transform="translate(369,595)" d="m0 0h5l3 5-1 4-4 4-5-1-1-2 3-9z" fill="#2C4146"/>
<path transform="translate(1178,494)" d="m0 0 7 2 2 7v1h-12l1-7z" fill="#D2B54D"/>
<path transform="translate(1137,183)" d="m0 0h2l1 5-1 5-1 69h-1z" fill="#111722"/>
<path transform="translate(106,531)" d="m0 0h1v16l-1 2h-5l-3-5v-8h1l1 5 2-3 3-1z" fill="#0F1018"/>
<path transform="translate(285,484)" d="m0 0h1v16l-3 2-5-1 1-5v-8l4-1 1 1z" fill="#111117"/>
<path transform="translate(1365,722)" d="m0 0 4 4 2 5 4 1-1-6 4 1v-5h4l-1 7-2 4h-12l-2-1 1-5z" fill="#272223"/>
<path transform="translate(168,624)" d="m0 0h7v10l-4 4h-5v-4l4-1z" fill="#1D2026"/>
<path transform="translate(273,596)" d="m0 0h4v2l3 1-1 6 3-3 1-6 2 1v10h-12l1-7z" fill="#426465"/>
<path transform="translate(1267,692)" d="m0 0h7v1l-5 1 2 1-1 4-8 3h-5v-6l5-2 4-1z" fill="#BDA346"/>
<path transform="translate(1288,694)" d="m0 0h6l1 1v7l-1 1h-10l1-7z" fill="#D5B749"/>
<path transform="translate(206,624)" d="m0 0h4l1 6-2 6-5-1-3-1-1-8 3-1h3z" fill="#3C595B"/>
<path transform="translate(670,597)" d="m0 0 2 2 3-1 2 6 2-1-1-6h3v9l-4 1-5-1-1 1h-5l-1-4z" fill="#456564"/>
<path transform="translate(1327,580)" d="m0 0h7v9l-1 1h-7l-2-2 1-5z" fill="#D8BA44"/>
<path transform="translate(335,529)" d="m0 0 5 1v11h6l1-9h1v16l-1 1h-6l-2-4-1-14z" fill="#19181D"/>
<path transform="translate(616,596)" d="m0 0h5v2h3l1 6 1-1h5l-3-5v-2l4 2 1 4-3 5-10-1-1-4v-3l-3-1z" fill="#43686B"/>
<path transform="translate(1353,729)" d="m0 0 6 2 19 2-4 3h-21l-2-3z" fill="#050C15"/>
<path transform="translate(583,596)" d="m0 0 5 1 1 3v7h-14l4-2z" fill="#1E2026"/>
<path transform="translate(1117,578)" d="m0 0 5 2 2 2v7l-9 1v-11z" fill="#342A25"/>
<path transform="translate(1190,722)" d="m0 0h6l1 8-2 2h-7l-1-1v-6z" fill="#DBBD42"/>
<path transform="translate(621,622)" d="m0 0 6 1h6l-1 6-2 1-2 4-3-1-1-5-2 5-1-4z" fill="#232328"/>
<path transform="translate(337,594)" d="m0 0 2 2v10l-1 1h-7l-4-2 3-3 1-3h3v-4z" fill="#1F2127"/>
<path transform="translate(116,767)" d="m0 0h5l-1 11-3 3-4-1 1-10z" fill="#141218"/>
<path transform="translate(1088,664)" d="m0 0h7l3 3h-2l1 5-5 1v2h-5z" fill="#342925"/>
<path transform="translate(113,651)" d="m0 0h5l3 4v5l-2 3h-4v-2h-2l-1-2v-6z" fill="#3F585D"/>
<path transform="translate(123,621)" d="m0 0m-12 1 10 1 2-1-3 9-2 3-4-1-1-8h-2z" fill="#070811"/>
<path transform="translate(1319,694)" d="m0 0 7 1v8l-7 1-3-1 1-7z" fill="#D4B64A"/>
<path transform="translate(104,647)" d="m0 0h9l2 4h-2v10l-2 1-1-5 1-3-12-2 2-4z" fill="#070811"/>
<path transform="translate(122,624)" d="m0 0h5l2 2v8l-1 2h-5l-2-2v-7z" fill="#364D50"/>
<path transform="translate(217,531)" d="m0 0 2 1 1 3v15l-1 4-2-1-1-1-1-16z" fill="#050A13"/>
<path transform="translate(148,624)" d="m0 0h4l2 4-1 5-1 3h-5l-2-3 1-7z" fill="#4D6967"/>
<path transform="translate(547,596)" d="m0 0h4l2 4v5l-6 2-1 3h-4v-13h3v8l4-2v-4l-2-1z" fill="#444E47"/>
<path transform="translate(1179,523)" d="m0 0h6v10h-7l-2-2 1-7z" fill="#D4B64A"/>
<path transform="translate(1066,521)" d="m0 0 6 1 5 5v5l-4 1-1-1v-6l-4-1v7l-4-1z" fill="#DCBF42"/>
<path transform="translate(1188,492)" d="m0 0h6l2 12h-8l-1-3z" fill="#CAAD48"/>
<path transform="translate(1188,580)" d="m0 0h6l1 1v8l-2 2h-5l-1-1v-8z" fill="#D5B748"/>
<path transform="translate(348,595)" d="m0 0h2l-1 8 4 1v-2l4 1-1-6h2l2 5v6l-5-2-1 1h-6l-1-1v-10z" fill="#4E7D7F"/>
<path transform="translate(158,595)" d="m0 0h4l-1 9h2v2h-4v-6l-2-1-2 6-7 1-1-4 1-5h3l-1 4-1 2h5l2-6z" fill="#4B7274"/>
<path transform="translate(640,593)" d="m0 0 6 1 2 4 1 7h-2v-5h-3l-1 6-4-1v-11z" fill="#3E5A5A"/>
<path transform="translate(1187,523)" d="m0 0h7l2 7v2l-2 1h-6l-2-6z" fill="#D2B54D"/>
<path transform="translate(224,653)" d="m0 0 2 1v3h2l3 5h2v-2l3-3v-3h2l1 5-1 4-4 2h-5l-5-2z" fill="#4D6766"/>
<path transform="translate(186,651)" d="m0 0h6l1 1-1 9-3 3 1-10h-4l-1 4-3 6h-2v-5l3-5h2z" fill="#4C6662"/>
<path transform="translate(1024,606)" d="m0 0h8v2l-5 1 1 6 3 1v-6l2-1v9l-7 1-2-1z" fill="#6F6138"/>
<path transform="translate(303,536)" d="m0 0h1v6l-1 3-6 3h-6l-1-2h2l2-4 3-3h6z" fill="#0C0D15"/>
<path transform="translate(1158,580)" d="m0 0h6l1 1v8l-1 1h-7v-9z" fill="#D2B54D"/>
<path transform="translate(1344,720)" d="m0 0 4 1v6l-4 3 1 3-5-2-4-2v-3l7-3z" fill="#030A14"/>
<path transform="translate(1092,635)" d="m0 0 5 1v5l-3 6-5-1v-8z" fill="#D2B54D"/>
<path transform="translate(1070,519)" d="m0 0 23 1 5-1 1 3v9h-2l-2-9-11 1v-2l-10 1-5-1z" fill="#111722"/>
<path transform="translate(1388,722)" d="m0 0h5l2 5-1 4-7 1-1-1v-8z" fill="#D3B64A"/>
<path transform="translate(1287,720)" d="m0 0 5 1 2 2v8l-6 1-1-1-1-9z" fill="#DBBD42"/>
<path transform="translate(1025,691)" d="m0 0h7l1 6v5h-2v-7h-2l-1 7h-4v-10z" fill="#39332C"/>
<path transform="translate(146,653)" d="m0 0h5v7h3v4l-3 2h-6l1-9z" fill="#607B79"/>
<path transform="translate(142,648)" d="m0 0h6l6 2h10l2 4-9-2-1 3h-2l-2 1v-4l-6 1-5-2z" fill="#070811"/>
<path transform="translate(184,595)" d="m0 0h5l1 3v7l-1 1h-6l-1-1 1-7z" fill="#191C24"/>
<path transform="translate(1109,580)" d="m0 0h6l1 9-2 1h-6l-1-5z" fill="#D2B54D"/>
<path transform="translate(538,489)" d="m0 0 2 1-1 4h4l2-2 2 11h-2l-2 4-2-1-2-5-1-2z" fill="#141923"/>
<path transform="translate(1198,722)" d="m0 0h5v2l3 1 1 4-4 4-5-1z" fill="#CDB049"/>
<path transform="translate(1171,694)" d="m0 0 6 1-2 8-6 1-2-1 1-7z" fill="#D5B749"/>
<path transform="translate(1130,694)" d="m0 0 5 1 1 6-1 2h-8l-1-4 2-4z" fill="#D2B54D"/>
<path transform="translate(1072,605)" d="m0 0h9l-4 3v10l4 1h-10l2-1v-9l1-2-3 2-2 4v-5z" fill="#312825"/>
<path transform="translate(1102,547)" d="m0 0 5 2v1l-7 1-2 1-7-1-6 1-3-1h-9l-4-2 6-1h24z" fill="#302827"/>
<path transform="translate(1078,522)" d="m0 0h6l3 5-1 6h-5l-3-8z" fill="#C8AC46"/>
<path transform="translate(400,763)" d="m0 0 5 2-1 6-3 6h-3v-13z" fill="#E4EDE4"/>
<path transform="translate(1148,722)" d="m0 0h7l1 2v6l-1 2h-7v-7z" fill="#D2B54D"/>
<path transform="translate(621,501)" d="m0 0 3 1 2 3 4 2-1 5-5 2h-4l1-5z" fill="#080912"/>
<path transform="translate(178,766)" d="m0 0 5 1-1 10-1 1h-6l2-11z" fill="#110E15"/>
<path transform="translate(1308,722)" d="m0 0h5l1 1v8l-1 1-7-1 1-8z" fill="#D2B54D"/>
<path transform="translate(503,596)" d="m0 0 4 1v3h3l1-2h3l-3 9-4 2v-7l-3 1-1-1z" fill="#2B393D"/>
<path transform="translate(625,595)" d="m0 0h6l3 4v6l-1 2h-2l1-6-2-4-2-1 3 5v2l-7 2v-7l-3-1z" fill="#1B1E26"/>
<path transform="translate(1169,519)" d="m0 0 5 1-2 4-5 3h-2l-1-2h-4l-2 4h-1l-1-6 11-3z" fill="#58492D"/>
<path transform="translate(420,766)" d="m0 0 3 1 1 9-1 2h-7l1-10z" fill="#C5CFB7"/>
<path transform="translate(1269,722)" d="m0 0 5 1 1 1v6l-2 2h-7l2-9z" fill="#DCBE40"/>
<path transform="translate(1079,722)" d="m0 0h5l1 1v8l-1 1h-5l-2-2 1-7z" fill="#D2B54D"/>
<path transform="translate(567,623)" d="m0 0h6v13h-4l-2-5z" fill="#3A5355"/>
<path transform="translate(1089,523)" d="m0 0h6l1 1v8l-1 1h-5l-2-6z" fill="#D2B54D"/>
<path transform="translate(604,493)" d="m0 0 3 3 3 2 2-5 2 3v10l-7 1 4-1v-3l-5-1-2-5z" fill="#1A1D25"/>
<path transform="translate(1102,495)" d="m0 0h7l1 2v7l-3 1-2-2 1-4-4 2h-3v-5z" fill="#222023"/>
<path transform="translate(1077,606)" d="m0 0 5 1 1 1v9l-1 1h-5l-1-11z" fill="#D2B54D"/>
<path transform="translate(441,502)" d="m0 0 6 3h10l-1 4-6 2-9-2 1-3z" fill="#0F131B"/>
<path transform="translate(190,766)" d="m0 0 5 2v10h-6l-1-10z" fill="#18181E"/>
<path transform="translate(147,765)" d="m0 0h7l1 2-2 10h-4l-2-10z" fill="#1C1C21"/>
<path transform="translate(1059,719)" d="m0 0 5 2v10l-5 1-1-2v-10z" fill="#D9BC43"/>
<path transform="translate(1360,694)" d="m0 0 4 1v7l-1 1h-8l1-7z" fill="#FBD91A"/>
<path transform="translate(1070,663)" d="m0 0h10l1 12-5 2-1-9-2-3z" fill="#222023"/>
<path transform="translate(572,595)" d="m0 0h16l2 4v7h-1l-2-9h-4l-3 7-4-1-1-3 3-3-6-1z" fill="#1C1E26"/>
<path transform="translate(361,594)" d="m0 0 5 1v7l-1 3h-2l-2-7v8l-2-4-1-5h-2l-1 4v-6z" fill="#282F34"/>
<path transform="translate(1295,580)" d="m0 0h1v6l1 1v-7h1l1 10 3 2h-15l-1-1v-5l2-1 1 5 6 1-2-3v-7z" fill="#352A25"/>
<path transform="translate(424,535)" d="m0 0h1l1 6 11 4 1 4h-7l-4-3h-3z" fill="#1A1D25"/>
<path transform="translate(1456,722)" d="m0 0 6 2 1 1v6l-1 1h-5l-2-2v-7z" fill="#D2B54D"/>
<path transform="translate(1178,719)" d="m0 0h7l1 2-2 10-4 1-2-9z" fill="#D2B54D"/>
<path transform="translate(1127,663)" d="m0 0 6 1 1 3-3 8h-4z" fill="#D6B947"/>
<path transform="translate(632,625)" d="m0 0h7l-2 5v3l2 2-3 1-5-5-2 5-4-2 3-1 2-4h2z" fill="#181C24"/>
<path transform="translate(306,620)" d="m0 0 6 1-2 1-2 5-1 3h-2v3l-4-1 1-5 2-4-2-1z" fill="#181B24"/>
<path transform="translate(200,620)" d="m0 0 6 1v2l3 1-2 1v6h-1v-5h-5v8l3 1-7 1 1-6z" fill="#070A12"/>
<path transform="translate(1158,492)" d="m0 0 4 2 2 2v7l-7 1v-11z" fill="#D4B749"/>
<path transform="translate(608,488)" d="m0 0 5 1-1 8-3 2-3-1-2-6z" fill="#060812"/>
<path transform="translate(341,764)" d="m0 0h4l1 11 4 1v2h-8l-1-1z" fill="#EEF3ED"/>
<path transform="translate(1355,721)" d="m0 0h7v3l-1 4h4l1-3 1 4-2 3h-6l-4-10z" fill="#D2B54C"/>
<path transform="translate(1060,694)" d="m0 0 7 1 1 7-3 1-6-2-1-5z" fill="#D5B848"/>
<path transform="translate(96,652)" d="m0 0h11l3 9v2h-4l1-7h-4l-3 6h-1v-8h-3z" fill="#4A7175"/>
<path transform="translate(99,624)" d="m0 0h4v2h2l1 3-2 5-5 1-1-2v-8z" fill="#2F464B"/>
<path transform="translate(381,596)" d="m0 0 6 1 1 7-4 5h-5v-3l4-1 2-4h-4l-1-4z" fill="#384D50"/>
<path transform="translate(1287,579)" d="m0 0h5l1 1 1 8 1 3-6-1-3-10z" fill="#D2B54C"/>
<path transform="translate(166,492)" d="m0 0 6 1 3 5-2 4-5-1-2-3z" fill="#090F17"/>
<path transform="translate(1320,719)" d="m0 0h5l-1 4-2 3-2 6-3-1v-10z" fill="#D2B54D"/>
<path transform="translate(103,655)" d="m0 0 4 1-1 7h3v2h-7l-4-1v-7l2 4z" fill="#161922"/>
<path transform="translate(655,623)" d="m0 0h3l-1 10h4l1-10 3 1-2 10-6 1-3-3v-8z" fill="#4F6258"/>
<path transform="translate(127,597)" d="m0 0 4 2v7l-3-1 1-4h-2l-2 4-3 2h-5l1-4 5-2z" fill="#4C7575"/>
<path transform="translate(69,595)" d="m0 0h5l2 2-1 5-1 2-6 1v-9z" fill="#101319"/>
<path transform="translate(384,534)" d="m0 0 5 1 6 3 1-2v2h3v6l-1-4h-3v2l-11-3-1-4z" fill="#1E1F25"/>
<path transform="translate(292,483)" d="m0 0h5v14l-3 1-1 8h-1z" fill="#131319"/>
<path transform="translate(1091,719)" d="m0 0h5l-1 4-2 2-2 7-3-1v-10z" fill="#D2B54D"/>
<path transform="translate(242,624)" d="m0 0 4 2 1 1-1 7-3 2-4-1-2-1v-7l1-2h2l1 7 2 1v-6z" fill="#405151"/>
<path transform="translate(541,595)" d="m0 0h10l-4 1v2l3 1-1 5-4 1v-8l-2 1-1 10h-1l-1-12z" fill="#0E141F"/>
<path transform="translate(480,595)" d="m0 0 5 1 1 10 2 1h-8z" fill="#324043"/>
<path transform="translate(376,540)" d="m0 0 6 3 8 2-1 4-5 1-8-4z" fill="#161920"/>
<path transform="translate(182,623)" d="m0 0h2l2 3-1 8-3 1-1-3-4 1 1-4 2-5z" fill="#2F3432"/>
<path transform="translate(463,594)" d="m0 0 4 2 1 6-1 2h-3v2l-3 1-1-3 3-5-3-1 1-3z" fill="#465F5C"/>
<path transform="translate(89,595)" d="m0 0h7l1 6-1-3h-3l1 9h-5z" fill="#3B585C"/>
<path transform="translate(1307,579)" d="m0 0h6l1 12-4-1-3-4z" fill="#D2B54D"/>
<path transform="translate(1127,721)" d="m0 0h6l2 1-1 7 1 3h-5l-4-10z" fill="#D4B64A"/>
<path transform="translate(1111,665)" d="m0 0 4 2v7l-1 1h-7l2-9z" fill="#E3C437"/>
<path transform="translate(1338,663)" d="m0 0 4 1 1 2v8l-1 1h-5l-1-9 2-1z" fill="#D2B54D"/>
<path transform="translate(594,623)" d="m0 0 4 1 2 3v7l-2 2-5-1-3-2 2-5h4v5h2l-2-7z" fill="#1A1C24"/>
<path transform="translate(205,597)" d="m0 0h5l1 7-2 3h-8v-6h2l2 2h2z" fill="#3D5C5F"/>
<path transform="translate(400,593)" d="m0 0h4l1 2v12h-4l-1-6z" fill="#212328"/>
<path transform="translate(1179,578)" d="m0 0h4l1 2v10l-5 1z" fill="#D2B54D"/>
<path transform="translate(1318,576)" d="m0 0 4 2v7l1 5-1 1h-5v-14z" fill="#D4B64A"/>
<path transform="translate(367,766)" d="m0 0 3 2v9l-1 1h-5v-7l1-4z" fill="#DFE7D8"/>
<path transform="translate(200,767)" d="m0 0h5v11h-5l-1-10z" fill="#121016"/>
<path transform="translate(1365,720)" d="m0 0 6 1 3 4 1 7-5-1-4-8z" fill="#D2B54D"/>
<path transform="translate(1180,691)" d="m0 0h5l-1 11-4 1-1-1v-10z" fill="#D2B54D"/>
<path transform="translate(245,654)" d="m0 0h2v5l6 1 2 1v2l-5 1h-3-5z" fill="#222B32"/>
<path transform="translate(157,626)" d="m0 0h4l2 4 2-4 1 4-4 5-6-1z" fill="#47564E"/>
<path transform="translate(345,624)" d="m0 0 6 1 1 2v7l-3 1-1-7-2-1 1 8h-4l1-10z" fill="#537874"/>
<path transform="translate(430,483)" d="m0 0h4l2 5 4 2 1 12-4-3-1 8h-1l-1-18-2-4z" fill="#161A23"/>
<path transform="translate(1298,578)" d="m0 0h3l3 9v4h-5l-1-1z" fill="#D7B946"/>
<path transform="translate(1095,580)" d="m0 0h3l3 10v1h-6l-2-4 1-5z" fill="#2D2524"/>
<path transform="translate(1095,494)" d="m0 0 4 2v5l7-2-1 5h-5l-2-1h-4z" fill="#DBBD42"/>
<path transform="translate(157,203)" d="m0 0 3 1-1 23-1-3h-2v-15z"/>
<path transform="translate(96,763)" d="m0 0 7 1 1 2-3 1-2 9h-3l-1-12z" fill="#1A191E"/>
<path transform="translate(1142,664)" d="m0 0 3 1-5 10h-4v-6l4-4z" fill="#D2B54C"/>
<path transform="translate(403,625)" d="m0 0 5 1-1 9-6-1v-7z" fill="#3B4746"/>
<path transform="translate(267,597)" d="m0 0 2 1v8l-5 4h-7v-4l8-1z" fill="#638581"/>
<path transform="translate(420,538)" d="m0 0 4 1v12l-4 2-3-1 2-6z" fill="#0B1018"/>
<path transform="translate(1284,693)" d="m0 0h9v1l-7 2-2 7h10v1h-11l-5-1 3-5 1-4z" fill="#342925"/>
<path transform="translate(684,620)" d="m0 0h2l-2 13 4 1 1-2v2l4 1-7 1-5-1-4 1 4-8h1l1-7z" fill="#191D25"/>
<path transform="translate(171,532)" d="m0 0h1v21h-1l-1-5h-2l-2 4-2 2-3-1 5-4 2-9 2-1z" fill="#0E131C"/>
<path transform="translate(1070,521)" d="m0 0h14v1h-6l3 10 4 2h-11l2-4-1-4-3-3z" fill="#342925"/>
<path transform="translate(169,596)" d="m0 0 7 1v9l-1 1h-5l1-8-2-1z" fill="#3C5557"/>
<path transform="translate(162,596)" d="m0 0h7v2l3 1-4 3-5 4v-2h-2z" fill="#141923"/>
<path transform="translate(165,767)" d="m0 0h5l1 1v9l-4 1-2-6z" fill="#110F15"/>
<path transform="translate(1433,720)" d="m0 0 3 3 1 8-1 1-2 1-3-2v-10z" fill="#1E1E23"/>
<path transform="translate(1335,577)" d="m0 0 6 1 2 1-1 3-5-1-1 8 5-1 1 2-5 1-4-2v-10z" fill="#322825"/>
<path transform="translate(261,542)" d="m0 0h2l1 3-3 4h-7l-2-2v-3z" fill="#12161E"/>
<path transform="translate(1119,519)" d="m0 0 4 1 1 13-4 1-1-4z" fill="#D4B74A"/>
<path transform="translate(403,474)" d="m0 0 5 1v9h-4l-1 8h-1v-10z" fill="#1F2127"/>
<path transform="translate(403,473)" d="m0 0h5l4 6 8 2-4 1h-2l-1 12h-1l-1-10-2 1-2-10z" fill="#0B0E17"/>
<path transform="translate(596,595)" d="m0 0 8 1 3 4h-2l-1 2-1-3h-3v6h-4z" fill="#3D5454"/>
<path transform="translate(1149,578)" d="m0 0 4 1 1 12-5-1z" fill="#E3C437"/>
<path transform="translate(433,534)" d="m0 0 6 2 4 2 1-3v9l-1-2-11-3-1-4z" fill="#161820"/>
<path transform="translate(1137,520)" d="m0 0 9 1h8l2 2-7 2-1 2h-2l-1-4h-7l-4-2z" fill="#322926"/>
<path transform="translate(1169,492)" d="m0 0 4 2-1 8h2v2h-7l1-11z" fill="#DABC43"/>
<path transform="translate(358,487)" d="m0 0 4 2-1 2 3 3v1h-5l-1-1-2 6-2-4 1-6z" fill="#0C121A"/>
<path transform="translate(620,480)" d="m0 0 18 2 4 2-2 1-9-1-7 2-1 2-3-5z" fill="#0E1018"/>
<path transform="translate(427,767)" d="m0 0 5 1-1 9h-4l-1-1v-8z" fill="#E9F2EF"/>
<path transform="translate(386,766)" d="m0 0 5 1 2 5v5l-4 1-1-7-1-1-1 5h-1l-1-8z" fill="#D0DFCE"/>
<path transform="translate(1192,663)" d="m0 0h3l-1 5-3 7h-4l1-6z" fill="#D2B54D"/>
<path transform="translate(1109,659)" d="m0 0 5 1 2 1-1 4-5-2-9 1-4 2-2-1v-2z" fill="#302828"/>
<path transform="translate(606,625)" d="m0 0 3 1 2 5-1 4h-6l-1-1v-5l3 1z" fill="#50706C"/>
<path transform="translate(369,622)" d="m0 0h5l1 6-4-1v7l-3 1v-11z" fill="#486765"/>
<path transform="translate(307,596)" d="m0 0h5l1 9-1 1h-5z" fill="#485C5F"/>
<path transform="translate(1090,578)" d="m0 0 4 1v8l1 3-5-1-2-5 1-5z" fill="#D3B64A"/>
<path transform="translate(154,535)" d="m0 0h5l2 5-4 1-3 1v3h-3v-6z" fill="#0E1019"/>
<path transform="translate(691,485)" d="m0 0h6l-1 5-4 8-2 1z" fill="#1D1F25"/>
<path transform="translate(358,625)" d="m0 0 2 1 1 3 2-2h3l-1 5-4 1v2h-3l-1-9z" fill="#49564E"/>
<path transform="translate(1025,605)" d="m0 0h8l1 1v11h-1l-1-7-1 6-4-1v-6l5-1v-2h-7z" fill="#342A26"/>
<path transform="translate(559,596)" d="m0 0 3 3 1 6-2 1h-6l2-8z" fill="#3C4747"/>
<path transform="translate(1337,580)" d="m0 0 5 1 1 1v5l-7 2v-8z" fill="#D7B946"/>
<path transform="translate(1069,579)" d="m0 0 5 1v9l-4 1-2-10z" fill="#DCBE40"/>
<path transform="translate(335,493)" d="m0 0 1 2h2l2 4-4 3-4-1-1-1v-6z" fill="#0A0C14"/>
<path transform="translate(1178,522)" d="m0 0h17l-1 2-7-1v6l1 4-2 1h-9v-3l1 1 7 1v-10l-8 1z" fill="#342925"/>
<path transform="translate(223,324)" d="m0 0 5 1 12 5 16 4v1h-10l-15-6-8-4z" fill="#202227"/>
<path transform="translate(1328,723)" d="m0 0h6l1 4-4 3-5-1 1-5z" fill="#D2B54D"/>
<path transform="translate(1190,694)" d="m0 0 4 1 1 1v5l-1 1h-6l-1-4 1-3z" fill="#D2B54D"/>
<path transform="translate(1091,694)" d="m0 0 5 1-1 7-1 1h-5v-8z" fill="#D2B54D"/>
<path transform="translate(1347,663)" d="m0 0 5 1v11h-4l-1-3z" fill="#E2C338"/>
<path transform="translate(87,654)" d="m0 0h2v8l3-1 1-3-1-4h3v9l-1 1h-7l-1-6z" fill="#4C6A67"/>
<path transform="translate(228,652)" d="m0 0 11 1-1 4v-3h-2l1 3-2 3h-4l-1-4z" fill="#353832"/>
<path transform="translate(1066,629)" d="m0 0h8l-3 2h-2v2h-3v2l-6 1v2h-2v6h-1l-1-6 2-4 5-1z" fill="#111722"/>
<path transform="translate(546,627)" d="m0 0h4l-1 7 2 1v-7l2-1 1 5-1 4h-6l-3-4v-2h2z" fill="#202227"/>
<path transform="translate(412,594)" d="m0 0 5 1 3 2v3l-2 4h-4l-1-3 2-5-2-1-1 3z" fill="#202024"/>
<path transform="translate(343,502)" d="m0 0 2 4-2 6-6 1v-4l1-3 4-2z" fill="#0A0B13"/>
<path transform="translate(634,495)" d="m0 0 4 1v5l-5 2-3-2v-5z" fill="#161B24"/>
<path transform="translate(499,488)" d="m0 0 4 2h1v10h-2l-1 3-4 3-2-1 3-3 1-3z" fill="#12171F"/>
<path transform="translate(1027,750)" d="m0 0 8 1v6l-3 1-3-2-1-3-2 3-1-4z" fill="#121722"/>
<path transform="translate(1339,719)" d="m0 0 4 1-2 5-6 1-1-2h-6l-2 1 1-3h8l1-2z" fill="#655732"/>
<path transform="translate(1212,691)" d="m0 0h2l-1 9-1 3-5 1 1-5z" fill="#D2B54D"/>
<path transform="translate(1291,663)" d="m0 0h3v6l-2 2-2 5h-4l1-5 3-4z" fill="#D5B848"/>
<path transform="translate(526,624)" d="m0 0 5 4v6l-7 1 1-10z" fill="#5F8073"/>
<path transform="translate(533,596)" d="m0 0h5l2 5v4l-6 2v-8z" fill="#3E5A5A"/>
<path transform="translate(116,595)" d="m0 0 6 1-1 4-6 3-3 1 2-6z" fill="#3F5758"/>
<path transform="translate(1100,520)" d="m0 0h3l1 13h-4l-1-12z" fill="#DBBD42"/>
<path transform="translate(1078,492)" d="m0 0h7l3 4-2 5-2-4-5-2-1 5h-1v-7z" fill="#E4C537"/>
<path transform="translate(348,487)" d="m0 0 3 1-3 9-1-3h-2v7h-1v-5l-3 1v-5h3l2-4z" fill="#141720"/>
<path transform="translate(741,488)" d="m0 0 7 1 1 4v7l-2-3h-3z" fill="#101018"/>
<path transform="translate(1150,223)" d="m0 0 2 3v11l-3 1-3-9 2-4 1 1z" fill="#050505"/>
<path transform="translate(1249,690)" d="m0 0 5 1v3l-5 2h-3v7h-1l-1-10z" fill="#63532E"/>
<path transform="translate(1060,666)" d="m0 0h3l1 6 3-4 1 5-1 2-6-1-3-3z" fill="#D7B946"/>
<path transform="translate(159,653)" d="m0 0h4l-1 8h2l-1 3h-6l1-5z" fill="#46696A"/>
<path transform="translate(138,651)" d="m0 0 4 1 2 6-3 5-4 1 1-3h2v-5l-5-1v-2z" fill="#588D8B"/>
<path transform="translate(1026,635)" d="m0 0h6l1 1v9l-3-1v-6l-3-1 1 8h-3v-9z" fill="#D2B54D"/>
<path transform="translate(442,624)" d="m0 0 3 1 1 10h-5l-1-6z" fill="#4D6762"/>
<path transform="translate(524,596)" d="m0 0h5l1 2v6l-2 1-2-6-2 7-3-2 1-6h2z" fill="#4E7A7B"/>
<path transform="translate(270,594)" d="m0 0 5 1-1 2 1 5-2 5-4-1z" fill="#0C0F18"/>
<path transform="translate(1314,578)" d="m0 0h2l2 3-1 11-3-1-1-7z" fill="#292424"/>
<path transform="translate(1271,580)" d="m0 0 3 1v7l-3 1-4-3 1-5z" fill="#D2B54D"/>
<path transform="translate(1081,578)" d="m0 0 3 2v10h-6l1-2v-8z" fill="#D2B54D"/>
<path transform="translate(242,547)" d="m0 0 6 2 3 4 4 2-4 1-10-2z" fill="#0F1018"/>
<path transform="translate(604,478)" d="m0 0h2l3 3 5 4v8l-2-4-6 1-2 2 1-4 6-2-6-3z" fill="#181C24"/>
<path transform="translate(157,766)" d="m0 0 4 1 2 8v3l-5-1z" fill="#1D1A1D"/>
<path transform="translate(1147,724)" d="m0 0 2 1v6l5 1v1h-25l1-2 5 1 1-5 2 4 8 1z" fill="#352A25"/>
<path transform="translate(1437,720)" d="m0 0 4 2 1 2v6l-4 2-2-6z" fill="#D2B54D"/>
<path transform="translate(1357,665)" d="m0 0 5 2 1 5-6 2-1-1v-7z" fill="#DDBF3F"/>
<path transform="translate(498,595)" d="m0 0h9l-1 2-3-1-1 3-1-1-1 8-1 1h-7v-4h3l1-2-1 5 3-3z" fill="#171C24"/>
<path transform="translate(1099,577)" d="m0 0h4l1 13h-4z" fill="#D9BB43"/>
<path transform="translate(206,534)" d="m0 0 2 3 1 9-2 4-2 2v-17z" fill="#070811"/>
<path transform="translate(255,488)" d="m0 0 4 1 2 4v4l-3 1-1-4h-3l-2-1 2-4z" fill="#080E17"/>
<path transform="translate(1103,722)" d="m0 0 3 1v5l-1 1h-7v-5z" fill="#D2B54D"/>
<path transform="translate(1060,693)" d="m0 0h14l-4 1 3 9h-6v-8l-7-1z" fill="#342925"/>
<path transform="translate(1268,665)" d="m0 0h7l-3 4-1 6h-4v-7z" fill="#D5B848"/>
<path transform="translate(351,626)" d="m0 0h2v9l-4 2h-5l-1-2h4l-1-2v-6l3 1 1 3-1 4 2-1z" fill="#181B23"/>
<path transform="translate(79,625)" d="m0 0h5l2 2-1 7-2 3-4-1v-3l4-1-1-3h-2z" fill="#3C4C4B"/>
<path transform="translate(547,623)" d="m0 0h4l1 5-1 7-3-1 2-7-3 1-2 2-2-1 2-4z" fill="#505D4E"/>
<path transform="translate(1280,578)" d="m0 0h2l1 8-3 5-4-1 2-3 1-8z" fill="#D2B54D"/>
<path transform="translate(441,509)" d="m0 0 9 1 3 2-4 3-6-1-2-2z" fill="#97CAC9"/>
<path transform="translate(123,477)" d="m0 0h1v29l2 1-5-1v-6l1-2z" fill="#131822"/>
<path transform="translate(966,216)" d="m0 0h1v13h-2l-2 2-1-1 1-9z"/>
<path transform="translate(1389,721)" d="m0 0h13l2 2h-6l-1 7 1 2h-7l3-2-1-8z" fill="#252124"/>
<path transform="translate(1129,574)" d="m0 0h8l6 3v2l-5-1h-10l-1 3-1-5z" fill="#332926"/>
<path transform="translate(1073,721)" d="m0 0 2 1-2 5-3 5h-2v-7l1-3z" fill="#D2B54D"/>
<path transform="translate(1190,721)" d="m0 0h13v1h-5l1 9 1 2h-12v-1l7-1 1-3v-6h-6z" fill="#352A25"/>
<path transform="translate(1080,663)" d="m0 0 4 1 1 11-4-1-2-10z" fill="#D9BB44"/>
<path transform="translate(234,520)" d="m0 0h6l-1 6-4 2-1-3-3-1 1-3z" fill="#111722"/>
<path transform="translate(1164,667)" d="m0 0 1 2 3-1 1 4h5l2-1-1 3-6 2-5-2-1-5z" fill="#342925"/>
<path transform="translate(1279,666)" d="m0 0h5l-1 6-4 2-3-3 2-4z" fill="#D2B54D"/>
<path transform="translate(1169,666)" d="m0 0h5l1 1v5l-1 1h-5l-1-5z" fill="#D4B64A"/>
<path transform="translate(1068,666)" d="m0 0 4 2v7l4 1h-9z" fill="#3F3327"/>
<path transform="translate(135,655)" d="m0 0h5l1 4-4 5h-2l-1-6z" fill="#11141C"/>
<path transform="translate(1062,579)" d="m0 0 3 2v6l-5 1-1-1 1-7z" fill="#D2B54D"/>
<path transform="translate(74,535)" d="m0 0h5l1 2h-2l-1 5h-3l-1 2h-2l1-6z" fill="#0E0F17"/>
<path transform="translate(1209,523)" d="m0 0 5 2v5l-1 1h-5l-1-5z" fill="#DBBD41"/>
<path transform="translate(112,491)" d="m0 0h1v14l1 2-3-1v-2h-3v-9l3 1z" fill="#181C24"/>
<path transform="translate(1123,720)" d="m0 0h2l-2 12h-5l3-11z" fill="#D2B54D"/>
<path transform="translate(201,648)" d="m0 0h7v2h2v2l3 1-6 2-1-3h-3v-2l-4-1z" fill="#0A0B14"/>
<path transform="translate(264,625)" d="m0 0h2l4 4-1 5-2 2h-4l1-9z" fill="#1A1D25"/>
<path transform="translate(524,623)" d="m0 0h4l-1 3h-1l-1 5-1 3-5-2 1-5 4 2z" fill="#1A1D25"/>
<path transform="translate(555,627)" d="m0 0h3v4l2-1 1-3h2l1 6-2 2-4-1-1-3h-2z" fill="#505D50"/>
<path transform="translate(218,624)" d="m0 0 1 3-2 9h-3l-1-8 2-3z" fill="#436768"/>
<path transform="translate(141,598)" d="m0 0 4 1-1 6-4 2h-4l1-2h1l1-6z" fill="#12161F"/>
<path transform="translate(413,595)" d="m0 0 3 1-2 7h4l1-3-1-3 3 1 1 3-3 5h-6l-1-1v-7z" fill="#79B7B0"/>
<path transform="translate(644,488)" d="m0 0h1v5h2l1-2v14l-3-1-1-4z" fill="#0F121B"/>
<path transform="translate(1174,225)" d="m0 0h1l3 9 2 9-2 1-3-6-1-4z" fill="#0E0F18"/>
<path transform="translate(1447,722)" d="m0 0h4l-2 10-4-1 1-8z" fill="#DEC03D"/>
<path transform="translate(1408,719)" d="m0 0h4l-1 6h-4l-2 6h-1v-7h3z" fill="#7B6A2D"/>
<path transform="translate(1169,723)" d="m0 0 5 1 1 5-7 1v-6z" fill="#D5B749"/>
<path transform="translate(1298,722)" d="m0 0h6l-4 9h-3z" fill="#D2B54D"/>
<path transform="translate(1221,721)" d="m0 0h3l-2 10-2 2h-3l1-5z" fill="#D2B54D"/>
<path transform="translate(1311,692)" d="m0 0 2 1-1 8-2 3h-4l2-5z" fill="#D5B749"/>
<path transform="translate(1152,656)" d="m0 0 6 1-1 5-6-1-3-2v-2z" fill="#111722"/>
<path transform="translate(1027,637)" d="m0 0 4 1v6l2 2-1 1-7-1 2-2z" fill="#332C28"/>
<path transform="translate(1210,581)" d="m0 0h6l-2 5-2 2h-4v-6z" fill="#FFDD16"/>
<path transform="translate(194,535)" d="m0 0h1v5h2v12l-3 1z" fill="#02060C"/>
<path transform="translate(513,487)" d="m0 0 5 1 1 6-3-1-5 1v-5z" fill="#090E16"/>
<path transform="translate(555,487)" d="m0 0 5 1 1 4-9 1 1-5z" fill="#181C24"/>
<path transform="translate(1150,201)" d="m0 0h2l1 7-2 9h-1l-1-15z" fill="#060708"/>
<path transform="translate(381,767)" d="m0 0 4 1v9l-4 1z" fill="#DFE9DE"/>
<path transform="translate(1259,723)" d="m0 0h6l-2 7h-5v-6z" fill="#DCBE3F"/>
<path transform="translate(1029,662)" d="m0 0 4 1-1 10-4 2-1-3 3-4z" fill="#93803F"/>
<path transform="translate(1320,666)" d="m0 0h4l-1 7h-4l-2-1 1-5z" fill="#D7B946"/>
<path transform="translate(1026,661)" d="m0 0h6l-3 1 2 6-4 6h-2l1-9z" fill="#342A25"/>
<path transform="translate(135,622)" d="m0 0h2v14h-3l-1-7z" fill="#466A6C"/>
<path transform="translate(1120,609)" d="m0 0 5 2-1 4-2 2-5-1z" fill="#D5B748"/>
<path transform="translate(555,595)" d="m0 0h6l-1 2-3 3-2 4h-2l-2-8z" fill="#171B23"/>
<path transform="translate(1207,580)" d="m0 0h8v1l-7 1v6l6-2-2 4-4 1-2-3v-7z" fill="#D2B54D"/>
<path transform="translate(409,534)" d="m0 0 4 1v4l-5 2-2 3-1-3 2-6z" fill="#1B1D22"/>
<path transform="translate(498,504)" d="m0 0 1 4-2 5h-4v-4l-2-1 1-2z" fill="#090912"/>
<path transform="translate(455,490)" d="m0 0h1v9l-2 2-7-1 1-3 6-2z" fill="#0F141C"/>
<path transform="translate(1066,718)" d="m0 0 5 1v2h-2l-1 5-3 1-2-8z" fill="#0C0D15"/>
<path transform="translate(1122,694)" d="m0 0 3 2v5l-5 1-1-1v-6z" fill="#D7BA46"/>
<path transform="translate(396,624)" d="m0 0h12l-1 2-5 1-1 7-2-1v-4l-2 1z" fill="#131822"/>
<path transform="translate(395,597)" d="m0 0h2v7l-2 3-6-1 1-8h2l1 7 2-4z" fill="#141820"/>
<path transform="translate(448,596)" d="m0 0 3 1-4 5-2 5-4-1 1-5 4-1z" fill="#698E8E"/>
<path transform="translate(228,597)" d="m0 0 3 1v2h2l-1 6 3 1-7-1-1-4z" fill="#1B1E25"/>
<path transform="translate(616,596)" d="m0 0h5v2h3l-1 7h-4v-6l-3-1z" fill="#4A6C6C"/>
<path transform="translate(583,596)" d="m0 0 5 1 1 6-1 2-2-1v-4l-2-1-1 5h-2l1-7z" fill="#3C4948"/>
<path transform="translate(254,518)" d="m0 0h6 3l4 1-2 5-9-2z" fill="#111722"/>
<path transform="translate(682,484)" d="m0 0 2 1-1 10-3 1-2-5 1-6z" fill="#181A21"/>
<path transform="translate(612,475)" d="m0 0 2 4v5l-5-2-3-2v-3l5-1z" fill="#050912"/>
<path transform="translate(199,651)" d="m0 0h3v2h-2l1 9-4 2v-11z" fill="#89BAA7"/>
<path transform="translate(77,652)" d="m0 0 5 1 1 3-2 7-3-1h2v-7l-3-1v5h-3l1-6z" fill="#5D867D"/>
<path transform="translate(260,623)" d="m0 0h4l1 10-3 1-2-9z" fill="#42686A"/>
<path transform="translate(240,623)" d="m0 0h5l-1 2-2-1 2 3v6h-3l-1-1v-7l-2-1z" fill="#0C121D"/>
<path transform="translate(691,622)" d="m0 0h3l1 2v8l-4 1z" fill="#3B5357"/>
<path transform="translate(572,596)" d="m0 0h7l-1 2h-2l1 5 3 2-5 1-3-7z" fill="#517572"/>
<path transform="translate(1059,579)" d="m0 0 3 1h-2v7h4v-6l-1-2 3 1v8l-1 1h-7l-1-1v-6z" fill="#342925"/>
<path transform="translate(451,547)" d="m0 0 4 1 1 5-1 1h-5l-1-5z" fill="#DCE5D3"/>
<path transform="translate(295,516)" d="m0 0 4 3v3l-7 1-1-4 1-2z" fill="#111722"/>
<path transform="translate(1060,495)" d="m0 0 4 1 1 7-5-1-1-1v-5z" fill="#D7BA45"/>
<path transform="translate(1099,695)" d="m0 0h5l1 2-2 5-5-1z" fill="#D6B947"/>
<path transform="translate(1301,694)" d="m0 0 3 1-1 7h-4l-1-6z" fill="#D3B64B"/>
<path transform="translate(1307,665)" d="m0 0 6 2 1 5-5 1z" fill="#D7BA45"/>
<path transform="translate(192,651)" d="m0 0h2l1 5 3-1-1 9 4-2-1 3h-4v-5l-4 1z" fill="#1A1B21"/>
<path transform="translate(223,652)" d="m0 0 4 1 4 2v4l2-1v4l-3 1-2-3v-3h-2l-1-3-2 3z" fill="#16191F"/>
<path transform="translate(418,625)" d="m0 0h2l1 9-1 3h-3v-11z" fill="#6FB2AA"/>
<path transform="translate(176,622)" d="m0 0 6 1-2 2-3 8-2-1v-8z" fill="#0B0C15"/>
<path transform="translate(1072,607)" d="m0 0h2l-1 11h-5l2-9z" fill="#D2B54D"/>
<path transform="translate(379,596)" d="m0 0 2 1v4h4l-2 5-6 2 2-8z" fill="#171B22"/>
<path transform="translate(114,531)" d="m0 0h1l1 6h1v11l-3 1z"/>
<path transform="translate(877,175)" d="m0 0 4 1 2 6h-2l-1 4h-2z" fill="#131822"/>
<path transform="translate(364,766)" d="m0 0 3 1h-2l-1 10-5 1 2-5-1-6z" fill="#322D2C"/>
<path transform="translate(241,765)" d="m0 0h4l2 5-1 3h-4l-2-6z" fill="#0A0B14"/>
<path transform="translate(1350,721)" d="m0 0h2v10l-4 1 1-10z" fill="#D2B54D"/>
<path transform="translate(1102,666)" d="m0 0 3 1-1 7-5-1-1-4 1-2z" fill="#D8BA45"/>
<path transform="translate(1090,666)" d="m0 0 5 2-1 5-4 1-1-1z" fill="#D2B54D"/>
<path transform="translate(188,651)" d="m0 0 5 1-1 9-3 3 1-9 1-2-4-1z" fill="#78B2A1"/>
<path transform="translate(287,627)" d="m0 0 2 3h2l1-3 1 8-3 1-4-4z" fill="#435958"/>
<path transform="translate(170,625)" d="m0 0h3l1 2v6l-4 4h-2l2-4z" fill="#69B2AF"/>
<path transform="translate(678,597)" d="m0 0h3v9l-4 1-4-3 1-6h1l2 6 2-1z" fill="#5A847E"/>
<path transform="translate(599,598)" d="m0 0 5 1v6l3 1h-9l2-1z" fill="#212227"/>
<path transform="translate(1151,526)" d="m0 0 1 4-3 2v3l5 1-2 3-4-2-2-2-4-2 5-2z" fill="#332925"/>
<path transform="translate(1063,522)" d="m0 0 2 1-3 9-3-1v-6z" fill="#D4B74A"/>
<path transform="translate(710,473)" d="m0 0 3 1 1 4-2 3h-3l-2-5z" fill="#E4EBDF"/>
<path transform="translate(733,170)" d="m0 0h1v20h-1l-1-11-2-3 1-4z"/>
<path transform="translate(101,766)" d="m0 0h3v7l-2 2h-3l1-8z" fill="#E9CA2F"/>
<path transform="translate(1348,695)" d="m0 0 5 1v5l-4 1-2-2z" fill="#DABC42"/>
<path transform="translate(478,626)" d="m0 0 2 1 1 6 1 2h-6v-8z" fill="#496868"/>
<path transform="translate(357,623)" d="m0 0 4 1v2l4 1-5 3-2-4v9l-1-2h-2l1-9z" fill="#141923"/>
<path transform="translate(331,625)" d="m0 0 3 1 1 3v7l-2 2-3-1 1-2z" fill="#6CB2AC"/>
<path transform="translate(1060,609)" d="m0 0h4v8l-4-1-1-1v-5z" fill="#DABC42"/>
<path transform="translate(614,596)" d="m0 0h2v2l4 1v6l3 2-5-1-2-6v5h-1z" fill="#121822"/>
<path transform="translate(185,597)" d="m0 0 5 1v7l-1 1h-5l1-3h2z" fill="#6CB2AC"/>
<path transform="translate(1378,722)" d="m0 0h4l-1 7-2 3h-2z" fill="#D2B54D"/>
<path transform="translate(186,654)" d="m0 0h4v9l2-2-1 4h-3l-1-6-3 1z" fill="#141821"/>
<path transform="translate(67,651)" d="m0 0h2l1 4v7h-4v-10z" fill="#C1DFDE"/>
<path transform="translate(1215,585)" d="m0 0h2v8l-7-1z" fill="#352A25"/>
<path transform="translate(1026,550)" d="m0 0h6l1 1v8l-1 1h-6l4-3v-4z" fill="#D2B54D"/>
<path transform="translate(256,534)" d="m0 0 4 1 1 4-8 1 1-5z" fill="#18191E"/>
<path transform="translate(210,521)" d="m0 0 5 1 1 4-1 1h-5l-1-5z" fill="#DCE8DE"/>
<path transform="translate(715,500)" d="m0 0 5 1 1 4-2 2-5-1z" fill="#0C0D15"/>
<path transform="translate(1115,495)" d="m0 0h4l-1 8-4 1v-8z" fill="#13151D"/>
<path transform="translate(581,481)" d="m0 0 7 1 1 2h-15l-2-1-1 2v-3z" fill="#191D25"/>
<path transform="translate(1022,749)" d="m0 0h13l2 5-1 5h-1v-8h-8l-4 1z" fill="#59786E"/>
<path transform="translate(1419,722)" d="m0 0 3 1v6l-5 1 1-7z" fill="#D2B54D"/>
<path transform="translate(1266,668)" d="m0 0h1v7l4 1h-18v-1h11l1-6z" fill="#352A25"/>
<path transform="translate(1184,664)" d="m0 0h6l-5 9-2-1z" fill="#111722"/>
<path transform="translate(236,654)" d="m0 0h2l1 5-1 4-8 1 1-2h2v-2l3-3z" fill="#528586"/>
<path transform="translate(67,625)" d="m0 0h2l2 11-4 1z" fill="#ABD1CA"/>
<path transform="translate(348,595)" d="m0 0h2l-1 8 2 1-2 1h6l-1 2h-6l-1-1v-10z" fill="#486B6A"/>
<path transform="translate(676,596)" d="m0 0 4 1v4l-2 4-3-2-1-6z" fill="#1E2026"/>
<path transform="translate(1120,580)" d="m0 0 4 2v6h-4l-1-7z" fill="#D5B848"/>
<path transform="translate(1201,495)" d="m0 0 3 1-1 5-4 2-1-5z" fill="#E1C339"/>
<path transform="translate(708,479)" d="m0 0 1 2 4-1 1 2 4-1v7l-4-1-1-3-5-1z" fill="#1E2027"/>
<path transform="translate(1098,694)" d="m0 0h6v1h-5v6l4 2h-9l1-6h2z" fill="#352A25"/>
<path transform="translate(1330,694)" d="m0 0 3 1v6l-4 1-1-1v-6z" fill="#D6B848"/>
<path transform="translate(1306,666)" d="m0 0 2 1 1 6 4-1 2-3 1 3-3 4-6-1-2-8z" fill="#2D2524"/>
<path transform="translate(426,627)" d="m0 0h4l1 5-4 2-2-2z" fill="#3E4642"/>
<path transform="translate(123,598)" d="m0 0 3 1-4 4h-4l-1 4h-2l-1-4 4-2 5-1z" fill="#151922"/>
<path transform="translate(290,595)" d="m0 0h2l1 11h-4v-10z" fill="#446160"/>
<path transform="translate(69,593)" d="m0 0h5l1 2-6 1-1 9-2-1v-9z" fill="#B9D7CC"/>
<path transform="translate(1114,589)" d="m0 0 4 2-5 3h-6l-2-2 1-1h8z" fill="#302828"/>
<path transform="translate(217,531)" d="m0 0 2 1 1 3v9l-3-3-2 3v-8z" fill="#15171F"/>
<path transform="translate(130,479)" d="m0 0h1l1 6 7-1-4 7-1-3-4 1z" fill="#13141C"/>
<path transform="translate(597,479)" d="m0 0 1 3v6l1 2v8h-1l-1-7-3-3 1-4z" fill="#1A1D25"/>
<path transform="translate(216,767)" d="m0 0 2 1v8l-1 2h-5l3-1v-9z" fill="#DABC42"/>
<path transform="translate(1212,723)" d="m0 0h2l-1 7-5-1v-4z" fill="#D2B54D"/>
<path transform="translate(1357,695)" d="m0 0 3 1-2 1-2 5 5-1 1-6h2v7l-1 1h-8l1-7z" fill="#D2B54D"/>
<path transform="translate(1130,694)" d="m0 0h3l1 3-3 1-2 4h-3l1-6z" fill="#E5C634"/>
<path transform="translate(1283,669)" d="m0 0h2l1 7 2 1-7-1-2-2 3-2z" fill="#272224"/>
<path transform="translate(200,622)" d="m0 0 1 4v8l3 1-7 1 1-6z" fill="#111722"/>
<path transform="translate(201,625)" d="m0 0 3 1 2 7-5 1-1-8z" fill="#496867"/>
<path transform="translate(127,597)" d="m0 0 4 2v7l-3-1 1-4h-2l-2 4-1-2z" fill="#3D5658"/>
<path transform="translate(576,598)" d="m0 0h6l-2 6-4-1-1-3z" fill="#0F151F"/>
<path transform="translate(82,594)" d="m0 0h5v2h2v8h-3l-1-9z" fill="#060710"/>
<path transform="translate(1029,578)" d="m0 0h4v10h-3z" fill="#D2B54D"/>
<path transform="translate(384,534)" d="m0 0 5 1 2 4h-7l-1-4z" fill="#12131A"/>
<path transform="translate(157,493)" d="m0 0 3 1 2 8-4 2-3-1z" fill="#12141D"/>
<path transform="translate(1092,495)" d="m0 0 2 1v7l5-1 5 2v1h-12l-1-9z" fill="#342A25"/>
<path transform="translate(328,231)" d="m0 0 4 5 1 6-2 1v-3h-2v-3h-2v-5z" fill="#080E18"/>
<path transform="translate(1031,776)" d="m0 0 4 1v10h-3z" fill="#322F2E"/>
<path transform="translate(1353,722)" d="m0 0h3l2 5-1 4-4-2z" fill="#111117"/>
<path transform="translate(1084,694)" d="m0 0h7l-2 1v8l-4-1 1-7z" fill="#352A25"/>
<path transform="translate(131,655)" d="m0 0h4v9l-4-1z" fill="#4B6468"/>
<path transform="translate(67,650)" d="m0 0h5v2h-2l1 2 3 2-1 5h-3l-1-10z" fill="#0F121B"/>
<path transform="translate(631,625)" d="m0 0 1 4-2 1-2 4-3-2 1-5z" fill="#527673"/>
<path transform="translate(472,627)" d="m0 0h4v6h-2l-1 3h-6v-1l5-1-1-5z" fill="#111621"/>
<path transform="translate(644,625)" d="m0 0 3 1 1 8-4 4-3-1 3-2z" fill="#67B2B2"/>
<path transform="translate(109,625)" d="m0 0 3 1 1 8-4 1z" fill="#67B2B2"/>
<path transform="translate(161,623)" d="m0 0h8l1 10-4 1 1-5-1-3-5-2z" fill="#070811"/>
<path transform="translate(387,599)" d="m0 0h1v5l-4 5h-5v-3l6-2z" fill="#7DBBB8"/>
<path transform="translate(427,597)" d="m0 0 2 2v8l-4 2 1-11z" fill="#74B7B3"/>
<path transform="translate(541,595)" d="m0 0h10l-4 2-4 1-1 10h-1l-1-12z" fill="#1C1E26"/>
<path transform="translate(1099,523)" d="m0 0h1l1 11h-12v-1l6-1 2-3v2h2z" fill="#352A25"/>
<path transform="translate(285,517)" d="m0 0h4v3l-10 3-1-3z" fill="#111722"/>
<path transform="translate(220,764)" d="m0 0h1v12l-4 1 1-10z" fill="#282223"/>
<path transform="translate(89,654)" d="m0 0 4 1 1 4-2 3h-3z" fill="#10141C"/>
<path transform="translate(177,649)" d="m0 0 15 1v1l-6 1-2 2v-2l-8-1z" fill="#0D0D15"/>
<path transform="translate(331,626)" d="m0 0h1v9 3 1h-5v-3l2-3h2z" fill="#232428"/>
<path transform="translate(685,623)" d="m0 0 2 3 1 8-5-1z" fill="#486767"/>
<path transform="translate(139,621)" d="m0 0h6l1 3-2 1-2 3-3-4z" fill="#070811"/>
<path transform="translate(626,597)" d="m0 0 4 2 1 4-7 2 1-7z" fill="#0B1019"/>
<path transform="translate(655,597)" d="m0 0h2l2 4v5h-4z" fill="#6AB2AE"/>
<path transform="translate(426,595)" d="m0 0 4 2v2l-5-1-2 4-2 1-1-6z" fill="#1A1E25"/>
<path transform="translate(613,592)" d="m0 0 5 2 2 2-9-1v2l-6 2-1-2 6-3z" fill="#161B24"/>
<path transform="translate(170,546)" d="m0 0h1v8l-4 1-3-2 4-5h2z" fill="#050811"/>
<path transform="translate(441,502)" d="m0 0 6 3 6 1v1l-7 2h-5l1-3z" fill="#161B24"/>
<path transform="translate(178,493)" d="m0 0 4 2 2 2v8l-4-1 1-7-2-1z" fill="#121722"/>
<path transform="translate(614,474)" d="m0 0 5 1v5h-4l-1-1z" fill="#67B2B2"/>
<path transform="translate(1209,691)" d="m0 0 3 1-5 12 3 1h-4v-6z" fill="#352A25"/>
<path transform="translate(1210,673)" d="m0 0h8l2 1 13 1v1h-16l-7-2z" fill="#352A25"/>
<path transform="translate(183,624)" d="m0 0 3 2-1 8-3 1v-10z" fill="#73B4AD"/>
<path transform="translate(469,625)" d="m0 0h2v9h-4l1-8z" fill="#80B299"/>
<path transform="translate(385,625)" d="m0 0 3 1-1 7-4 1z" fill="#6EB2AB"/>
<path transform="translate(289,624)" d="m0 0 4 2v7l-2-3-3 1-1-5z" fill="#2A292A"/>
<path transform="translate(662,623)" d="m0 0 3 1-2 10-4 1 2-4z" fill="#72B2A7"/>
<path transform="translate(1268,611)" d="m0 0 3 1v3l4 2-1 2-7-4v3h-2l2-6z" fill="#302828"/>
<path transform="translate(337,594)" d="m0 0 2 2v10h-5l2-3 1-5h-2v-3z" fill="#79B2A0"/>
<path transform="translate(350,595)" d="m0 0h2v5l2 1 1-3v3h2v2l-4-1v2l-4-1z" fill="#121821"/>
<path transform="translate(335,593)" d="m0 0 5 1 1 9-2 3-1-10-3-1z" fill="#212128"/>
<path transform="translate(264,596)" d="m0 0 2 3v6h-5l2-7z" fill="#080C15"/>
<path transform="translate(1024,581)" d="m0 0 3 2 3-1v6l-5-1z" fill="#594E33"/>
<path transform="translate(243,539)" d="m0 0 3 4v6l-3 4-1-9z" fill="#090C15"/>
<path transform="translate(192,497)" d="m0 0 5 4 1 3-3 1-1-1-1 3-2-1z" fill="#13161F"/>
<path transform="translate(400,490)" d="m0 0h1v12h-3v-9h2z" fill="#040912"/>
<path transform="translate(1229,721)" d="m0 0 14 1v1l-6 1-1 5-2-2-1-4z" fill="#352A25"/>
<path transform="translate(1151,698)" d="m0 0h2v5h6v1h-13l3-2z" fill="#352A25"/>
<path transform="translate(1196,667)" d="m0 0 2 2-2 5-4 1v-5z" fill="#131822"/>
<path transform="translate(216,654)" d="m0 0h2l3 9v3h-4l1-4-2-5z" fill="#7BBAB6"/>
<path transform="translate(124,653)" d="m0 0 3 1v10l-4-1v-9z" fill="#6CB4B4"/>
<path transform="translate(224,626)" d="m0 0 3 1v6l-4 1v-6z" fill="#6EB2AA"/>
<path transform="translate(492,624)" d="m0 0 3 2v7l-4 1z" fill="#89B291"/>
<path transform="translate(490,624)" d="m0 0 2 2-1 4-4 1-2-6z" fill="#111722"/>
<path transform="translate(254,624)" d="m0 0 3 3v7l-3 1z" fill="#67B2B2"/>
<path transform="translate(512,597)" d="m0 0 2 2-4 9-3 1 2-6z" fill="#67B2B2"/>
<path transform="translate(440,594)" d="m0 0h2l2 7h-2l-1 5h-1z" fill="#3F4F4F"/>
<path transform="translate(169,598)" d="m0 0 3 1-4 3-5 4v-2h-2l1-4 1 2 4-3z" fill="#322E2D"/>
<path transform="translate(83,596)" d="m0 0 2 1v9h-3v-9z" fill="#71B7B7"/>
<path transform="translate(242,596)" d="m0 0h5l-1 5-6 1z" fill="#5D634C"/>
<path transform="translate(1025,552)" d="m0 0 4 2-1 4h-2v2h6v1h-7l-1-5z" fill="#302A2A"/>
<path transform="translate(409,539)" d="m0 0h5l-1 4-6 1 1-4z" fill="#E6F0EB"/>
<path transform="translate(1028,493)" d="m0 0h3l1 9h-4z" fill="#97813A"/>
<path transform="translate(486,494)" d="m0 0 6 2v4l-6-1-1-4z" fill="#020A14"/>
<path transform="translate(1069,492)" d="m0 0 3 1 1 10h-3z" fill="#EACA2F"/>
<path transform="translate(403,474)" d="m0 0 5 1v5l-5-1z" fill="#67B2B2"/>
<path transform="translate(1265,183)" d="m0 0h1l2 7v3l-4 2z" fill="#1C1F26"/>
<path transform="translate(170,768)" d="m0 0h1v9l-4 1-1-4 3-3z" fill="#211F22"/>
<path transform="translate(415,767)" d="m0 0h2v9h-3v-8z" fill="#F8FBF9"/>
<path transform="translate(1458,724)" d="m0 0 3 1v5l-4 1-1-4z" fill="#FBDA1A"/>
<path transform="translate(1423,723)" d="m0 0h4v8l-4-2z" fill="#020913"/>
<path transform="translate(1439,720)" d="m0 0 6 2 2 1-2 6-4-5z" fill="#141218"/>
<path transform="translate(1348,694)" d="m0 0 9 1-2 8-3-2v-5z" fill="#322824"/>
<path transform="translate(1104,641)" d="m0 0 1 2-2 6-5-1 1-3 3 1v-4z" fill="#D2B54D"/>
<path transform="translate(294,597)" d="m0 0 3 1v6l-5 1z" fill="#060913"/>
<path transform="translate(542,597)" d="m0 0 3 1-1 8h2l-1 3-3-1z" fill="#6AB2AE"/>
<path transform="translate(466,597)" d="m0 0 2 2-1 5h-3v2l-3 1v-4l4-2z" fill="#6CB4B4"/>
<path transform="translate(298,594)" d="m0 0h2v12l-3-1v-10z" fill="#6CB4B4"/>
<path transform="translate(1149,585)" d="m0 0 5 1v5l-5-1z" fill="#D2B54D"/>
<path transform="translate(1063,550)" d="m0 0h3l2 5-1 2-4-2-3-4z" fill="#352A25"/>
<path transform="translate(420,546)" d="m0 0h4v5l-4 2-3-1z" fill="#0F0F17"/>
<path transform="translate(1241,545)" d="m0 0h6l-4 5-4 1 1-4z" fill="#302828"/>
<path transform="translate(254,540)" d="m0 0h7v3l-7 1-1-3z" fill="#F2F8F6"/>
<path transform="translate(655,507)" d="m0 0 3 1-2 4-3 1-4-4z" fill="#070811"/>
<path transform="translate(1167,493)" d="m0 0h1v7l-1 4h-5l2-1v-6h2z" fill="#352A25"/>
<path transform="translate(517,495)" d="m0 0 2 2-1 4-4 1-1-4h2v-2z" fill="#0A1018"/>
<path transform="translate(589,484)" d="m0 0 5 2 1 4 2 1-2 2-3-1z" fill="#0A111A"/>
<path transform="translate(176,771)" d="m0 0 1 4h3l2-4v6l-1 1h-6z" fill="#1E1E23"/>
<path transform="translate(378,768)" d="m0 0 3 1h-2l1 7h-2l-1 3-4-1 3-1z" fill="#1F2027"/>
<path transform="translate(1064,722)" d="m0 0h1v5l3-1v6h-6l2-1z" fill="#352A25"/>
<path transform="translate(1029,695)" d="m0 0h2v7l2 1h-8l3-1z" fill="#332B28"/>
<path transform="translate(1027,692)" d="m0 0h5l1 5v5h-2l-1-7-4-2z" fill="#D2B54D"/>
<path transform="translate(77,654)" d="m0 0 4 1v5l-4 1z" fill="#12141B"/>
<path transform="translate(245,654)" d="m0 0h2l-1 9-4 1z" fill="#77B2A2"/>
<path transform="translate(163,653)" d="m0 0 3 3v5l-2 1-2-1v-6z" fill="#111620"/>
<path transform="translate(1066,634)" d="m0 0h5l-4 1 1 7-2 1-1-4 1-2h-6l4-2z" fill="#342925"/>
<path transform="translate(276,626)" d="m0 0h1v6h5l-1 3-5-1-1-1z" fill="#5A7F77"/>
<path transform="translate(302,623)" d="m0 0h2l-2 6v6l-3-1 1-8z" fill="#94B387"/>
<path transform="translate(430,625)" d="m0 0 5 1 1 1v5h-3l-1-4-2-1z" fill="#424D48"/>
<path transform="translate(91,625)" d="m0 0 3 1-1 8-3 1z" fill="#78BABA"/>
<path transform="translate(259,596)" d="m0 0h3v8l-3 1z" fill="#4C5F58"/>
<path transform="translate(148,597)" d="m0 0h3l-1 6 2 1v2l-5-1z" fill="#76B7B3"/>
<path transform="translate(334,595)" d="m0 0 1 3h2v5h-5v-4h2z" fill="#14151D"/>
<path transform="translate(401,595)" d="m0 0h2l1 4v7h-3z" fill="#67B2B2"/>
<path transform="translate(1027,577)" d="m0 0h6l-4 1 1 4h-2l-1 2-2-2 1-4z" fill="#342A26"/>
<path transform="translate(384,489)" d="m0 0h6v5l-7-1z" fill="#020912"/>
<path transform="translate(542,488)" d="m0 0 1 3 2-2-1 8-5-3 1-4z" fill="#070811"/>
<path transform="translate(193,483)" d="m0 0 5 1-2 4-4 3z" fill="#0F131A"/>
<path transform="translate(408,480)" d="m0 0 6 1-1 13h-1l-1-10-2 1z" fill="#040913"/>
</svg>
