<?xml version="1.0" encoding="UTF-8"?>
<svg version="1.1" viewBox="0 0 1676 1120" width="1280" height="1280" xmlns="http://www.w3.org/2000/svg">
<path transform="translate(0)" d="m0 0h1676v1120h-1676z" fill="#04071A"/>
<path transform="translate(903,851)" d="m0 0h13l8 4 4 5 4 8 1 6v77h15v-82l1-1h33l-1-6 1-2h2l1 70 1 9 5 8 7 4 6 1h8l14-3 6-3-1-10-15 4-9-1-6-4-2-4 1-64 35 1 13-1 2-1-1 6-3 9-1 5v17l4 16 6 11 9 10 8 6 12 5 11 2h10l15-3 14-7 8-8 4-6 1-4-12-1-4 6-8 7-12 5-6 1h-8l-12-3-11-7-7-8-6-12-2-7v-6h97l-3-20-4-11 1-3 7 1 2 1h17l2-1 1 83 6 1h8v-69l3-8 7-9 5-4h6l2 4h2v2l22 1h14l1 82 10 1h4v-66l2-8 7-11 9-8 12-6 4-1h14l8 4 6 8 3 10 1 30v45l-1 3h15l-1-88h3l3 3 10 2 58 1 254 1v250h-1676v-251h298l22-1 5-1 1-7h4l7 8 12 6 24 7 22 6 12 5 7 5 5 10v12l-3 8-8 7-9 4-13 2h-11l-14-2-15-5-11-6-7-6-4-1-2 6-2 3v3l13 9 14 6 15 4 8 1h17l18-3 12-5 8-6 7-11 2-8v-15l-4-11-3-4v-2l-4-2-7-5-13-5-3-4 2-1 11-1h47l1 1 1 81h45l20-1 14-3 12-5 11-8 9-10 7-12 4-12 3-18 1-17 4 1 1 1 15 1 8-1v84h51l52-1v-10l-63-1h-24l-1-3v-56l72-1 4-1 1-10 3-1 14 1h77v83h16l1-83h32l2-1 1 83 14 1v-66l2-8 7-11 9-8 12-6z"/>
<path transform="translate(383,135)" d="m0 0h25l25 5 14 5 14 7 16 12 7 7 10 14 8 15 6 17 4 20 1 10v16l-2 19-3 17-7 24-8 21-13 27-11 18-12 17-10 13-12 14-18 18h-3l-5-14-19-38-15-26-12-19-15-22-13-18-10-13-13-16-11-12-9-10-12-12-5-6-8-7-9-9-8-7-16-13-2-1 1-4 12-10 14-10 18-12 21-12 20-9 30-10 26-5z" fill="#04071A"/>
<path transform="translate(207,228)" d="m0 0 5 2 14 10 14 12 13 12 27 27 9 11 11 13 14 19 13 18 13 20 12 20 10 18 12 23 15 31 3 6-1 4-12 9-18 12-18 10-19 9-15 6-16 5h-6l-16-16-7-8-11-13-15-20-12-17-10-15-16-26-13-23-14-27-16-34-5-13 1-7 8-16 8-14 5-5 8-12 12-16 11-13z" fill="#04071A"/>
<path transform="translate(684,224)" d="m0 0h108l21 3 13 5 14 8 8 6v2l3 1 8 11 7 14 2 7 1 8v17l-2 13-6 16-7 11-8 9-14 10-12 7 2 5 10 17 13 22 19 32 5 11v2l-2 1h-25l-17-1-6-9-11-20-13-22-10-17-6-10-2-4-55-1v83l-2 1h-29l-7-2-1-232z" fill="#FEFEFE"/>
<path transform="translate(151,310)" d="m0 0 2 3 10 24 22 45 13 23 14 23 13 20 14 20 13 17 9 11 10 11 7 8 9 9 3 2 3 5 9 9 8 7h8l16-6 25-12 17-9 15-10 10-7 12-9 11-9 5 2 8 29 6 36v16l-4 20-4 9-6 9-5 6-12 8-9 2h-28l-16-5-22-11-21-14-16-13-12-11-10-9-4-1-10 2-16 1h-28l-21-4-15-5 3-1 15 3 2 1v-20l-2-5-10-6-15-8-11-8-12-11-10-13-8-16-5-13-5-25-1-6v-26l6-34 6-20 8-22z" fill="#8D14D9"/>
<path transform="translate(373,107)" d="m0 0h45l19 3 21 7 19 10 11 8 10 9 11 11 8 11 8 14 7 16 6 21 3 19 1 11v17l-3 26-5 23-7 24-10 25-10 21-11 19-12 18-9 12-9 11-11 12-7 8-18 18-8 7-15 12-16 11-17 11-27 14-20 9-9 3h-8l-17-16-4-5 1-2 24-8 23-10 21-11 18-12 14-10 14-11 9-8 7-8 18-18 9-11 10-13 9-13 11-18 12-23 10-25 6-19 3-12 3-20 1-12v-16l-3-21-4-16-8-18-10-16-12-13-17-12-21-9-22-5-7-1h-25l-21 3-17 4-27 9-24 11-22 13-17 12-16 12-6 5-6-1-14-8-9-5 4-5 9-7 13-11 17-12 17-11 22-12 22-10 30-10 23-5z" fill="#FA6026"/>
<path transform="translate(1369,286)" d="m0 0 17 1 9 2 17 9 9 9 7 9 3-3 7-10 11-8 14-7 12-2h16l10 2 16 8 10 8 7 10 6 13 3 11 1 8 1 41v74l-1 1h-33l-1-1-1-97-3-19-5-13-5-6-7-3-10-1h-10l-10 3-10 9-8 16-4 18-1 9-1 54v30l-2 1h-32l-2-7-1-109-8-16-7-6-6-2h-18l-9 3-9 8-8 14-4 11-2 19-1 84-3 1h-32l-1-1v-166l3-5h30l2 17 5-5 11-8 10-5 9-2z" fill="#FEFEFE"/>
<path transform="translate(153,179)" d="m0 0h15l16 3 20 8 22 12 6 3v3l4 2 16 13 15 14 6 5v2l4 2 12 13 11 11 7 8 9 10 11 14 9 12 13 18 15 22 15 24 14 25 8 16 12 25 1 7 2 1-8 9-14 11h-2l-8-16-12-25-15-29-16-27-20-30-14-19-10-13-9-11-12-14-31-31-8-7-16-13-12-8-4 2-12 14-13 18-8 12-2 1 2-5 1-6-9 1-8-2-2-1v-2l-8 1-8 14-11 19-6 10-2-2-5-21-4-22-1-8v-19l3-16 7-16 8-10 11-8 8-3z" fill="#8D14D8"/>
<path transform="translate(912,212)" d="m0 0 33 1 1 1 1 93 7-6 10-7 11-5 9-2h26l13 3 15 8 11 11 6 10 6 14 2 10 1 21v97l-3 1h-32l-1-1-1-103-2-14-5-12-8-7-9-3h-21l-10 3-10 9-6 8-5 12-3 16-1 12-1 79-1 1h-33l-1-1v-248z" fill="#FEFEFE"/>
<path transform="translate(1117,289)" d="m0 0h8l4 5 5 12 10 28 10 27 13 36 5 17 3-4 7-16 5-13 11-29 6-15 7-20 10-26 2-1h34l1 4-7 20-12 30-12 31-11 27-11 28-12 30-22 56-7 17-3 3h-31l-3-2 2-10 22-55 3-6-1-6-12-29-12-31-30-75-8-21-2-11z" fill="#FEFEFE"/>
<path transform="translate(477,812)" d="m0 0h47l16 4 10 6 7 6 9 14 5 14 1 7v24l-4 16-6 12-9 10-9 7-12 5-16 2h-39z" fill="#010002"/>
<path transform="translate(146,261)" d="m0 0h8v2l12 2 5-1 3 3-2 5-12 22-8 16-8 17-11 33-5 25-2 13v26l4 23 5 16 6 14 7 11 11 13 13 11 18 10 11 6 3 3 1 5v20l-21-5-15-6-15-9-11-9-15-15-10-15-9-17-7-21-4-19-2-21v-17l2-22 6-28 7-23 10-26 5-8 12-21 7-12z" fill="#FA6026"/>
<path transform="translate(134,353)" d="m0 0 3 1 12 23 8 16 12 23 9 15 14 22 11 16 14 19 10 13 13 16 11 12 1 3h-19l-13-2-20-4-9-4-9-3-11-7-14-12-11-13-9-16-6-16-5-25-1-6v-26l6-34z" fill="#05071B"/>
<path transform="translate(723,258)" d="m0 0h36l34 1 10 2 10 6 7 5 7 10 3 12-1 15-3 9-7 10-9 7-12 5-9 3-8 1h-59v-85z" fill="#06071D"/>
<path transform="translate(1089,838)" d="m0 0h22l13 4 12 8 7 7 8 14 4 13 1 16-2 1h-92l-3-1 4 16 6 10 5 6 11 7 12 3h8l12-3 10-6 6-7 2-3 12 2-1 5-6 8-9 8-11 5-15 3h-10l-14-3-14-7-11-11-8-14-4-16v-17l3-11 7-14 9-10 9-7 12-5z" fill="#FEFEFE"/>
<path transform="translate(462,799)" d="m0 0h64l15 3 10 4 10 7 10 9 8 13 6 16 2 9v30l-4 17-7 14-8 10-10 9-14 7-10 3-7 1-20 1h-40l-5-1zm15 13v127h39l16-2 12-5 9-7 7-7 5-8 5-14 2-9v-24l-2-10-5-13-9-13-10-8-12-5-10-2z" fill="#FEFEFE"/>
<path transform="translate(617,799)" d="m0 0h100l1 1v11l-2 1-84 1v54h74l1 1v11l-4 1h-72l1 6v52h37l50 1 1 5v6l-1 1-52 1h-29l-21-1-1-151z" fill="#FEFEFE"/>
<path transform="translate(366,798)" d="m0 0h25l16 4 13 7 6 4 1 3-5 9h-4l-11-7-13-5-6-1h-21l-12 3-7 5h-2l-2 4-4 11v10l4 8 6 5 12 5 38 10 16 6 11 8 6 10 2 7v15l-3 10-8 11-11 7-12 4-14 2h-17l-17-3-16-6-12-7-6-5 1-5 4-7 5 1 9 7 13 6 15 4 9 1h11l16-3 9-5 5-6 2-6v-12l-5-10-10-6-18-6-30-8-13-5-8-6-6-7-3-7-1-6v-10l2-10 5-9 6-7 11-7 12-4z" fill="#FDFDFD"/>
<path transform="translate(401,503)" d="m0 0h3l5 23 2 9 1 24v14l-2 8-4 6-6 5-5 2h-8l-21-7-20-11-11-8-12-9-9-8v-2l27-11 28-14 21-13z" fill="#04071B"/>
<path transform="translate(477,812)" d="m0 0h47l16 4 10 6 7 6 9 14 5 14 1 12-5 1h-88l-1 61h-1z" fill="#07071E"/>
<path transform="translate(904,838)" d="m0 0h20l8 3 6 5 6 10 3 11 1 10v74h-15l-1-77-2-9-6-9-8-4h-13l-10 3-11 7-7 8-5 9-1 6-1 66h-14l-1-2v-31l1-78h13l1 22 9-10 11-8 8-4z" fill="#FEFEFE"/>
<path transform="translate(1305,838)" d="m0 0h19l9 3 5 4 7 11 3 10 1 9v76l-8 1-7-1v-48l-1-30-3-10-6-8-7-3h-14l-11 4-11 8-8 11-2 4-1 6-1 66-8 1-7-2 1-110 1-1h10l2 1 1 23 6-8 9-8 16-8z" fill="#FEFEFE"/>
<path transform="translate(985,801)" d="m0 0h12l2 1 1 37h23l2 1v11h-26l1 80 3 5 8 3 10-1 5-2h5l2 10-5 3-9 3-7 1h-8l-8-2-6-4-5-8-1-9v-79h-14l-1-1v-10h15v-38z" fill="#FEFEFE"/>
<path transform="translate(154,208)" d="m0 0h9l18 3 8 5 23 12 2 3-7-2-10 11-12 16-13 19-2 1 2-5 1-6-9 1-8-2-2-1v-2l-8 1-4 4v-2h-2l-2-9v-20h2l1-8 4-11 4-5z" fill="#7411AE"/>
<path transform="translate(1093,849)" d="m0 0h15l11 4 9 6 6 7 5 10 3 11v3h-83l1-10 4-9 6-9 9-8 9-4z" fill="#010003"/>
<path transform="translate(803,799)" d="m0 0h15v152l-9 1h-5l-1-1z" fill="#FEFEFE"/>
<path transform="translate(1179,839)" d="m0 0h10l3 1v24l4-4 4-6 9-8 12-6 4-1h9l1 4v8l-5 2-14 4-11 7-6 7-4 7-1 4-1 69-10 1-5-2z" fill="#FEFEFE"/>
<path transform="translate(723,258)" d="m0 0h36l34 1 10 2 10 6 7 5 7 10 3 12-1 15-3 9-6 2v-11l2-11-3-7-3-9-5-6-8-5-12-4-54 1-5 4-1 4v51l3 6v2l27 1 8 2-1 3-29 1v1h-16z" fill="#040107"/>
<path transform="translate(188,521)" d="m0 0 5 1 7 3 24 5 9 1h18l1-2 12 13 7 8 6 7-13 3-16 1h-28l-21-4-15-5 3-1 15 3 2 1v-20l-2-5-10-6z" fill="#7411AE"/>
<path transform="translate(424,485)" d="m0 0 5 2 8 29 6 36v16l-4 20-1-4 2-13v-20l-2-11-5-5h-2l-4 4-6 2-2 5-1 10-2 4-4 20-3 3 2-10v-14l-1-24-6-27-1-6 16-13z" fill="#7411AE"/>
<path transform="translate(151,310)" d="m0 0 2 3 10 24 22 45 13 23 6 10-1 2-6-9-14-25-4-6v-2l-6-1v-2h-2v-2l-7 1-10 2v-2l-5-1 3 9 3 7-1 3-8-16-10-19-1-4 8-23z" fill="#7411AE"/>
<path transform="translate(1359,321)" d="m0 0h18l9 4 7 8 6 13v111l-5-3-1-2-2-48-1-39-1-13-4-14-8-7-10-2-10 4-9 7h-2v2h-2l-2 4-4 2h-4l-1 3-1-4 6-11 9-10 8-4z" fill="#020004"/>
<path transform="translate(724,379)" d="m0 0h54l9 16 16 27 15 26-1 4-4-1-9-15-1-3h-2l-1-4-4-4-7-12-4-7-4-6-5-5-6-5-6-2h-23l-5 2-3 3-3 19v28l-1 9-3 3-2-3-1-2v-63z" fill="#020004"/>
<path transform="translate(1469,321)" d="m0 0h10l13 2 6 4 6 9 4 13 1 6v98h-4l-1-3-1-26v-54l-2-12-5-18-5-6-7-4h-11l-17 9-5 2-3-4 1-4 7-7 8-4z" fill="#030005"/>
<path transform="translate(154,208)" d="m0 0h9l16 3 1 3-4 6-13 16-11 15-7 9-4 2-2-9v-18l5-17 5-7z" fill="#030619"/>
<path transform="translate(1e3 322)" d="m0 0h7l8 4 7 8 4 10 1 5v104l-2 5-3-3-1-8-1-62-1-27-3-17-3-5-10-8-5-2-9-1v-1l11-1z" fill="#010003"/>
<path transform="translate(1094,311)" d="m0 0 2 1 44 110 5 13 3 7v7h-2v-3h-2l-13-27-5-12-10-22-5-13-4-12-5-12-6-16-4-13-1-7z" fill="#06010A"/>
<path transform="translate(1093,849)" d="m0 0h15l11 4 9 6 2 3-5 5-6 2-23-1-12-2v-2l-4-1-3-2-4 1-5 4 2-4 9-8 9-4z" fill="#07071D"/>
<path transform="translate(167,233)" d="m0 0h6l1 4v3l2 2 1 6h4v-2h3l1-3h3l1-4 5-1-2 6-11 15-6 8h-2v-2l-9 1-8-2-2-1v-2h-6l1-4h2l2-4 7-11 3-1 2-4z" fill="#8E14DA"/>
<path transform="translate(203,530)" d="m0 0 12 2 7 3v2l5 1 1 3 5 1-2 1v6l9 1 6 2v2h3v2l-11 2h-14l-19-2-1-21z" fill="#8F15DB"/>
<path transform="translate(678,236)" d="m0 0 3 1v47l-1 87v51l-1 16h-1l-1-21-2-60v-33l1-46v-29z"/>
<path transform="translate(1285,326)" d="m0 0 2 3-1 9h2v113l-3-1-1-2-1-15v-89l1-14z"/>
<path transform="translate(947,219)" d="m0 0 4 1 2 7 1 19v39l1 14v2l-4 1-4 2z"/>
<path transform="translate(1067,354)" d="m0 0h2l1 5 2 34v24l-1 27-3 12-3-1v-10l-1-2 1-56 1-31z"/>
<path transform="translate(1215,295)" d="m0 0 2 1v8l-10 27-15 40-3 6-4 2-1-3 4-14 6-13 1-5 13-38 5-10z" fill="#05010B"/>
<path transform="translate(906,220)" d="m0 0 3 1 1 8-1 67v18l-2 9-2 1-1-2v-100z"/>
<path transform="translate(1547,359)" d="m0 0 3 2 2 11 1 57-2 24-4 1z"/>
<path transform="translate(949,381)" d="m0 0h2l2 13 1 17v31l-2 10-3 1-2-2v-44l1-2z"/>
<path transform="translate(920,853)" d="m0 0 5 3 3 5h-3l-3 7h-10l-10-1-5-4 1-6 7-2h14z" fill="#06071C"/>
<path transform="translate(369,432)" d="m0 0 3 1 4 7 2 8h2l4 10 4 4 1 9-3 2h-5l-3-9-4-7-4-12-3-8v-4z"/>
<path transform="translate(1201,439)" d="m0 0h6l-1 8-4 11-2 3-4 13-4 7-2 6-4-2 2-6 2-10 3-7 3-2h3l-2-3v-6l2-9z"/>
<path transform="translate(1181,384)" d="m0 0h4l-1 7-6 15-5 9-2-1-2-7-1-9 2-7 8-4z" fill="#07010D"/>
<path transform="translate(644,813)" d="m0 0h61l-1 3-15 2h-19l-21-2-5-2z"/>
<path transform="translate(1144,327)" d="m0 0 1 2h2l2 4 2 7 2 4 1 7 2 3 2 6 3 5 2 8-1 7h-2l-9-25-8-21v-6z" fill="#0E0319"/>
<path transform="translate(1307,855)" d="m0 0 13 1 1 3v7l-1 1h-12l-6-3-1-4 4-4z" fill="#04071A"/>
<path transform="translate(1138,492)" d="m0 0 2 3-1 6-10 26-2 6-1-3h-2l1-10 4-11 2-5h2l3-9z" fill="#05010B"/>
<path transform="translate(977,322)" d="m0 0h6v2h4l-2 4-19 11-4-1v-2h2l2-4v-3l8-6z" fill="#040109"/>
<path transform="translate(312,548)" d="m0 0 4 1h-2l5 6 17 13 15 10 17 9 19 6h8l5-1-3 3h-13l-18-6-21-11v-2l-4-2-15-10v-2l-5-2v-2l-5-2-4-5z" fill="#7411AE"/>
<path transform="translate(134,359)" d="m0 0 7 6 2 4-1 10h-7l-4-2 2-15z"/>
<path transform="translate(871,292)" d="m0 0 3 3 1 2v14l-2 14-3 6-2-1-1-7 2-5 1-6z"/>
<path transform="translate(1220,389)" d="m0 0 5 1 1 1-1 7-2 5h-2l1 3-2 2-2 7h-1v-8l-2-2 1-5z" fill="#06010C"/>
<path transform="translate(1201,439)" d="m0 0h6l-1 8-4 11h-4l-1-1v-6l2-9z" fill="#020005"/>
<path transform="translate(832,462)" d="m0 0h22l4 2h-2l-1 3-2 1h-13l-7-3z"/>
<path transform="translate(1298,462)" d="m0 0h18l3 2h-2v3l-2 1h-12l-8-1-1-4z"/>
<path transform="translate(1148,445)" d="m0 0 2 3 5 11-1 7-3 3-3-1-2-19z" fill="#0C0215"/>
<path transform="translate(1410,462)" d="m0 0h13l5 1-2 1v2l-4 2h-11l-4-2 1-1-2-2z"/>
<path transform="translate(1230,369)" d="m0 0 5 1-3 12-4 4-2-1 1-13z" fill="#010002"/>
<path transform="translate(696,462)" d="m0 0h13l7 1-4 4-3 1h-8l-7-2-1-3z"/>
<path transform="translate(153,179)" d="m0 0h15l16 3 12 5-3 1-11-4-15-2h-20l-7 1 3-2z" fill="#7411AE"/>
<path transform="translate(1156,359)" d="m0 0 4 4 3 10-1 7h-2l-5-13v-6z" fill="#0B0214"/>
<path transform="translate(918,463)" d="m0 0h24l-4 1v2l-4 2h-9l-5-2z"/>
<path transform="translate(107,224)" d="m0 0 2 1v35l-2 2-2-6 1-29z"/>
<path transform="translate(837,363)" d="m0 0 1 4-6 7-6-1-1-2 2-4 9-2z"/>
<path transform="translate(1209,422)" d="m0 0 4 2-2 10-2 2-3-3-1-5 2-5z" fill="#030106"/>
<path transform="translate(1236,353)" d="m0 0h4l1 4-3 8-4 1v-8z"/>
<path transform="translate(1197,448)" d="m0 0 2 1-1 2v6l1 3-6 3-2 6-3 6-1-2z" fill="#160833"/>
<path transform="translate(1036,463)" d="m0 0h18l-2 1-1 3-5 1-7-1v-2z"/>
<path transform="translate(1144,327)" d="m0 0 1 2h2l2 4v6h-4l-2-5v-6z" fill="#0A0211"/>
<path transform="translate(1467,282)" d="m0 0h10l4 2-2 1-3 1-1 1h-9l-1-3z" fill="#07010B"/>
<path transform="translate(1336,349)" d="m0 0 1 3-3 11-3 2v-7l2-6z"/>
<path transform="translate(1183,491)" d="m0 0h2l1 5-3 6-3-1v-7z"/>
<path transform="translate(828,288)" d="m0 0h1l1 11-1 10-2-4-1-6 1-9z" fill="#1E093C"/>
<path transform="translate(1204,430)" d="m0 0h2l1 5 2 1-4 4-4-1z" fill="#0F082A"/>
<path transform="translate(362,417)" d="m0 0 4 4 2 4-1 4-6-5-1-4z"/>
<path transform="translate(955,352)" d="m0 0h2l-1 9-2 5-2-1-1-5z"/>
<path transform="translate(1439,433)" d="m0 0 2 3-1 10h-2l-1-2v-8z"/>
<path transform="translate(542,272)" d="m0 0h2l1 11-3 3h-1z"/>
<path transform="translate(1519,463)" d="m0 0h15l-2 1v3l-7-1v-1l-6-1z"/>
<path transform="translate(1144,475)" d="m0 0h2l-1 6-2 6h-2v-6z" fill="#000001"/>
<path transform="translate(1251,318)" d="m0 0h2l-1 4 2 1-3 4-3-3v-4z"/>
<path transform="translate(406,529)" d="m0 0 2 1 1 10h-2l-3-7h2z"/>
<path transform="translate(905,368)" d="m0 0 2 1v10h-2l-1-2v-7z"/>
<path transform="translate(820,322)" d="m0 0 2 2-6 7-2-2 4-6z" fill="#160527"/>
<path transform="translate(1427,309)" d="m0 0 3 1 1 5-3 2-2-2v-5z" fill="#090313"/>
<path transform="translate(1459,324)" d="m0 0 2 1-4 2-1 3-6 5-2-1 8-8z" fill="#13072B"/>
<path transform="translate(952,300)" d="m0 0 2 2-7 6-1-1v-5h3z" fill="#290A4B"/>
</svg>
