<?xml version="1.0" standalone="no"?>
<!DOCTYPE svg PUBLIC "-//W3C//DTD SVG 20010904//EN"
 "http://www.w3.org/TR/2001/REC-SVG-20010904/DTD/svg10.dtd">
<svg version="1.0" xmlns="http://www.w3.org/2000/svg"
 width="900.000000pt" height="276.000000pt" viewBox="0 0 900.000000 276.000000"
 preserveAspectRatio="xMidYMid meet">
<metadata>
Created by potrace 1.10, written by Peter Selinger 2001-2011
</metadata>
<g transform="translate(0.000000,276.000000) scale(0.100000,-0.100000)"
fill="#000000" stroke="none">
<path d="M0 1380 l0 -1380 4500 0 4500 0 0 1380 0 1380 -4500 0 -4500 0 0
-1380z m3582 775 c78 -27 163 -78 178 -105 6 -12 3 -29 -11 -56 -49 -92 -71
-124 -86 -124 -9 0 -38 14 -64 31 -123 79 -262 77 -336 -4 -31 -35 -35 -44
-30 -79 3 -25 16 -51 34 -70 25 -27 191 -114 252 -133 43 -13 136 -73 179
-114 91 -89 124 -218 83 -333 -54 -156 -171 -243 -343 -255 -144 -10 -256 19
-384 99 -61 38 -79 64 -66 96 15 37 98 132 115 132 10 0 33 -11 50 -24 68 -51
139 -79 214 -84 86 -5 121 6 163 55 40 45 42 107 5 152 -22 26 -253 151 -278
151 -14 0 -139 85 -174 118 -17 16 -44 54 -59 83 -23 45 -27 66 -27 129 1 156
97 280 264 340 83 30 228 27 321 -5z m555 7 c24 -15 29 -60 28 -220 -1 -126 1
-165 11 -169 7 -3 35 14 62 37 138 116 349 115 458 -2 87 -94 95 -134 98 -519
2 -314 2 -314 -21 -336 -19 -20 -32 -23 -101 -23 -63 0 -82 4 -95 18 -14 15
-16 60 -19 322 -3 347 -4 352 -86 391 -86 42 -199 -5 -264 -111 -37 -61 -42
-101 -43 -348 -1 -288 7 -272 -120 -272 -67 0 -85 3 -99 19 -15 17 -17 68 -16
601 0 527 2 586 17 602 13 15 31 18 97 18 45 0 86 -4 93 -8z m1018 -6 c16 -12
20 -29 23 -94 4 -71 2 -82 -17 -101 -18 -18 -33 -21 -99 -21 -112 0 -122 9
-122 111 0 108 11 119 118 119 52 0 85 -5 97 -14z m-2627 -22 c2 -12 -21 -60
-51 -110 -73 -121 -144 -246 -185 -324 -46 -89 -60 -103 -97 -97 -38 7 -231
122 -239 144 -9 22 16 56 103 143 106 104 212 172 411 258 35 15 54 10 58 -14z
m-1398 -15 c30 -18 73 -42 95 -54 22 -12 67 -38 100 -57 33 -19 274 -157 535
-307 261 -150 478 -278 482 -284 13 -20 9 -37 -10 -45 -10 -4 -60 -32 -112
-62 -52 -30 -108 -62 -123 -70 -27 -15 -718 -411 -870 -500 -116 -67 -159 -90
-169 -90 -35 0 35 178 126 319 95 147 277 308 460 407 35 19 28 33 -34 71
-175 106 -336 252 -425 384 -85 127 -152 289 -128 312 10 10 14 9 73 -24z
m4848 -242 c169 -59 271 -232 272 -461 0 -215 -66 -355 -212 -449 -113 -73
-272 -73 -380 -1 -28 19 -57 33 -64 30 -9 -4 -14 -50 -16 -180 -2 -127 -7
-179 -16 -188 -18 -18 -176 -18 -194 0 -19 19 -24 1214 -5 1230 7 6 47 12 89
13 83 3 108 -8 108 -46 0 -38 25 -36 80 6 29 21 55 39 59 39 3 1 29 7 56 15
59 17 160 14 223 -8z m848 -5 c82 -25 144 -66 144 -95 1 -29 -61 -146 -80
-152 -9 -3 -47 11 -85 30 -125 63 -244 40 -245 -47 0 -34 24 -52 181 -126 174
-83 232 -143 245 -254 8 -71 -9 -132 -57 -195 -72 -96 -210 -138 -377 -114
-109 16 -262 99 -262 142 0 24 74 135 96 143 9 3 43 -11 81 -33 98 -60 208
-68 260 -19 30 28 29 63 -1 92 -27 24 -42 32 -186 99 -56 26 -111 60 -133 83
-141 140 -107 342 73 434 83 42 232 48 346 12z m434 -17 c15 -14 69 -147 115
-287 70 -213 94 -273 109 -276 17 -4 21 3 59 123 40 123 133 387 147 418 15
32 58 45 135 41 28 -2 60 -3 73 -3 36 -1 36 -25 0 -113 -19 -46 -44 -108 -55
-138 -11 -30 -33 -89 -48 -130 -15 -41 -34 -88 -41 -105 -7 -16 -19 -48 -27
-70 -15 -44 -115 -310 -212 -565 -20 -52 -45 -104 -55 -114 -23 -23 -120 -33
-162 -17 -39 15 -37 50 13 168 64 154 72 183 57 225 -25 67 -130 333 -144 363
-47 102 -183 467 -178 479 7 19 21 21 117 19 57 -1 84 -6 97 -18z m-2099 5
c18 -10 19 -26 19 -455 l0 -444 -22 -15 c-31 -22 -165 -22 -196 0 l-22 15 0
444 c0 412 1 445 18 454 22 14 178 14 203 1z"/>
<path d="M5747 1675 c-99 -34 -148 -97 -166 -215 -20 -124 23 -246 108 -305
36 -24 52 -29 104 -29 37 0 74 7 93 17 114 60 163 230 109 387 -36 107 -157
177 -248 145z"/>
</g>
</svg>
